<?xml version="1.0" encoding="utf-8"?>
<!-- Generator: Adobe Illustrator 25.2.1, SVG Export Plug-In . SVG Version: 6.00 Build 0)  -->
<svg version="1.1" id="Capa_1" xmlns="http://www.w3.org/2000/svg" xmlns:xlink="http://www.w3.org/1999/xlink" x="0px" y="0px"
	 viewBox="0 0 1080 1080" style="enable-background:new 0 0 1080 1080;" xml:space="preserve">
<style type="text/css">
	.st0{fill:#08333D;}
	.st1{fill:#D54543;}
	.st2{fill:#F2F9FB;}
	.st3{fill:none;}
	.st4{fill:#F2F9FB;stroke:#08333D;stroke-width:8.5039;stroke-miterlimit:10;}
	.st5{opacity:0.7;fill:#D54543;}
	.st6{fill:none;stroke:#08333D;stroke-width:5.6693;stroke-miterlimit:10;}
	.st7{fill:none;stroke:#A4C1C1;stroke-miterlimit:10;}
	.st8{opacity:0.5;fill:#A4C1C1;}
	.st9{fill:none;stroke:#08333D;stroke-width:8.5039;stroke-miterlimit:10;}
	.st10{opacity:0.5;}
	.st11{fill:#A0B9BA;}
	.st12{fill:#A4C1C1;}
	.st13{opacity:0.7;}
	.st14{opacity:0.91;}
	.st15{fill:none;stroke:#D54543;stroke-width:1.4173;stroke-miterlimit:10;}
	.st16{fill:none;stroke:#D54543;stroke-width:14.1732;stroke-miterlimit:10;}
</style>
<g>
	<g>
		<g>
			<line class="st2" x1="378.3" y1="569.5" x2="409.5" y2="675.4"/>
		</g>
		<g>
			<path class="st0" d="M406.1,676.4c-0.4-1.5-0.9-3-1.3-4.5c-1.2-4-2.3-7.9-3.5-11.9c-1.7-5.6-3.3-11.2-5-16.9
				c-1.9-6.4-3.8-12.9-5.7-19.3c-1.9-6.5-3.8-12.9-5.7-19.4c-1.7-5.7-3.3-11.3-5-17c-1.2-4-2.4-8.1-3.6-12.1c-0.5-1.6-1-3.2-1.2-4.8
				c-0.2-1.4-1.5-6.7,0.2-5c1.7,1.7,3.5,3.8,4.2,4.1c1.3,0.4,2.2-0.6,2.7,0.9c0.4,1.2,0.7,2.3,1,3.5c1.1,3.8,2.2,7.6,3.4,11.4
				c1.6,5.4,3.2,10.8,4.8,16.2c1.8,6.2,3.7,12.4,5.5,18.7c1.9,6.3,3.7,12.6,5.6,18.9c1.7,5.6,3.3,11.2,5,16.8
				c1.2,4.2,2.5,8.3,3.7,12.5c0.6,2,1.2,3.9,1.7,5.9c0,0.1,0,0.1,0.1,0.2C412.9,674.4,406.1,676.4,406.1,676.4z"/>
		</g>
	</g>
	<g>
		<g class="st10">
			<g>
				<path class="st11" d="M711.1,503.9c-1-0.2-3.9-0.9-9.3,8.6c-3.4-38.1-19.6-73.3-46.4-100.5c-30.5-30.9-71.3-48-115-48
					s-84.5,17-115,48c-27.1,27.5-43.4,63.3-46.5,101.8c-5.9-10.9-9-10.2-10-9.9c-3.1,0.7-3.5,4.7-3.4,8.5c0.1,9.8,1.5,16.3,2.6,21.5
					c0.9,4.3,1.6,7.6,1.5,11.5c-0.1,3.9,0.8,9.2,2.4,13.9c1.4,4,3.7,9,7.2,10.1c0.3,0.1,0.9,0.2,1.5,0.2c1,0,2.2-0.3,3.5-1.5
					c9.1,34.3,28.4,73.9,55.4,112.3c36.5,52,76.1,85.6,100.8,85.6s64.3-33.6,100.8-85.6c26.8-38.1,46-77.5,55.2-111.7
					c1,0.7,2,0.9,2.8,0.9c0.6,0,1.2-0.1,1.5-0.2c3.5-1.1,5.8-6.1,7.2-10.1c1.6-4.7,2.5-10,2.4-13.9c-0.1-3.9,0.6-7.3,1.5-11.5
					c1.1-5.3,2.5-11.8,2.6-21.5C714.6,508.6,714.2,504.6,711.1,503.9z M707.3,533c-0.9,4.4-1.7,8.2-1.6,12.7
					c0.2,7.9-4.3,19.2-6.4,19.4c-0.1,0-0.4-0.2-0.8-0.7l-0.6-1.3l-0.9-2.2c-0.7-1.6-3.1-1.4-3.5,0.3c-0.2,0.7-0.4,1.5-0.5,2.2
					c-3,11.9-7.3,24.7-12.8,37.9c-10.6,25.2-25.4,51.7-42.8,76.5c-35.1,50-74,83.6-96.9,83.6s-61.8-33.6-96.9-83.6
					c-17.4-24.8-32.2-51.3-42.8-76.5c-5.5-13.2-9.9-26-12.8-37.9l-0.6-2.6c-0.3-1.4-2.1-1.7-2.9-0.5l-1.5,2.3l-1.2,1.7
					c-0.5,0.7-0.8,0.9-0.9,0.9c-2.2-0.2-6.7-11.5-6.5-19.4c0.1-4.5-0.7-8.3-1.6-12.7c-1.1-5.3-2.4-11.3-2.6-20.6
					c0-1.4,0-2.4,0.1-3.1c1.7,1.9,4.4,6.3,6.6,10.9c0,0,0.1,0.1,0.1,0.2l1.3,2.4l1.6,2.7c0.9,1.5,3.2,0.9,3.2-0.8
					c0-1.2,0-2.3,0.1-2.9c1.5-40.3,17.5-77.9,45.7-106.5c29.6-30,69.2-46.6,111.6-46.6s82,16.5,111.6,46.6
					c27.7,28.1,43.8,65.1,45.6,104.8c0,1,0.3,2.3,0.5,3.4c0.3,1.2,1.8,1.5,2.5,0.5l1.8-2.6l0.6-0.9c0.1-0.1,0.1-0.2,0.2-0.3
					c2.2-4.6,4.9-9.1,6.6-11c0.1,0.7,0.1,1.6,0.1,3.1C709.7,521.6,708.4,527.7,707.3,533z"/>
			</g>
		</g>
		<g class="st10">
			<g>
				<g>
					<path class="st11" d="M560.9,636.2c-2.7,0-6.2-0.1-10.4-0.2c-4.4-0.1-9.4-0.2-14.1-0.2h-22.6c-0.3,0-0.5,0-0.7-0.1
						c-4.6-1.5-3.5-10.4,0.6-35.5c1.6-9.9,3.3-20.1,3.6-26.7c2.4-50.5-1.5-60.4-3.3-62.3c-4.3-4.6-11.2-4-11.3-4c-0.1,0-0.3,0-0.4,0
						c-0.2,0-23.3-1.6-44.4,0c-21.2,1.6-42.5,4.7-42.7,4.7c-1.3,0.2-2.5-0.7-2.7-2c-0.2-1.3,0.7-2.5,2-2.7c0.2,0,21.6-3.1,43-4.8
						c20.5-1.6,42.7-0.2,44.9,0c1.5-0.1,9.5-0.4,15,5.5c1.8,1.9,7.3,7.8,4.5,65.7c-0.3,6.9-2,17.2-3.7,27.2
						c-1.7,10.6-4.3,26.3-3.4,30.2h21.4c4.8,0,9.8,0.1,14.2,0.2c6.5,0.1,12.6,0.3,15.4,0c0.4-3.5-1.4-15.4-2.8-25.1
						c-1.7-11.8-3.5-24.1-3.5-31.7l0-1.5c0-32.4,2.1-69.7,18.6-70.5c0.2,0,23.6-1.6,45.1,0c21.4,1.6,42.8,4.7,43,4.8
						c1.3,0.2,2.2,1.4,2,2.7c-0.2,1.3-1.4,2.2-2.7,2c-0.2,0-21.4-3.1-42.7-4.7c-21.2-1.6-44.2,0-44.4,0
						c-7.5,0.4-10.8,16.2-12.1,25.6c-2,14.5-2,31.2-2,40.2l0,1.5c0,7.3,1.9,19.9,3.5,31c3.6,24.5,4,29.3,0.2,30.2
						C566.7,636.1,564.3,636.2,560.9,636.2z"/>
				</g>
			</g>
			<g>
				<g>
					<g>
						<g>
							<path class="st11" d="M471.2,553.2c0.2,0,0.3,0,0.5-0.1v0C471.5,553.1,471.4,553.2,471.2,553.2z"/>
						</g>
						<g>
							<path class="st11" d="M492.5,551c0.4,1.3-0.4,2.5-1.6,2.9c-0.3,0.1-8.1,2.3-17.2,3.7c0.7-0.1,1.3-0.6,1.7-1.2
								c0.7-1.3,1.3-2.7,1.7-4.1c7-1.3,12.4-2.9,12.5-2.9C490.8,549,492.1,549.7,492.5,551z"/>
						</g>
						<g>
							<path class="st11" d="M476.9,533.4c-1.5-0.8-3.2-1.4-4.8-1.6c-0.4,0-0.7-0.1-1.1-0.1c-0.2,0-0.4,0-0.6-0.1c0,0-0.1,0-0.1,0
								c-0.5-0.1-1-0.1-1.5-0.1c-0.1,0-0.2,0-0.3,0c-1.1-0.1-2.1-0.1-3.1-0.1c-2.7,0-5.2,0.3-7.3,0.8c-0.4,0.1-0.8,0.2-1.3,0.3
								c-0.2,0-0.4,0.1-0.7,0.2c-0.3,0.1-0.7,0.2-1,0.3c0,0-0.1,0-0.1,0c-0.5,0.1-1,0.3-1.5,0.5c0,0,0,0,0,0
								c-0.2,0.1-0.4,0.2-0.6,0.2c-0.3,0.1-0.6,0.2-0.9,0.3c-1.6,0.6-3.2,1.2-4.7,1.8c-5.6,2.1-10.5,4-13.7,5.2
								c3,2.6,8.1,6.8,13.7,9.5c0.5,1.8,1.1,3.6,1.9,5.2c0.3,0.6,0.8,1,1.4,1.2c-11.5-3.5-22.6-14.7-23.1-15.1
								c-0.6-0.6-0.8-1.4-0.6-2.1c0.2-0.8,0.7-1.4,1.4-1.7c0.1,0,10.4-4,21.9-8.4c0,0,0,0,0,0c2.3-0.9,4.5-1.6,6.7-2.1
								c4.4-1.1,9.7-1.2,15.7-0.4c10.4,1.4,19.4,13.6,19.8,14.2c0.8,1.1,0.5,2.5-0.5,3.3c-1,0.8-2.5,0.5-3.3-0.5
								c0,0-2.1-2.8-5.2-5.8C481.6,536.5,479.3,534.6,476.9,533.4z"/>
						</g>
					</g>
					<g>
						<g>
							<path class="st11" d="M474.4,528.2c-0.4-0.6-1-1-1.7-1.1c-6-0.8-11.3-0.7-15.7,0.4c-2.2,0.5-4.4,1.2-6.7,2.1c0,0,0,0,0,0
								c-0.5,0.2-1,0.6-1.2,1.2c-0.7,1.6-1.3,3.2-1.8,5c1.5-0.6,3.1-1.2,4.7-1.8c0.3-0.1,0.6-0.2,0.9-0.3c0,0,0,0,0,0
								c0.2-0.1,0.4-0.1,0.6-0.2c0,0,0,0,0,0c0.5-0.2,1-0.3,1.5-0.5c0,0,0.1,0,0.1,0c0.3-0.1,0.7-0.2,1-0.3c0.2-0.1,0.4-0.1,0.7-0.2
								c0.4-0.1,0.9-0.2,1.3-0.3c2.2-0.5,4.6-0.8,7.3-0.8c1,0,2,0,3.1,0.1c0.1,0,0.2,0,0.3,0c0.5,0,1,0.1,1.5,0.1c0,0,0,0,0.1,0
								c0.2,0,0.4,0,0.6,0.1c0,0,0,0,0,0c0.4,0,0.7,0.1,1.1,0.1c1.6,0.2,3.2,0.8,4.8,1.6C476.2,531.5,475.4,529.7,474.4,528.2z"/>
						</g>
						<g>
							<path class="st11" d="M476.9,533.4c-1.5-0.8-3.2-1.4-4.8-1.6c-0.4,0-0.7-0.1-1.1-0.1c-0.2,0-0.4,0-0.6-0.1c0,0-0.1,0-0.1,0
								c-0.5-0.1-1-0.1-1.5-0.1c-0.1,0-0.2,0-0.3,0c-1.1-0.1-2.1-0.1-3.1-0.1c-2.7,0-5.2,0.3-7.3,0.8c-0.4,0.1-0.8,0.2-1.3,0.3
								c-0.2,0.1-0.4,0.1-0.7,0.2c-0.3,0.1-0.7,0.2-1,0.3c0,0-0.1,0-0.1,0c-0.5,0.1-1,0.3-1.5,0.5c0,0,0,0,0,0
								c-0.2,0.1-0.4,0.2-0.6,0.2c-0.3,0.1-0.6,0.2-0.9,0.3c-1.6,0.6-3.2,1.2-4.7,1.8c-0.6,2.3-0.9,4.8-0.9,7.3
								c0,2.6,0.3,5.1,0.9,7.5c0.5,1.8,1.1,3.6,1.9,5.2c0.3,0.6,0.8,1,1.4,1.2c3.8,1.2,7.3,1.8,10.2,1.8c3.7,0,8-0.4,12.8-1.1
								c0,0,0,0,0,0c0.7-0.1,1.3-0.6,1.7-1.2c0.7-1.3,1.3-2.7,1.7-4.1c0.9-2.8,1.4-5.9,1.4-9.2C478.5,539.7,477.9,536.4,476.9,533.4
								z M471.7,553.1c-0.2,0-0.3,0-0.5,0.1C471.4,553.2,471.5,553.1,471.7,553.1L471.7,553.1z"/>
						</g>
					</g>
				</g>
				<g>
					<g>
						<g>
							<path class="st11" d="M607.2,556.8c-9.1-1.4-16.9-3.6-17.3-3.7c-1.3-0.4-2-1.7-1.6-2.9c0.4-1.2,1.7-2,2.9-1.6
								c0.1,0,5.5,1.6,12.5,2.9c0.5,1.5,1,2.8,1.7,4.1C605.9,556.2,606.5,556.6,607.2,556.8z"/>
						</g>
						<g>
							<path class="st11" d="M653.3,541c-0.5,0.5-11.5,11.6-23.1,15.1c0.6-0.2,1.1-0.6,1.4-1.2c0.8-1.6,1.4-3.4,1.9-5.2
								c5.6-2.7,10.7-6.9,13.7-9.5c-3.1-1.2-8.1-3.1-13.7-5.2c-1.5-0.6-3.1-1.2-4.7-1.8c-0.3-0.1-0.6-0.2-0.9-0.3
								c-0.2-0.1-0.3-0.1-0.5-0.2c-0.1,0-0.2-0.1-0.3-0.1c-0.4-0.1-0.9-0.3-1.3-0.4c0,0-0.1,0-0.1,0c-0.3-0.1-0.6-0.2-0.9-0.3
								c-0.3-0.1-0.5-0.2-0.8-0.2c-0.4-0.1-0.8-0.2-1.3-0.3c-2.2-0.5-4.6-0.8-7.3-0.8c-0.5,0-1,0-1.6,0c-0.5,0-1,0-1.4,0.1
								c-0.1,0-0.3,0-0.4,0c-0.5,0-0.9,0.1-1.4,0.1c0,0-0.1,0-0.1,0c-0.2,0-0.4,0-0.6,0.1c-0.4,0-0.7,0.1-1.1,0.1
								c-1.6,0.2-3.2,0.8-4.8,1.6c-6.5,3.4-11.8,10.6-11.9,10.7c-0.8,1.1-2.2,1.3-3.3,0.5c-1.1-0.8-1.3-2.2-0.5-3.3
								c0.4-0.5,9.4-12.8,19.8-14.2c6-0.8,11.3-0.7,15.7,0.4c2.2,0.5,4.4,1.2,6.7,2.1c11.5,4.3,21.8,8.3,21.9,8.4
								c0.7,0.3,1.3,0.9,1.4,1.7C654.1,539.6,653.8,540.4,653.3,541z"/>
						</g>
					</g>
					<g>
						<g>
							<path class="st11" d="M633.6,535c-0.4-1.8-1-3.4-1.8-5c-0.3-0.5-0.7-1-1.3-1.2c-2.3-0.9-4.5-1.6-6.7-2.1
								c-4.4-1.1-9.7-1.2-15.7-0.4c-0.7,0.1-1.3,0.5-1.7,1.1c-1,1.6-1.9,3.3-2.5,5.2c-1,3-1.6,6.3-1.6,9.7c0,3.2,0.5,6.3,1.4,9.2
								c1.3,0.2,2.7,0.5,4.2,0.7c0.4,0.1,0.8,0.1,1.2,0.2c-1.3-2.9-2.1-6.5-2.1-10c0-4.2,1-8.2,2.8-11.4c0,0,0,0,0,0
								c0.2,0,0.4,0,0.6-0.1c0,0,0.1,0,0.1,0c0.5-0.1,1-0.1,1.4-0.1c0.1,0,0.3,0,0.4,0c0.5,0,1-0.1,1.4-0.1c0.5,0,1.1,0,1.6,0
								c2.7,0,5.1,0.3,7.3,0.8c0.4,0.1,0.8,0.2,1.3,0.3c0.3,0.1,0.5,0.1,0.8,0.2c0.3,0.1,0.6,0.2,0.9,0.3c0,0,0.1,0,0.1,0
								c0.4,0.1,0.9,0.3,1.3,0.4c0.1,0,0.2,0.1,0.3,0.1c0.2,0.1,0.3,0.1,0.5,0.2v0c1.2,2.8,1.8,6,1.8,9.4c0,3.5-0.7,6.8-1.9,9.7
								c0.3-0.1,0.7-0.2,1-0.3c1.6-0.5,3.2-1.1,4.7-1.9c0.6-2.4,0.9-4.9,0.9-7.5C634.4,539.7,634.1,537.3,633.6,535z"/>
						</g>
						<g>
							<path class="st11" d="M633.5,549.7c-0.5,1.8-1.1,3.6-1.9,5.2c-0.3,0.6-0.8,1-1.4,1.2c-3.8,1.2-7.3,1.8-10.2,1.8
								c-3.7,0-8-0.4-12.8-1.1c-0.7-0.1-1.4-0.6-1.7-1.2c-0.7-1.3-1.3-2.7-1.7-4.1c1.3,0.2,2.7,0.5,4.2,0.7c0.4,0.1,0.8,0.1,1.2,0.2
								c-1.3-2.9-2.1-6.5-2.1-10c0-4.2,1-8.2,2.8-11.4c0.2,0,0.4,0,0.6-0.1c0,0,0.1,0,0.1,0c0.5,0,1-0.1,1.4-0.1c0.1,0,0.3,0,0.4,0
								c0.5,0,1-0.1,1.4-0.1c0.5,0,1.1,0,1.6,0c2.7,0,5.1,0.3,7.3,0.8c0.4,0.1,0.8,0.2,1.3,0.3c0.3,0.1,0.5,0.1,0.8,0.2
								c0.3,0.1,0.6,0.2,0.9,0.3c0,0,0.1,0,0.1,0c0.4,0.1,0.9,0.3,1.3,0.4c0.1,0,0.2,0.1,0.3,0.1c0.1,0.1,0.3,0.1,0.5,0.2
								c1.2,2.8,1.8,6,1.8,9.4c0,3.5-0.7,6.8-1.9,9.7c0.3-0.1,0.7-0.2,1-0.3C630.4,551.1,632,550.5,633.5,549.7z"/>
						</g>
					</g>
				</g>
			</g>
		</g>
	</g>
	<g>
		<g>
			<path class="st2" d="M409.6,586.6c-14.1,2.5-21.4-63.1-31.6-72.8"/>
		</g>
		<g>
			<path class="st0" d="M408.7,590.2c-10.4,0-15.9-20.1-22.2-43.1c-1.2-4.5-2.4-9-3.5-13.6c-2.5-10-5-20.1-11.1-28.6
				c-0.2-0.3,1.5-0.7,2.6-0.3c0.3,0.1,0.6,0.2,0.8,0.4c1.4,1,6.3,7.6,7.3,9.2c1,1.5,1.7,3.2,2.5,4.8c1.9,4.3,3.3,8.8,4.6,13.3
				c1.3,4.3,2.4,8.6,3.6,12.9c2.7,10,5.6,20.4,8.7,27.9c3.4,8.2,6,10.1,7,10l1.2,6.9C409.7,590.2,409.2,590.2,408.7,590.2z"/>
		</g>
	</g>
	<g>
		<g>
			<line class="st2" x1="703.3" y1="569.5" x2="672.1" y2="675.4"/>
		</g>
		<g>
			<path class="st0" d="M691,623.8c1.9-6.5,3.8-12.9,5.7-19.4c1.7-5.7,3.3-11.3,5-17c1.2-4,2.4-8.1,3.6-12.1c0.5-1.6,1-3.2,1.2-4.8
				c0.2-1.4,0.7-9.2,0.7-9.2s-1.7,4.1-4.1,6.6c-2.5,2.5-3.1,1-3.6,2.5c-0.4,1.2-0.7,2.3-1,3.5c-1.1,3.8-2.2,7.6-3.4,11.4
				c-1.6,5.4-3.2,10.8-4.8,16.2c-1.8,6.2-3.7,12.4-5.5,18.7C682.9,626.4,689.1,630.2,691,623.8z"/>
		</g>
	</g>
	<g>
		<g>
			<path class="st2" d="M672,586.6c14.1,2.5,21.4-63.1,31.6-72.8"/>
		</g>
		<g>
			<path class="st0" d="M672.9,590.2c10.4,0,15.9-20.1,22.2-43.1c1.2-4.5,2.4-9,3.5-13.6c2.5-10,5-20.1,11.1-28.6
				c0.2-0.3-1.5-0.7-2.6-0.3c-0.3,0.1-0.6,0.2-0.8,0.4c-1.4,1-6.3,7.6-7.3,9.2c-1,1.5-1.7,3.2-2.5,4.8c-1.9,4.3-3.3,8.8-4.6,13.3
				c-1.3,4.3-2.4,8.6-3.6,12.9c-2.7,10-5.6,20.4-8.7,27.9c-3.4,8.2-6,10.1-7,10l-1.2,6.9C671.9,590.2,672.4,590.2,672.9,590.2z"/>
		</g>
	</g>
	<g>
		<g>
			<g>
				<path class="st2" d="M389,600.2c-1.1-4.8,1.9-9.6,6.7-10.7c27.8-6.5,114.5-26.4,143-26.4c28.4,0,119.4,19.8,148.9,26.4
					c5.1,1.1,8.1,6.3,6.6,11.3c-6.6,22.2-24.1,78.5-37.3,99.6c-16.6,26.6-90.4,76.9-117.4,76.6c-27-0.3-105-55.9-119.1-76.6
					C409,683.6,394.3,622.9,389,600.2z"/>
			</g>
			<g>
				<path class="st0" d="M539.7,780.4c-0.1,0-0.2,0-0.2,0c-18.1-0.2-52.4-21.9-66.3-31.2c-26.1-17.5-48.5-36.4-55.7-46.9
					c-11.6-17.1-26.2-76.5-31.9-101.3l0,0c-1.5-6.7,2.6-13.4,9.3-15c26.4-6.2,114.9-26.5,143.8-26.5c28.1,0,114,18.5,149.7,26.5
					c3.4,0.8,6.3,2.9,8,5.9c1.7,3,2.2,6.6,1.2,9.9c-1.2,4-2.7,8.9-4.4,14.5c-8.4,26.8-22.2,68.3-33.3,86
					C642.9,729.3,568.4,780.4,539.7,780.4z M538.6,566.6c-28.2,0-115.9,20.2-142.2,26.3c-2.9,0.7-4.7,3.6-4,6.5
					c4.4,19,19.6,82.4,30.9,98.9c6.6,9.7,28.7,28.2,53.8,45c27.9,18.7,51.2,29.9,62.4,30c0.1,0,0.1,0,0.2,0
					c11.6,0,34.7-10.6,60.4-27.7c25.1-16.7,46.2-35.2,53.8-47.3c12.9-20.6,30.1-75.9,36.9-98.7c0.4-1.5,0.3-3-0.5-4.3
					c-0.8-1.3-2-2.2-3.5-2.5C659.1,586.7,566.8,566.6,538.6,566.6z"/>
			</g>
		</g>
		<g class="st10">
			<g>
				<path class="st12" d="M426,598.8l1.3,4.9c0.3,1.1,1.4,1.8,2.5,1.6c12.1-2.2,75.6-13.9,83.7-15.4c8.9-1.7,41.8-2.5,50.3,0
					c7.6,2.2,68.5,13.2,80.9,15.4c1.2,0.2,2.4-0.6,2.6-1.8l1-5.7c0.2-1.1-0.5-2.2-1.7-2.5c-13.1-3.1-86.4-20.2-107.9-19.4
					c-21.4,0.8-96.9,17.2-111,20.2C426.4,596.4,425.7,597.6,426,598.8z"/>
			</g>
		</g>
		<g>
			<g>
				<path class="st12" d="M619.5,626.9c-0.7-0.1-65.8-12.5-81.3-13.3c-15.6-0.8-81.2,13-81.8,13.1l-0.2-0.8
					c0.7-0.1,66.4-13.9,82-13.1c15.6,0.8,80.7,13.2,81.4,13.3L619.5,626.9z"/>
			</g>
		</g>
		<g>
			<g>
				<path class="st12" d="M537.5,728.9c-16.9,0-78.7-23.8-81.3-24.8l0.3-0.8c0.7,0.3,64.3,24.7,81,24.7c0.3,0,0.5,0,0.7,0
					c15.5-0.8,80.5-24.6,81.2-24.9l0.3,0.8c-2.7,1-65.8,24.1-81.4,24.9C538,728.9,537.7,728.9,537.5,728.9z"/>
			</g>
		</g>
		<g class="st14">
			<g>
				<path class="st1" d="M660.4,589.3c-0.4,0-0.8,0-1.2-0.1l-35.4-7.2c-3.2-0.6-5.2-3.7-4.6-6.9c0.6-3.2,3.8-5.2,6.9-4.6l35.4,7.2
					c3.2,0.6,5.2,3.7,4.6,6.9C665.6,587.4,663.1,589.3,660.4,589.3z"/>
			</g>
		</g>
	</g>
	<g class="st14">
		<path class="st1" d="M497.9,764c-1.1,0-2.2-0.3-3.2-1l-30.1-20c-2.7-1.8-3.4-5.4-1.6-8.1c1.8-2.7,5.4-3.4,8.1-1.6l30.1,20
			c2.7,1.8,3.4,5.4,1.6,8.1C501.7,763.1,499.8,764,497.9,764z"/>
	</g>
	<g>
		<g>
			<g>
				<polygon class="st1" points="462.4,784.9 462.6,786.5 453.4,788 452.6,778.7 454.1,778.6 454.7,785 474.8,757.8 475.4,758.2 
					476,758.7 455.9,786 				"/>
			</g>
		</g>
	</g>
	<g>
		<g>
			<g>
				<polygon class="st1" points="661.8,545.6 661.6,544 670.7,542.5 671.6,551.8 670.1,551.9 669.5,545.5 649.4,572.7 648.8,572.3 
					648.2,571.8 668.3,544.5 				"/>
			</g>
		</g>
	</g>
</g>
<path class="st1" d="M540,201c-24.9,0-45,20.1-45,45c0,24.8,20.1,45,45,45s45-20.2,45-45C585,221.1,564.9,201,540,201z M547.3,243.5
	c3.5,1.9,8,5.5,8,12.4c0,7.4-5.5,13.6-15.4,13.6c-8.3,0-13.1-4.4-15-6.9c-0.2-0.2-0.3-0.5-0.3-0.8c0-0.4,0.1-0.8,0.3-1.1
	c1.1-2.5,3.5-6.4,4.6-7.8c0.3-0.3,0.6-0.5,0.8-0.5s0.5,0.1,0.7,0.4c1.7,2,5.6,5.5,9.1,5.5c2.4,0,3.8-1.5,3.8-3.7
	c0-3.7-5.4-7.6-10.7-9.5c-0.5-0.2-0.8-0.6-0.8-1.1c0-0.2,0.1-0.5,0.4-0.8c2.2-2.2,6.2-6.5,8.2-9.1c0.2-0.3,0.4-0.7,0.4-1
	c0-0.4-0.2-0.7-0.8-0.7c-2.8,0-8,0.7-11.1,2c-0.5,0.2-0.8,0.4-1.1,0.4c-0.4,0-0.7-0.2-0.8-0.6c-1.1-3.2-1.9-7.7-1.9-10.3
	c0-0.7,0.7-1,1.3-1.1c3.4-0.2,8.2-0.4,13.1-0.4c5,0,10.3,0.2,14.2,0.5c1,0.1,1.3,0.6,1.3,1.3c0,4.9-5.2,13.9-8.1,17.7
	c-0.2,0.3-0.4,0.5-0.4,0.8C546.9,243.1,547,243.4,547.3,243.5z"/>
</svg>
