<?xml version="1.0" encoding="utf-8"?>
<!-- Generator: Adobe Illustrator 25.2.1, SVG Export Plug-In . SVG Version: 6.00 Build 0)  -->
<svg version="1.1" id="Capa_1" xmlns="http://www.w3.org/2000/svg" xmlns:xlink="http://www.w3.org/1999/xlink" x="0px" y="0px"
	 viewBox="0 0 1080 1080" style="enable-background:new 0 0 1080 1080;" xml:space="preserve">
<style type="text/css">
	.st0{fill:#08333D;}
	.st1{fill:#D54543;}
	.st2{fill:#F2F9FB;}
	.st3{fill:none;}
	.st4{fill:#F2F9FB;stroke:#08333D;stroke-width:8.5039;stroke-miterlimit:10;}
	.st5{opacity:0.7;fill:#D54543;}
	.st6{fill:none;stroke:#08333D;stroke-width:5.6693;stroke-miterlimit:10;}
	.st7{fill:none;stroke:#A4C1C1;stroke-miterlimit:10;}
	.st8{opacity:0.5;fill:#A4C1C1;}
	.st9{fill:none;stroke:#08333D;stroke-width:8.5039;stroke-miterlimit:10;}
	.st10{opacity:0.5;}
	.st11{fill:#A0B9BA;}
	.st12{fill:#A4C1C1;}
	.st13{opacity:0.7;}
	.st14{opacity:0.91;}
	.st15{fill:none;stroke:#D54543;stroke-width:1.4173;stroke-miterlimit:10;}
	.st16{fill:none;stroke:#D54543;stroke-width:14.1732;stroke-miterlimit:10;}
</style>
<path class="st3" d="M70.5,634.9c-12-29.1-8.2-76.8-4-128.4c1.4-16.9,5.1-29.8,10.2-39.6"/>
<path class="st3" d="M57.5,643.8c-1.2-1.8-2.2-3.5-3-5.1c-9-17.8-4-116.2,0-149.2c1.2-9.5,3.2-17.7,6.2-24.7"/>
<g>
	<g>
		<path class="st2" d="M403,405.1c0.1-5.2,4-9.5,9.2-10.2c11.4-1.6,32.2-3.9,54-3.8c32.8,0.2,88.5,2.7,117.1,4.1
			c14.1,0.7,60.3-1.4,81.1-3.2c5.2-0.5,9.9,3.4,10.3,8.6c1.9,21.3,6.3,72.3,6.3,88.9c0,25.5,1.7,82-4.4,89.5s-113.7,2-128,4.1
			s-140.2,4.1-145.3,0C398.8,579.5,402,441.7,403,405.1z"/>
		<path class="st0" d="M683.9,503.9c0-5.3-0.1-10.3-0.1-14.4c0-13.2-2.8-48.3-4.9-72.9v0c-0.1-1.4-0.2-2.7-0.3-4
			c-0.2-2.1-0.3-4-0.5-5.8c-0.1-1.4-0.2-2.7-0.3-3.9c-0.1-0.9-0.2-1.7-0.2-2.5c-0.6-6.8-6.7-11.9-13.5-11.3
			c-20.9,1.9-67,3.9-80.7,3.2c-20.3-1-82-3.9-117.2-4.1c-22.3-0.1-43.7,2.3-54.5,3.8c-5.6,0.8-10,4.9-11.3,10.3
			c-0.2,0.9-0.3,1.8-0.3,2.8c0,0.4,0,0.8,0,1.2c0,1.7-0.1,3.7-0.1,5.8c0,1.3-0.1,2.7-0.1,4.1c-0.5,21.2-1.3,57.4-1.6,90.4
			c-0.3,27-0.2,44.6,0.2,56.1c0,1.5,0.1,2.8,0.1,4.1c0.1,2,0.2,3.7,0.2,5.2c0.1,1.5,0.2,2.8,0.3,4c0.7,8,1.6,8.7,2.4,9.4
			c1.2,0.9,3.7,3,53.6,3c5.3,0,11.1,0,17.5-0.1c35-0.3,69.4-1.3,76.5-2.4c4.8-0.7,21.5-0.5,40.7-0.2c18.2,0.2,38.9,0.5,55.6,0.1
			c27.7-0.7,31.8-2.9,33.5-5c0.8-1,1.6-2.7,2.2-4.9c0.3-1.1,0.6-2.4,0.9-3.8v0c0.3-1.5,0.5-3.2,0.7-5c0.1-1.2,0.3-2.5,0.4-3.9
			C684.2,549.1,684.1,528.1,683.9,503.9z M677.1,562.7L677.1,562.7C677.1,562.7,677.1,562.7,677.1,562.7c-0.4,4.3-0.8,7.3-1.2,9.4
			c0,0,0,0,0,0c-0.3,1.3-0.5,2.2-0.8,3c0,0,0,0,0,0v0c-0.3,1-0.6,1.6-0.8,1.9c-0.2,0.1-0.5,0.3-1.2,0.5c-0.2,0.1-0.4,0.1-0.7,0.2
			c-0.5,0.1-1.2,0.3-2.1,0.4c-0.2,0-0.5,0.1-0.7,0.1c-0.6,0.1-1.3,0.2-2,0.3c-0.2,0-0.4,0.1-0.7,0.1c-0.6,0.1-1.3,0.2-2,0.2
			c-0.2,0-0.5,0-0.7,0.1c-0.6,0.1-1.3,0.1-2.1,0.2c-0.2,0-0.5,0-0.7,0.1c-4.3,0.3-10,0.6-17.5,0.8c-16.4,0.4-36.5,0.1-54.2-0.1
			c-20.3-0.2-36.4-0.5-41.6,0.3c-6.8,1-39.9,2-74,2.3c-25.1,0.2-43.2,0-54.7-0.5c-0.2,0-0.5,0-0.7,0c-0.7,0-1.4-0.1-2.1-0.1
			c-0.2,0-0.5,0-0.7,0c-0.7,0-1.4-0.1-2-0.1c-0.2,0-0.5,0-0.7,0c-0.7-0.1-1.4-0.1-2-0.1c-0.2,0-0.5,0-0.7,0
			c-0.8-0.1-1.5-0.1-2.1-0.2c-0.2,0-0.5,0-0.7-0.1c-0.9-0.1-1.5-0.2-2.1-0.3c-0.1,0-0.3-0.1-0.4-0.1c-0.1-0.5-0.2-1.1-0.3-1.9v-0.1
			c0,0,0,0,0,0c0,0,0,0,0,0c-0.8-6.3-1.2-22.4-1.2-46.1c0-30.9,0.7-74.9,2-127.6c0,0,0-0.1,0-0.1c0-0.4,0-0.7,0.1-1v0c0,0,0,0,0,0
			s0,0,0,0c0.1-0.7,0.3-1.4,0.7-2v0c0.5-1,1.2-1.8,2-2.5c0.2-0.2,0.4-0.4,0.7-0.5c0.6-0.4,1.3-0.7,2-0.9c0.2-0.1,0.4-0.1,0.7-0.2
			c0.1,0,0.3-0.1,0.4-0.1c0.5-0.1,1-0.1,1.6-0.2c0.2,0,0.5-0.1,0.7-0.1c0.7-0.1,1.3-0.2,2-0.3c0.2,0,0.5-0.1,0.7-0.1
			c0.7-0.1,1.3-0.2,2-0.2c0.2,0,0.5,0,0.7-0.1c11.5-1.3,28.4-2.9,45.9-2.8c35.1,0.2,96.7,3.1,117,4.1c13.3,0.6,54.8-1.1,77.5-2.9
			c0.2,0,0.5,0,0.7-0.1c0.7-0.1,1.4-0.1,2-0.2c0.2,0,0.5,0,0.7-0.1c0.2,0,0.3,0,0.5,0c0.5,0,1,0,1.5,0c0.2,0,0.5,0.1,0.7,0.1
			c0.7,0.2,1.4,0.5,2,0.9c0.2,0.2,0.5,0.3,0.7,0.5c1,0.8,1.7,2,2,3.2c0.1,0.4,0.2,0.8,0.2,1.2c0.1,1.5,0.3,3.1,0.4,4.8v0.1
			c0,0,0,0,0,0c0,0,0,0,0,0c0.6,6.3,1.2,14.2,2,22.7v0.1c0.2,2.7,0.4,5.5,0.7,8.3v0.1c1.7,20.7,3.2,42.7,3.2,52.5
			c0,4.1,0,9.2,0.1,14.5c0.1,13.9,0.3,31.2-0.2,45.6C677.7,554.8,677.4,559.1,677.1,562.7C677.1,562.6,677.1,562.6,677.1,562.7z"/>
	</g>
	<path class="st1" d="M314.3,476.5c-0.1,0.1-0.2,0.2-0.2,0.3c0-0.1,0-0.2,0-0.2C314.1,476.5,314.2,476.5,314.3,476.5z"/>
	<path class="st1" d="M315.8,476.2L315.8,476.2c-0.1,0.1-0.3,0.2-0.6,0.2c-0.3,0-0.6,0-0.9,0.1c0.2-0.2,0.4-0.4,0.6-0.6
		C315.1,476.1,315.4,476.2,315.8,476.2z"/>
	<path class="st1" d="M322.6,458c-0.1,1-0.2,2-0.2,3c-0.3,3.6-0.6,7.1-0.9,10.6c-1.4,0.3-3,0.7-4,1.7c-0.1,0-0.2-0.1-0.4-0.1h-1
		c0.3-5,0.6-9.7,1-14c0.1-1,0.2-2,0.2-2.9c0.6,0.2,1.2,0.4,1.8,0.5c0.8,0.2,1.4,0.5,2.1,0.8c0.4,0.2,0.7,0.1,1.1,0.2
		C322.5,458,322.6,458,322.6,458z"/>
	<path class="st0" d="M400.4,402.2c-0.2,0.9-0.3,1.8-0.3,2.8c0,0.4,0,0.8,0,1.2c-9.9-2.8-32.8-8-48.8-1
		c-15.1,6.6-23.9,13.9-28.7,24.8c-2.1,4.7-3.4,10.2-4.2,16.6c-0.3,2.8-0.7,6.2-1,10c-0.1,0.9-0.2,1.9-0.2,2.9c-0.3,4.3-0.7,9-1,14
		h-0.4c-0.2,0-0.5,0.1-0.7,0.2c-0.3,0-0.6,0-0.8,0.1c-0.7,0.1-1.3,0.2-1.9,0.4c0.3-5.9,0.7-11.4,1.1-16.2c0.1-1,0.2-2,0.2-3
		c0.3-3.5,0.6-6.5,0.9-8.9c2.7-22.6,12-34.3,35.2-44.4c9.4-4.1,21.8-4.9,36.8-2.4C392.1,400.1,396.9,401.3,400.4,402.2z"/>
	<path class="st1" d="M329.1,431.4c-3.4,7.2-5.6,16-6.4,26.2c0,0.1,0,0.2,0,0.4c-0.1,0-0.1,0-0.2-0.1c-0.4-0.1-0.8,0-1.1-0.2
		c-0.7-0.3-1.3-0.7-2.1-0.8c-0.6-0.1-1.2-0.3-1.8-0.5c0.3-3.8,0.7-7.2,1-10c0.8-6.4,2.1-11.8,4.2-16.6c1,0.3,1.8,0.7,2.4,1
		C326.1,431.6,327.6,431.7,329.1,431.4z"/>
	<path class="st1" d="M325.6,546c-1,0.5-1.9,1.2-2.7,2c-0.8,0.8-1.8,1.6-2.8,2.2c-0.8-1.2-1.4-2.3-2-3.3c-0.7-1.3-1.2-3.3-1.6-6
		c-0.2-1.1-0.3-2.2-0.5-3.5c-0.4-3.7-0.7-8.2-0.9-13.3l0.1-0.1l1.5-1.8l1.3-1.6c0.5-0.6,0.9-1.1,1.4-1.7c0.2-0.3,0.5-0.5,0.8-0.8
		c0.2,3.2,0.5,6.2,0.8,9.2c0.1,0.9,0.2,1.8,0.4,2.7C322.3,535.9,323.7,541.3,325.6,546z"/>
	<path class="st1" d="M322,516.5c-0.3,0.3-0.6,0.6-0.9,0.9c-0.3,0.3-0.6,0.5-0.9,0.8v0c-0.3,0.3-0.6,0.5-0.8,0.8
		c-0.5,0.6-0.9,1.1-1.4,1.7l-1.3,1.6l-1.5,1.8l-0.1,0.1c-0.6,0.8-1.2,1.5-1.9,2.3c-0.1-1.4-0.1-2.8-0.2-4.3c0.3-0.5,0.7-1,1.1-1.5
		c0.3-0.3,0.5-0.6,0.8-1c0.4-0.4,0.7-0.9,1.1-1.3c0.5-0.6,0.9-1.4,1.5-1.9c0.7-0.6,1.4-1.2,2-1.8c0.1-0.1,0.2-0.2,0.3-0.3
		c0.5-0.5,0.8-0.9,1.3-1.4c0.2-0.2,0.4-0.3,0.6-0.4C321.9,513.9,322,515.2,322,516.5z"/>
	<g>
		<path class="st0" d="M399.9,412c0,1.3-0.1,2.7-0.1,4.1c-5.4-2.2-17.2-6.5-25.4-6.1c-0.5,0-1.1,0.1-1.7,0.1
			c-12.7,0.6-42.4,2.1-46.1,47.8c0,0.5-0.1,1-0.1,1.5c-0.1,1-0.2,1.9-0.2,2.9c-0.2,3-0.5,6-0.7,9c-0.7,0-1.3,0-1.9,0.1
			c-0.6,0-1.2,0.1-1.8,0.3c-0.1,0-0.1,0-0.2,0c0.3-3.5,0.6-7.1,0.9-10.6c0.1-1,0.2-2,0.2-3c0-0.1,0-0.2,0-0.4
			c0.8-10.2,3-19,6.4-26.2c3.6-7.6,8.6-13.5,15-17.6c10.3-6.7,21.6-7.2,28.3-7.5c0.6,0,1.2-0.1,1.7-0.1
			C382.6,405.7,393.8,409.5,399.9,412z"/>
		<path class="st0" d="M404.4,413.8l-1.6,3.5c0,0,0,0-0.1,0c-0.3-0.1-1.3-0.6-2.9-1.2c0-1.4,0.1-2.8,0.1-4.1
			c1.2,0.4,2.1,0.9,2.9,1.2C403.7,413.5,404.2,413.8,404.4,413.8z"/>
		<path class="st0" d="M327.3,545.2c-0.6,0.2-1.2,0.5-1.7,0.8c-1.9-4.7-3.3-10.1-4.2-16c-0.1-0.9-0.3-1.8-0.4-2.7
			c-0.4-3-0.6-6-0.8-9.2v0c0.3-0.2,0.6-0.5,0.9-0.8c0.3-0.3,0.6-0.6,0.9-0.9C322.6,527.6,324.1,537.4,327.3,545.2z"/>
		<path class="st0" d="M402.9,562.6c0,1-0.5,1.9-1.5,2.6v0c-0.1,0-0.1,0.1-0.2,0.1c-0.6,0.5-1.6,0.9-2.7,1.4
			c-4.8,1.9-13.5,3.6-23.9,3.6c-9.8,0-21.1-1.5-31.7-5.9c-8.3-3.4-13.8-9.8-17.3-18.4c0.6-0.3,1.1-0.6,1.7-0.8
			c-3.2-7.8-4.8-17.6-5.3-28.7c-0.3,0.3-0.6,0.6-0.9,0.9c-0.3,0.3-0.6,0.5-0.9,0.8c-0.1-1.2-0.1-2.4-0.2-3.7
			c0.5-0.5,0.8-0.9,1.3-1.4c0.2-0.2,0.4-0.3,0.6-0.4c0.2-0.1,0.3-0.2,0.5-0.4c0.3-0.3,0.5-0.7,0.8-1c0.2-0.2,0.4-0.4,0.6-0.6
			c0,1.4,0.1,2.8,0.1,4.1c0.9,22.7,5.9,40.1,20.5,46.1c22.8,9.4,48.6,4.6,54,1.8c0.4-0.2,0.7-0.4,0.9-0.6c-0.1,0.1-0.2,0.3-0.2,0.7
			l2.3-0.1L402.9,562.6z"/>
	</g>
	<g>
		<path class="st0" d="M401.7,575c-0.1,0-0.9,0.4-2.7,0.9c-4.2,1.2-13.5,3.3-30.7,4.3c-0.9,0-1.7,0.1-2.5,0.1
			c-13.2,0-24.3-5.7-31.4-10.6c-8.5-5.9-16-13.9-19.6-21c-0.7-1.4-1.3-3.5-1.8-6c-0.2-0.9-0.3-1.8-0.5-2.8c-0.4-3.2-0.8-7-1-11.2
			c0.3-0.3,0.5-0.6,0.8-0.9c0.3-0.4,0.7-0.8,1-1.2c0.6-0.8,1.2-1.5,1.9-2.3c0.2,5,0.5,9.5,0.9,13.3c0.1,1.2,0.3,2.4,0.5,3.5
			c0.4,2.6,1,4.7,1.6,6c0.5,1,1.2,2.2,2,3.3c7.5,11.2,26.2,27.3,47.9,26.1c18.3-1,27.4-3.4,30.7-4.4c1-0.3,1.4-0.5,1.4-0.5
			L401.7,575z"/>
		<path class="st0" d="M315.2,524.2c-0.6,0.8-1.2,1.5-1.9,2.3c-0.3,0.4-0.7,0.8-1,1.2c-0.3,0.3-0.5,0.6-0.8,0.9
			c-0.1-1.4-0.1-2.8-0.2-4.2c0.4-0.5,0.9-1,1.3-1.5c0.2-0.2,0.4-0.5,0.6-0.8c0.3-0.5,0.7-1,1.1-1.5c0.3-0.3,0.5-0.6,0.8-1
			C315.1,521.3,315.1,522.8,315.2,524.2z"/>
		<path class="st0" d="M315.1,476.4c-0.3,0-0.6,0-0.9,0.1c0.2-0.2,0.4-0.4,0.6-0.6c0.2,0.2,0.5,0.3,0.9,0.3h0.1
			C315.6,476.3,315.4,476.4,315.1,476.4z"/>
		<path class="st0" d="M314.2,473.6c-0.1,1-0.1,2-0.2,2.9c-0.7,0.1-1.3,0.4-1.9,0.7c0.1-1.1,0.1-2.1,0.2-3.2
			C312.9,473.8,313.5,473.7,314.2,473.6z"/>
		<path class="st0" d="M314,476.8c0-0.1,0-0.2,0-0.2c0.1,0,0.1,0,0.2,0C314.2,476.6,314.1,476.7,314,476.8z"/>
		<path class="st0" d="M406.2,404.1l-0.2,0.6v0l-0.1,0.3l-1,2.6c0,0-0.8-0.3-2-0.7c-0.8-0.2-1.7-0.5-2.9-0.9c0-0.4,0-0.8,0-1.2
			c0-1,0.1-1.9,0.3-2.8c1.1,0.3,2,0.6,2.8,0.8c1.4,0.4,2.3,0.8,2.8,0.9h0C406.1,404,406.2,404.1,406.2,404.1z"/>
	</g>
	<g>
		<g>
			<g>
				<path class="st12" d="M418.8,582.2c0-0.4-0.9-41.8-0.3-49.2c0.3-3.4,0.3-17.1,0.4-33c0-19.3,0.1-41.1,0.7-49.3
					c0.4-5.6,0-56.3,0-56.8l0.7,0c0,0.5,0.4,51.3,0,56.9c-0.6,8.2-0.6,30-0.7,49.2c0,15.9-0.1,29.7-0.4,33.1
					c-0.7,7.4,0.3,48.7,0.3,49.2L418.8,582.2z"/>
			</g>
			<g>
				<path class="st12" d="M416.1,582.9c0-0.4-0.9-41.8-0.3-49.2c0.3-3.4,0.3-17.1,0.4-33c0-19.3,0.1-41.1,0.7-49.3
					c0.4-5.6,0-56.3,0-56.8l0.7,0c0,0.5,0.4,51.3,0,56.9c-0.6,8.2-0.6,30-0.7,49.2c0,15.9-0.1,29.7-0.4,33.1
					c-0.7,7.4,0.3,48.7,0.3,49.2L416.1,582.9z"/>
			</g>
			<g>
				<path class="st12" d="M413.4,582.2c0-0.4-0.9-41.8-0.3-49.2c0.3-3.4,0.3-17.1,0.4-33c0-19.3,0.1-41.1,0.7-49.3
					c0.4-5.6,0-56.3,0-56.8l0.7,0c0,0.5,0.4,51.3,0,56.9c-0.6,8.2-0.6,30-0.7,49.2c0,15.9-0.1,29.7-0.4,33.1
					c-0.7,7.4,0.3,48.7,0.3,49.2L413.4,582.2z"/>
			</g>
			<g>
				<path class="st12" d="M410.6,581.5c0-0.4-0.9-41.8-0.3-49.2c0.3-3.4,0.3-17.1,0.4-33c0-19.3,0.1-41.1,0.7-49.3
					c0.4-5.6,0-56.3,0-56.8l0.7,0c0,0.5,0.4,51.3,0,56.9c-0.6,8.2-0.6,30-0.7,49.2c0,15.9-0.1,29.7-0.4,33.1
					c-0.7,7.4,0.3,48.7,0.3,49.2L410.6,581.5z"/>
			</g>
			<g>
				<path class="st12" d="M407.9,584.3c0-0.4-0.9-41.8-0.3-49.2c0.3-3.4,0.3-17.1,0.4-33c0-19.3,0.1-41.1,0.7-49.3
					c0.4-5.6,0-56.3,0-56.8l0.7,0c0,0.5,0.4,51.3,0,56.9c-0.6,8.2-0.6,30-0.7,49.2c0,15.9-0.1,29.7-0.4,33.1
					c-0.7,7.4,0.3,48.7,0.3,49.2L407.9,584.3z"/>
			</g>
			<g>
				<path class="st12" d="M405.2,585.6c0-0.4-0.9-41.8-0.3-49.2c0.3-3.4,0.3-17.1,0.4-33c0-19.3,0.1-41.1,0.7-49.3
					c0.4-5.6,0-56.3,0-56.8l0.7,0c0,0.5,0.4,51.3,0,56.9c-0.6,8.2-0.6,30-0.7,49.2c0,15.9-0.1,29.7-0.4,33.1
					c-0.7,7.4,0.3,48.7,0.3,49.2L405.2,585.6z"/>
			</g>
		</g>
		<g>
			<g>
				<path class="st12" d="M662.1,580.2l-0.7,0c0-0.4,0.9-41.8,0.3-49.2c-0.3-3.4-0.3-17.1-0.4-33.1c0-19.2-0.1-41.1-0.7-49.2
					c-0.4-5.6,0-56.4,0-56.9l0.7,0c0,0.5-0.4,51.3,0,56.8c0.6,8.2,0.6,30,0.7,49.3c0,15.9,0.1,29.6,0.4,33
					C663.1,538.4,662.1,579.8,662.1,580.2z"/>
			</g>
			<g>
				<path class="st12" d="M664.9,580.9l-0.7,0c0-0.4,0.9-41.8,0.3-49.2c-0.3-3.4-0.3-17.1-0.4-33.1c0-19.2-0.1-41.1-0.7-49.2
					c-0.4-5.6,0-56.4,0-56.9l0.7,0c0,0.5-0.4,51.3,0,56.8c0.6,8.2,0.6,30,0.7,49.3c0,15.9,0.1,29.6,0.4,33
					C665.8,539,664.9,580.4,664.9,580.9z"/>
			</g>
			<g>
				<path class="st12" d="M667.6,580.2l-0.7,0c0-0.4,0.9-41.8,0.3-49.2c-0.3-3.4-0.3-17.1-0.4-33.1c0-19.2-0.1-41.1-0.7-49.2
					c-0.4-5.6,0-56.4,0-56.9l0.7,0c0,0.5-0.4,51.3,0,56.8c0.6,8.2,0.6,30,0.7,49.3c0,15.9,0.1,29.6,0.4,33
					C668.5,538.4,667.6,579.8,667.6,580.2z"/>
			</g>
			<g>
				<path class="st12" d="M670.3,579.5l-0.7,0c0-0.4,0.9-41.8,0.3-49.2c-0.3-3.4-0.3-17.1-0.4-33.1c0-19.2-0.1-41.1-0.7-49.2
					c-0.4-5.6,0-56.4,0-56.9l0.7,0c0,0.5-0.4,51.3,0,56.8c0.6,8.2,0.6,30,0.7,49.3c0,15.9,0.1,29.6,0.4,33
					C671.2,537.7,670.3,579.1,670.3,579.5z"/>
			</g>
			<g>
				<path class="st12" d="M673,582.2l-0.7,0c0-0.4,0.9-41.8,0.3-49.2c-0.3-3.4-0.3-17.1-0.4-33.1c0-19.2-0.1-41.1-0.7-49.2
					c-0.4-5.6,0-56.4,0-56.9l0.7,0c0,0.5-0.4,51.3,0,56.8c0.6,8.2,0.6,30,0.7,49.3c0,15.9,0.1,29.6,0.4,33
					C674,540.4,673,581.8,673,582.2z"/>
			</g>
			<g>
				<path class="st12" d="M675.7,580.2l-0.7,0c0-0.4,0.9-38.4,0.3-45.8c-0.3-3.4-0.3-17.1-0.4-33.1c0-19.2-0.1-41.1-0.7-49.2
					c-0.4-5.6,0-56.4,0-56.9l0.7,0c0,0.5-0.4,51.3,0,56.8c0.6,8.2,0.6,30,0.7,49.3c0,15.9,0.1,29.6,0.4,33
					C676.7,541.8,675.8,579.8,675.7,580.2z"/>
			</g>
		</g>
	</g>
	<g class="st10">
		<path class="st12" d="M445.6,408.1c-1,0-1.8,0.7-2,1.7c-0.3,1.6-0.5,4,0.4,5.4c1.5,2.2,27.3,2.9,33.5,2.9c6.1,0,43.3-1.4,50.9,0
			c7.6,1.4,52.6,2,62.1,1.4s40.2-2,42.9-2c1.8,0,1.2-4.2,0.6-7c-0.3-1.3-1.5-2.3-2.8-2.3c-6.4-0.1-24.9-0.3-33.8,0
			c-10.9,0.4-46.3,2.4-53.1,2.4c-6.8,0-57.9-3.4-64-2.7C474.9,408.4,451.9,408.2,445.6,408.1z"/>
	</g>
	<g>
		<path class="st12" d="M420.1,455l-0.1-0.7c0,0,14.3-1.1,20.6-1.7c7.7-0.6,15.6-1.1,23.3-1.4c15.2-0.6,30.5-0.6,45.7,0.1
			c6.7,0.3,13.5,0.7,20,1.1c13.3,0.8,27,1.6,40.5,1.5c18.6-0.3,37.2-0.9,55.2-1.4c11.6-0.4,23.6-0.8,35.5-1l0,0.7
			c-11.9,0.3-23.9,0.7-35.5,1c-18,0.6-36.6,1.2-55.2,1.4c-13.5,0.2-27.3-0.6-40.5-1.5c-6.6-0.4-13.3-0.8-20-1.1
			c-15.1-0.6-30.5-0.7-45.6-0.1c-7.8,0.3-15.6,0.8-23.3,1.4C434.4,453.9,420.1,455,420.1,455z"/>
	</g>
	<g>
		<path class="st12" d="M419.4,495.1l-0.1-0.7c0,0,14.5-1.1,20.8-1.7c7.8-0.6,15.7-1.1,23.6-1.4c15.3-0.6,30.8-0.6,46.1,0
			c6.7,0.3,13.6,0.7,20.2,1.1c13.4,0.8,27.2,1.6,40.9,1.5c18.7-0.3,37.1-0.8,55-1.4c11.7-0.4,23.8-0.8,35.9-1.1l0,0.7
			c-12.1,0.3-24.2,0.7-35.9,1.1c-17.9,0.6-36.3,1.2-55,1.4c-13.7,0.2-27.5-0.6-40.9-1.5c-6.6-0.4-13.5-0.8-20.2-1.1
			c-15.3-0.6-30.8-0.7-46.1,0c-7.8,0.3-15.7,0.8-23.5,1.4C433.9,494,419.4,495.1,419.4,495.1z"/>
	</g>
	<g>
		<path class="st12" d="M418.7,540.1l-0.1-0.7c0.2,0,15.2-1.1,21.5-1.7c7.8-0.6,15.7-1.1,23.6-1.4c15.3-0.6,30.8-0.6,46.1,0
			c6.7,0.3,13.6,0.7,20.2,1.1c13.4,0.8,27.2,1.6,40.9,1.5c18.8-0.3,37.5-0.9,55.7-1.4c11.7-0.4,23.8-0.8,35.8-1l0,0.7
			c-12,0.3-24.1,0.7-35.8,1c-18.2,0.6-37,1.2-55.7,1.4c-13.7,0.2-27.5-0.6-40.9-1.5c-6.6-0.4-13.5-0.8-20.2-1.1
			c-15.3-0.6-30.8-0.7-46.1,0c-7.8,0.3-15.7,0.8-23.5,1.4C434,538.9,418.9,540.1,418.7,540.1z"/>
	</g>
	<g>
		<path class="st0" d="M683.9,503.9c0-5.3-0.1-10.3-0.1-14.4c0-13.2-2.8-48.3-4.9-72.9v0c-0.1-1.4-0.2-2.7-0.3-4
			c-0.2-2.1-0.3-4-0.5-5.8c-0.1-1.4-0.2-2.7-0.3-3.9c-0.1-0.9-0.2-1.7-0.2-2.5c-0.6-6.8-6.7-11.9-13.5-11.3
			c-20.9,1.9-67,3.9-80.7,3.2c-20.3-1-82-3.9-117.2-4.1c-22.3-0.1-43.7,2.3-54.5,3.8c-5.6,0.8-10,4.9-11.3,10.3
			c-0.2,0.9-0.3,1.8-0.3,2.8c0,0.4,0,0.8,0,1.2c0,1.7-0.1,3.7-0.1,5.8c0,1.3-0.1,2.7-0.1,4.1c-0.5,21.2-1.3,57.4-1.6,90.4
			c-0.3,27-0.2,44.6,0.2,56.1c0,1.5,0.1,2.8,0.1,4.1c0.1,2,0.2,3.7,0.2,5.2c0.1,1.5,0.2,2.8,0.3,4c0.7,8,1.6,8.7,2.4,9.4
			c1.2,0.9,3.7,3,53.6,3c5.3,0,11.1,0,17.5-0.1c35-0.3,69.4-1.3,76.5-2.4c4.8-0.7,21.5-0.5,40.7-0.2c18.2,0.2,38.9,0.5,55.6,0.1
			c27.7-0.7,31.8-2.9,33.5-5c0.8-1,1.6-2.7,2.2-4.9c0.3-1.1,0.6-2.4,0.9-3.8v0c0.3-1.5,0.5-3.2,0.7-5c0.1-1.2,0.3-2.5,0.4-3.9
			C684.2,549.1,684.1,528.1,683.9,503.9z M677.1,562.7L677.1,562.7C677.1,562.7,677.1,562.7,677.1,562.7c-0.4,4.3-0.8,7.3-1.2,9.4
			c0,0,0,0,0,0c-0.3,1.3-0.5,2.2-0.8,3c0,0,0,0,0,0v0c-0.3,1-0.6,1.6-0.8,1.9c-0.2,0.1-0.5,0.3-1.2,0.5c-0.2,0.1-0.4,0.1-0.7,0.2
			c-0.5,0.1-1.2,0.3-2.1,0.4c-0.2,0-0.5,0.1-0.7,0.1c-0.6,0.1-1.3,0.2-2,0.3c-0.2,0-0.4,0.1-0.7,0.1c-0.6,0.1-1.3,0.2-2,0.2
			c-0.2,0-0.5,0-0.7,0.1c-0.6,0.1-1.3,0.1-2.1,0.2c-0.2,0-0.5,0-0.7,0.1c-4.3,0.3-10,0.6-17.5,0.8c-16.4,0.4-36.5,0.1-54.2-0.1
			c-20.3-0.2-36.4-0.5-41.6,0.3c-6.8,1-39.9,2-74,2.3c-25.1,0.2-43.2,0-54.7-0.5c-0.2,0-0.5,0-0.7,0c-0.7,0-1.4-0.1-2.1-0.1
			c-0.2,0-0.5,0-0.7,0c-0.7,0-1.4-0.1-2-0.1c-0.2,0-0.5,0-0.7,0c-0.7-0.1-1.4-0.1-2-0.1c-0.2,0-0.5,0-0.7,0
			c-0.8-0.1-1.5-0.1-2.1-0.2c-0.2,0-0.5,0-0.7-0.1c-0.9-0.1-1.5-0.2-2.1-0.3c-0.1,0-0.3-0.1-0.4-0.1c-0.1-0.5-0.2-1.1-0.3-1.9v-0.1
			c0,0,0,0,0,0c0,0,0,0,0,0c-0.8-6.3-1.2-22.4-1.2-46.1c0-30.9,0.7-74.9,2-127.6c0,0,0-0.1,0-0.1c0-0.4,0-0.7,0.1-1v0c0,0,0,0,0,0
			s0,0,0,0c0.1-0.7,0.3-1.4,0.7-2v0c0.5-1,1.2-1.8,2-2.5c0.2-0.2,0.4-0.4,0.7-0.5c0.6-0.4,1.3-0.7,2-0.9c0.2-0.1,0.4-0.1,0.7-0.2
			c0.1,0,0.3-0.1,0.4-0.1c0.5-0.1,1-0.1,1.6-0.2c0.2,0,0.5-0.1,0.7-0.1c0.7-0.1,1.3-0.2,2-0.3c0.2,0,0.5-0.1,0.7-0.1
			c0.7-0.1,1.3-0.2,2-0.2c0.2,0,0.5,0,0.7-0.1c11.5-1.3,28.4-2.9,45.9-2.8c35.1,0.2,96.7,3.1,117,4.1c13.3,0.6,54.8-1.1,77.5-2.9
			c0.2,0,0.5,0,0.7-0.1c0.7-0.1,1.4-0.1,2-0.2c0.2,0,0.5,0,0.7-0.1c0.2,0,0.3,0,0.5,0c0.5,0,1,0,1.5,0c0.2,0,0.5,0.1,0.7,0.1
			c0.7,0.2,1.4,0.5,2,0.9c0.2,0.2,0.5,0.3,0.7,0.5c1,0.8,1.7,2,2,3.2c0.1,0.4,0.2,0.8,0.2,1.2c0.1,1.5,0.3,3.1,0.4,4.8v0.1
			c0,0,0,0,0,0c0,0,0,0,0,0c0.6,6.3,1.2,14.2,2,22.7v0.1c0.2,2.7,0.4,5.5,0.7,8.3v0.1c1.7,20.7,3.2,42.7,3.2,52.5
			c0,4.1,0,9.2,0.1,14.5c0.1,13.9,0.3,31.2-0.2,45.6C677.7,554.8,677.4,559.1,677.1,562.7C677.1,562.6,677.1,562.6,677.1,562.7z"/>
	</g>
	<g>
		<g>
			<g>
				<path class="st11" d="M315.8,476.2c-0.2,0.1-0.4,0.2-0.7,0.2c-0.3,0-0.6,0-0.9,0.1c0.2-0.2,0.4-0.4,0.6-0.6
					C315.1,476.1,315.4,476.2,315.8,476.2L315.8,476.2z"/>
			</g>
			<g>
				<path class="st11" d="M315.8,476.2c-0.2,0.1-0.4,0.2-0.7,0.2c-0.3,0-0.6,0-0.9,0.1c0.2-0.2,0.4-0.4,0.6-0.6
					C315.1,476.1,315.4,476.2,315.8,476.2L315.8,476.2z"/>
			</g>
			<g>
				<path class="st11" d="M338.2,490.7C338.2,490.8,338.2,490.8,338.2,490.7C338.2,490.8,338.2,490.8,338.2,490.7
					C338.2,490.7,338.2,490.7,338.2,490.7z"/>
			</g>
			<g>
				<path class="st11" d="M276.8,519.2c1.2,2,2.5,3.7,3.7,5.7c0.5,0.9,1,1.8,1.7,2.7c0.7,0.9,1.5,1.7,2.3,2.6c1.2,1.4,3.2-0.6,2-2
					c-0.6-0.8-1.4-1.5-2-2.3c-0.6-0.8-1.1-1.8-1.7-2.7c-1.1-1.8-2.4-3.5-3.5-5.4C278.4,516.1,275.9,517.6,276.8,519.2L276.8,519.2z"
					/>
			</g>
			<g>
				<path class="st11" d="M289.4,524.5c0.1,0.1,0.2,0.2,0.4,0.2c0.1,0.1,0.2,0.1,0.2,0.2c0,0,0.1,0.1,0.1,0.1
					c-0.1-0.1-0.2-0.2-0.1,0c0.2,0.1,0.3,0.3,0.5,0.5c0,0,0.2,0.2,0,0c-0.1-0.2,0,0,0,0c0,0.1,0.1,0.2,0,0c0-0.1-0.1-0.2,0-0.1
					c0,0.1,0,0,0-0.3c0,0.8,0.6,1.5,1.4,1.4c0.8,0,1.5-0.6,1.4-1.4c-0.1-1.4-1.5-2.3-2.5-3c-0.6-0.4-1.6-0.1-2,0.5
					C288.5,523.3,288.7,524,289.4,524.5L289.4,524.5z"/>
			</g>
			<g>
				<path class="st11" d="M292.9,510.6c0,0,0-0.1,0-0.1c-0.8,0.2-1.6,0.4-2.4,0.6c1.5,1.3,2.7,2.9,4,4.3c0.6,0.7,1.2,1.5,1.8,2.2
					c0.5,0.7,1.3,1.5,1.5,2.4c0.1,0.8,1.1,1.2,1.8,1c0.8-0.2,1.1-1,1-1.8c-0.2-1-0.9-1.9-1.4-2.7c-0.7-0.9-1.4-1.8-2.1-2.6
					c-0.7-0.8-1.4-1.6-2.1-2.3c-0.8-0.9-1.5-1.8-2.3-2.5c-0.8-0.7-2-0.4-2.4,0.6c0,0,0,0.1,0,0.1
					C289.5,511.6,292.3,512.4,292.9,510.6L292.9,510.6z"/>
			</g>
			<g>
				<path class="st11" d="M210.9,525.6c-0.6,0.1-1.2-0.3-1.5-0.9c0.5,0.2,0.9,0.4,1.3,0.7C210.8,525.5,210.9,525.5,210.9,525.6z"/>
				<path class="st11" d="M217.5,511c0,0.1-0.1,0.3-0.1,0.5c-0.1-0.1-0.2-0.3-0.3-0.5C217.2,511,217.4,511,217.5,511z"/>
			</g>
			<g>
				<path class="st11" d="M288.3,473.6c0,0.1-0.1,0.2-0.2,0.3c-0.2,0.2-0.4,0.4-0.7,0.6c-0.2-0.2-0.4-0.4-0.4-0.7c0,0,0.1,0,0.1,0.1
					C287.5,473.9,288,473.9,288.3,473.6z"/>
			</g>
			<g>
				<path class="st11" d="M288.3,473.6c0,0.1-0.1,0.2-0.2,0.3c-0.2,0.2-0.4,0.4-0.7,0.6c-0.2-0.2-0.4-0.4-0.4-0.7c0,0,0.1,0,0.1,0.1
					C287.5,473.9,288,473.9,288.3,473.6z"/>
			</g>
			<g>
				<path class="st11" d="M209.6,523.1c-0.5,0.5-0.5,1.1-0.2,1.6c-0.9-0.4-1.8-0.7-2.6-1.3c-1.3-0.9-2.6-1.9-4-2.7
					c-1.1-0.7-2.3-1.3-3.2-2.3c-0.3-0.3-0.6-0.7-0.9-1.1c0,0-0.2-0.2-0.3-0.3c-1.2,1-3-0.9-1.9-2.2c1-1.1,2.4-1.1,3.6-0.2
					c0.9,0.8,1.4,1.8,2.4,2.6c1.2,0.9,2.5,1.5,3.7,2.3c1.3,1,2.6,1.9,4.1,2.5C210.2,522.4,209.9,522.8,209.6,523.1z"/>
			</g>
			<g>
				<path class="st11" d="M229.9,544.1c-0.1,0-0.1,0.1-0.2,0.1c0,0,0,0-0.1,0c0,0-0.1,0-0.1,0c0,0,0.1-0.1,0.1-0.1
					C229.8,544.1,229.9,544.1,229.9,544.1z"/>
			</g>
			<g>
				<path class="st11" d="M230,544.4c-0.1,0-0.1-0.1-0.2-0.1c0,0,0,0,0-0.1c0,0,0-0.1,0-0.1c0.1,0,0.2,0,0.2,0
					C230.1,544.2,230.2,544.5,230,544.4z"/>
			</g>
			<g>
				<path class="st11" d="M217.5,511c0,0.1-0.1,0.3-0.1,0.5c-0.1-0.1-0.2-0.3-0.3-0.5C217.2,511,217.4,511,217.5,511z"/>
			</g>
			<g>
				<path class="st11" d="M217.5,511c0,0.1-0.1,0.3-0.1,0.5c-0.1-0.1-0.2-0.3-0.3-0.5C217.2,511,217.4,511,217.5,511z"/>
			</g>
			<g>
				<path class="st11" d="M279.4,498.9v0.4c-0.1,0-0.2-0.1-0.3-0.1C279.2,499.1,279.3,499,279.4,498.9z"/>
				<path class="st11" d="M285.5,499.8c0,0.6-0.3,1.2-1,1.4c-0.2,0-0.4,0-0.6,0C284.3,500.7,284.9,500.2,285.5,499.8z"/>
			</g>
			<g>
				<path class="st11" d="M268,493.2c-0.8,0-1.6-0.1-2.4-0.3c0.3-0.1,0.6-0.2,1-0.1C267.1,492.9,267.6,493,268,493.2z"/>
				<path class="st11" d="M279.4,498.9v0.4c-0.1,0-0.2-0.1-0.3-0.1C279.2,499.1,279.3,499,279.4,498.9z"/>
			</g>
			<g>
				<path class="st11" d="M224.8,524.1c-0.3,0.3-0.6,0.7-0.9,1c-0.1,0.1-0.2,0.2-0.3,0.2c0-0.2,0.1-0.3,0.3-0.5
					C224.2,524.5,224.5,524.3,224.8,524.1z"/>
				<path class="st11" d="M310.6,453.5c-2-0.8-4-1.6-5.9-2.6c-0.7-0.4-1.4-1-2.1-1.4c-0.8-0.5-1.7-0.9-2.5-1.4
					c-1.7-1-3.6-1.5-5.7-1.7c-1.8-0.1-3.6-0.7-5.4-0.9c-2-0.2-4-0.9-6-1.1c-1-0.1-2-0.2-2.9-0.3c-1-0.2-1.9-0.5-2.9-0.6
					c-0.9-0.2-1.9-0.3-2.8-0.3c-0.9,0-1.7-0.3-2.6-0.4c-0.9-0.1-1.8,0.1-2.7,0c-1-0.2-2-0.7-3-0.9c-0.9-0.2-1.8-0.2-2.7-0.5
					c-1-0.3-1.8-0.6-2.9-0.7c-2.1-0.2-4.1-0.8-6.2-1.1c-2.2-0.3-4.5,0-6.7-0.6c-0.9-0.3-1.7-0.7-2.5-0.9c-1-0.2-1.9-0.3-2.9-0.5
					c-1.8-0.4-3.8-0.2-5.7-0.3c-1.8-0.1-3.6,0.1-4.9,1.3c-0.2,0.2-0.3,0.4-0.4,0.6c-0.3,0.2-0.6,0.4-0.9,0.7c-0.8,0.8-2,1.1-3,1.5
					c-1,0.4-1.9,0.9-2.9,1.4c-1.2,0.6-2.3,1-3.5,1.3c-1.2,0.3-2.2,0.9-3.2,1.4c-1,0.6-2.1,1-3.2,1.6c-1,0.5-1.8,1.1-2.8,1.6
					c-1.2,0.6-2.3,1.2-3.4,1.8c-1.9,1.1-3.5,2.7-5.3,3.8c-1,0.6-2.2,1-3.2,1.6c-1.2,0.6-2.3,1.3-3.5,1.9c-1.1,0.6-2.2,0.9-3.3,1.4
					c-0.5,0.3-1,0.6-1.5,0.9c-0.6,0.3-1.2,0.5-1.8,0.8c-2.3,1-4.3,2.4-6.5,3.7c-2.1,1.2-4,2.6-6.1,3.8c-1,0.6-1.9,1.3-2.8,2
					c-1,0.8-2,1.3-3.1,2c-2.2,1.3-4.3,2.6-6.5,3.8c-2.1,1.2-4.1,2.6-6.1,3.9c-1,0.6-2,1.1-3.1,1.5c-1.1,0.4-2.3,0.6-3.3,1
					c-0.9,0.4-1.6,0.9-2.4,1.5c-1,0.7-2.1,1.2-3,2.1c-0.7,0.7-1.2,1.5-1.6,2.3c-0.5,1-1.2,1.8-1.8,2.8c-1.3,2.1-1.8,4.8-2.2,7.1
					c-0.1,0.4-0.1,0.7-0.2,1.1c-0.5-0.1-1,0.1-1.3,0.5c-0.5,0.1-1,0.2-1.5,0.3c-0.1,0-0.1,0-0.2,0c-0.4,0.1-0.8,0.3-1.1,0.4
					c0,0,0,0,0,0s0,0,0,0c-0.7,0.3-1.4,0.6-2,1c-1.1,0.8-2.1,1.7-3,2.7c-1.8,1.8-3.2,3.7-4,6.1c-0.3,1.1-0.5,2.3-0.5,3.4
					c0,1.5-0.1,3.1,0.1,4.5c0.2,1.1,0.6,2.1,0.8,3.3c0.1,0.6,0.1,1.2,0.2,1.8c0.2,0.8,0.5,1.6,0.6,2.5c0.3,2.6,0.7,5.2,0.8,7.9
					c0.1,1.2,0.6,2.4,0.8,3.6c0.3,1.5,0.4,2.9,0.6,4.4c0.2,1.4,0.3,2.7,0.3,4c-0.1,1.3-0.2,2.7,0,4.1c0.1,1.2,0.4,2.5,0.4,3.7v4.5
					c0,6,0,11.9-0.1,17.9c0,2.9,0.5,5.6,1,8.5c0.5,2.8,0.3,5.6,0.3,8.4v9.1c0,2.9,0.2,5.7,0.4,8.6c0.1,2.8-0.3,5.7,0.2,8.4
					c0.2,1.4,0.7,2.7,0.8,4.1c0.1,1.4,0,2.8-0.2,4.2c-0.6,6.6-0.3,13.3-0.3,20c0,3.2,0,6.5,0,9.8c0,3.1,0.1,6.2-0.8,9.2
					c-0.5,1.8,2.2,2.5,2.8,0.8c0.8-2.7,0.9-5.4,0.9-8.2c0-2.8,0-5.6,0-8.4c0-5.8,0-11.6,0-17.4c0-2.8,0.4-5.6,0.5-8.4
					c0-1.4-0.1-2.8-0.4-4.2c-0.3-1.4-0.6-2.6-0.7-4c0-1.3,0.1-2.6,0.1-4c0-1.6-0.1-3.1-0.2-4.7c-0.2-2.9-0.2-5.8-0.2-8.6
					c0-5.6,0.4-11.4-0.7-16.9c-0.5-2.8-0.7-5.4-0.6-8.2c0.1-3,0-5.9,0-8.9v-9c0-1.2,0.1-2.4,0-3.6c-0.1-1.4-0.5-2.7-0.5-4.1
					c0-1.3,0.1-2.6,0.1-3.9c0-1.4-0.3-2.8-0.5-4.2c-0.2-1.3-0.3-2.7-0.6-4c-0.2-1.2-0.6-2.3-0.6-3.6c-0.1-1.6-0.5-3.2-0.6-4.7
					c-0.2-1.4-0.2-2.8-0.6-4.2c-0.4-1.4-0.4-2.8-0.8-4.1c-0.4-1.4-0.5-2.7-0.5-4.2c0-1.4,0-2.8,0.4-4.1c0.4-1.4,1-2.4,1.9-3.5
					c0.9-1,1.8-2,2.9-2.9c0.4-0.4,0.9-0.8,1.4-1.1h0c0,0,0.1,0,0.1-0.1c0.4-0.2,0.8-0.4,1.2-0.5h0c0,0,0,0,0,0
					c0.3-0.2,0.6-0.3,1-0.4c0.5-0.1,1-0.2,1.5-0.2c-0.2,1.2-0.4,2.5-0.5,3.7c-0.3,2.8-0.2,5.7-0.1,8.6c0.1,2.8,0.3,5.6,0,8.4
					c-0.1,1.1-0.3,2.2-0.3,3.4c0,1,0.2,2.3-0.3,3.2c-0.9,1.6,1.6,3.1,2.5,1.5c1.1-1.9,0.5-3.9,0.7-6c0.1-1.1,0.3-2.1,0.4-3.1
					c0-1.3,0-2.7-0.1-4c0-2.5-0.1-4.9-0.1-7.4c0-2.5,0.2-4.9,0.6-7.4c0.4-2.4,0.7-4.9,1.4-7.3c0.3-1.1,0.6-2.3,1.2-3.3
					c0.5-1,1.3-1.9,1.9-2.9c0.4-0.8,0.8-1.6,1.5-2.1c0.4-0.3,1-0.6,1.4-0.9c0.5-0.3,1-0.7,1.5-1.1c0.8-0.6,1.6-0.8,2.5-1.1
					c1.2-0.3,2.3-0.8,3.4-1.2c2.2-1,4-2.5,6-3.7c2.1-1.3,4.4-2.4,6.5-3.7c2.1-1.3,4.2-2.5,6.1-4c0.9-0.7,1.8-1.2,2.7-1.8
					c1.1-0.6,2.1-1.4,3.1-2.1c2-1.3,4.1-2.7,6.3-3.8c1.1-0.6,2.2-1.1,3.3-1.5c1.2-0.5,2.2-1.2,3.3-1.7c2.5-0.9,4.7-2.4,7-3.5
					c0.9-0.4,1.8-0.8,2.7-1.4c1-0.6,1.9-1.4,2.8-2.1c2.1-1.6,4.5-2.5,6.8-3.9c1.1-0.7,2.2-1.2,3.4-1.9c1.1-0.6,2.2-1.4,3.5-1.7
					c1.3-0.4,2.5-0.7,3.7-1.3c1.2-0.6,2.4-1.3,3.7-1.8c1.1-0.5,2.3-0.8,3.3-1.6c0.5-0.5,0.6-0.6,1.3-0.8c0.6-0.2,1.2-0.5,1.7-0.9
					c0.2-0.2,0.3-0.4,0.4-0.5c0.7,0,1.5,0,2.1,0.1c1.6,0.1,3.1-0.1,4.7,0.3c0.8,0.2,1.6,0.1,2.3,0.3c0.8,0.2,1.5,0.6,2.3,0.8
					c1.8,0.6,3.8,0.7,5.6,0.7c2,0,3.8,0.6,5.8,0.9c0.9,0.2,1.9,0.2,2.8,0.3c0.9,0.2,1.7,0.6,2.6,0.8c0.9,0.2,1.7,0.2,2.6,0.5
					c0.9,0.3,1.8,0.6,2.8,0.8c0.9,0.1,1.7-0.1,2.5,0c0.8,0.1,1.6,0.4,2.4,0.5c0.9,0.1,1.8,0.1,2.7,0.2c0.9,0.2,1.8,0.5,2.7,0.6
					c1.9,0.3,3.8,0.5,5.7,0.9c1.9,0.4,3.8,0.5,5.6,0.9c0.9,0.2,1.7,0.5,2.6,0.6c0.8,0.1,1.7,0,2.5,0.2c1.8,0.4,3.3,1.4,5,2.2
					c0.7,0.4,1.3,0.9,2,1.3c0.8,0.5,1.7,0.9,2.6,1.3c1.9,0.8,3.8,1.6,5.7,2.4c0.8,0.3,1.6,0.7,2.4,1.1c0.1-1,0.2-2,0.2-3
					C312.6,454.4,311.6,454,310.6,453.5z M323.8,510.6c-0.2,0.2-0.4,0.4-0.6,0.6c-0.3,0.3-0.5,0.7-0.8,1c-0.1,0.1-0.3,0.2-0.5,0.4
					c-0.2,0.1-0.4,0.3-0.6,0.4c-0.5,0.5-0.9,1-1.3,1.4c-0.1,0.1-0.2,0.2-0.3,0.3c-0.7,0.6-1.4,1.2-2,1.8c-0.6,0.5-1,1.3-1.5,1.9
					c-0.4,0.4-0.7,0.9-1.1,1.3c-0.3,0.3-0.5,0.6-0.8,1c-0.4,0.5-0.7,1-1.1,1.5c-0.2,0.3-0.4,0.5-0.6,0.8c-0.4,0.5-0.8,1-1.3,1.5
					c-0.2,0.2-0.4,0.4-0.6,0.7c-1.2,1.5-2.5,2.8-3.6,4.3c-1.1,1.5-2.3,2.9-3.4,4.3c-0.5,0.6-0.8,1.4-1.3,2.1c-0.5,0.7-1,1.3-1.6,1.9
					c-1.2,1.4-2.2,2.9-3.3,4.5c-1.1,1.5-2.4,2.8-3.5,4.3c-1,1.5-1.9,3.2-2.9,4.8c-0.5,0.7-1,1.4-1.4,2.2c-0.5,0.8-0.7,1.7-1.3,2.4
					c-1,1.3-2.1,2.5-3,3.9c-0.7,0.9-1.4,1.8-2,2.7c-0.6,0.9-1.1,1.8-1.8,2.6c-1.3,1.7-2.6,3.2-3.6,5.1c-1,1.8-1.8,3.8-3,5.4
					c-1.2,1.7-2.8,3-4,4.7c-0.3,0.4-0.3,0.8-0.2,1.1c-0.7,1.8-1.2,3.6-1.4,5.5c-0.3,2.1-0.9,4.1-1.2,6.2c-0.4,2.2-0.7,4.4-0.9,6.6
					c-0.1,1-0.3,2-0.4,3.1c-0.2,1.2-0.1,2.3-0.3,3.5c-0.4,2.1-0.7,4.2-1.2,6.3c-0.2,0.9-0.6,1.8-0.9,2.7c-0.3,1-0.4,2-0.6,3.1
					c-0.2,0.9-0.6,1.8-0.8,2.7c-0.2,1-0.4,2.1-0.6,3.2c-0.4,2-1.5,3.8-2.4,5.5c-1,1.8-2.3,3.2-3.4,4.9c-0.5,0.7-0.7,1.5-1.2,2.2
					c-0.6,0.8-1.2,1.6-1.7,2.5c-1,1.8-1.9,3.5-3.3,5.1c-1.4,1.5-2.5,3.2-3.6,4.8c-0.5,0.8-1.1,1.4-1.6,2.1c-0.6,0.8-0.9,1.8-1.5,2.6
					c-1.2,1.6-2.5,3-3.8,4.5c-0.7,0.7-1.5,1.2-2.2,1.9c-0.7,0.7-1.3,1.3-2,1.9c-0.7,0.6-1.3,1.4-1.9,2.1c-0.7,0.8-1.4,1.7-2,2.5
					c-0.7,1-1.3,2-2,3c-0.8,1-1.6,1.9-2.3,2.9c-1.3,1.8-2.2,3.9-3.2,5.8c-0.5,1-1.3,1.7-1.9,2.7c-0.6,1-1,2.1-1.5,3.2
					c-0.5,1.1-1.1,2.1-1.5,3.2c-0.1,0.3-0.2,0.6-0.3,0.9c0,0.2-0.1,0.3-0.1,0.5c0,0,0,0,0,0c0,0.3-0.2,0.2-0.1,0
					c-1.3,0.6-1.1,2.8,0.6,2.7c1.7-0.1,2.1-1.6,2.5-3c0.3-1,0.9-1.8,1.3-2.7c0.4-1,0.7-2,1.2-2.9c0.5-0.9,1-1.5,1.6-2.3
					c0.6-0.8,1.1-1.9,1.6-2.8c1-2,2-3.7,3.4-5.4c1.4-1.7,2.4-3.5,3.7-5.1c0.6-0.8,1.3-1.5,1.9-2.3c0.6-0.8,1.4-1.3,2.1-2
					c0.7-0.7,1.3-1.4,2.1-2c0.9-0.7,1.5-1.5,2.2-2.3c1.3-1.4,2.8-2.9,3.6-4.6c0.9-1.8,2.2-3.3,3.4-4.9c0.6-0.8,1.1-1.7,1.8-2.5
					c0.7-0.8,1.4-1.5,2-2.3c1.2-1.7,1.9-3.7,3.2-5.3c1.2-1.5,2-3.3,3.2-4.8c1.3-1.6,2.4-3.3,3.3-5.2c0.4-0.8,0.8-1.7,1.2-2.6
					c0.4-1,0.6-2.1,0.8-3.2c0.4-2,1-4,1.4-6c0.4-2.1,1.3-4,1.7-6.2c0.9-4.9,1.3-9.9,1.9-14.8c0.3-2.5,1-4.9,1.5-7.4
					c0.5-2.4,0.7-4.8,1.7-7.2c0.1-0.2,0.2-0.5,0.2-0.7c1-1.3,2.3-2.4,3.3-3.8c1.2-1.5,1.9-3.3,2.8-4.9c0.9-1.7,1.9-3.2,3.1-4.7
					c1.2-1.6,2.3-3.3,3.5-4.8c1-1.3,2.2-2.7,3.2-4.1c0.5-0.7,1.1-1.3,1.5-2c0.5-0.8,0.9-1.8,1.4-2.6c1-1.6,2-3.2,3-4.8
					c0.9-1.6,2-3.1,3.2-4.4c1-1.1,1.8-2.3,2.6-3.5c0.6,0.3,1.4,0.3,2.2,0.3c1,0,2,0.5,3,0.5c1.2,0.1,2.3-0.1,3.5,0.1
					c1,0.2,2,0.2,2.9,0c-0.2-0.9-0.3-1.8-0.5-2.8c-0.9,0.2-1.6,0.1-2.5,0c-1-0.2-2-0.1-3,0c-0.8,0-1.5-0.3-2.3-0.5
					c-0.3,0-0.9,0-1.4,0c0.7-0.9,1.5-1.7,2-2.7c0.9-1.6,2.2-2.9,3.3-4.4c0.9-1.2,1.9-2.4,2.9-3.6c0.3-0.3,0.5-0.6,0.8-0.9
					c0.3-0.4,0.7-0.8,1-1.2c0.6-0.8,1.2-1.5,1.9-2.3l0.1-0.1l1.5-1.8l1.3-1.6c0.5-0.6,0.9-1.1,1.4-1.7c0.2-0.3,0.5-0.5,0.8-0.8v0
					c0.3-0.2,0.6-0.5,0.9-0.8c0.3-0.3,0.6-0.6,0.9-0.9c0.4-0.3,0.7-0.7,1-1.1c0.2-0.3,0.5-0.5,0.7-0.7c0,0,0,0.1,0.1,0.1
					C323.8,513.4,323.8,512,323.8,510.6z M312.3,474c-0.1,0-0.1,0-0.2,0.1c-1.1,0.4-2.2,0.8-3.2,1.4c-0.8,0.4-1.7,0.9-2.4,1.3
					c-0.2-0.3-0.6-0.6-1.1-0.6c-1.4,0-2.7,0.2-4.1-0.3c-1.4-0.5-2.9-1-4.3-1.5c-2.6-0.9-5.1-2-7.8-2.5c0.2-1.1,0.5-2.2,1-3.2
					c0.8-1.7-1.7-3.1-2.5-1.5c-0.7,1.4-1.1,2.9-1.4,4.4c0,0-0.1,0-0.1,0.1c-2,1.9-5.3,1.4-7.8,1.8c-1.5,0.2-2.8,0.9-4.4,0.8
					c-1.5,0-3-0.4-4.5-0.5c-1.5-0.1-2.9-0.4-4.4-0.5c-1.6-0.1-3.1-0.1-4.6-0.4c-1.5-0.2-3.2,0-4.7-0.3c-1.4-0.3-2.7-1-3.7-1.9
					c-0.2-0.2-0.4-0.3-0.6-0.3c0-0.1,0.1-0.2,0.2-0.2c1.3-1.4-0.8-3.4-2-2c-0.8,0.9-1.3,2.1-1.9,3.1c-0.8,1.1-1.9,1.9-3,2.6
					c-1.2,0.8-2.2,1.6-3.3,2.5c-1.2,0.9-2.5,1.4-3.7,2.4c-1,0.8-1.8,1.9-2.9,2.6c-1.2,0.8-2.4,1.7-3.5,2.6c-1,0.9-2,1.9-3.1,2.8
					c-1.1,0.9-2.3,1.6-3.4,2.5c-1.2,1-2.2,2.2-3.4,3.2c-1,0.9-2.1,1.6-3,2.5c-0.1-0.7-0.2-1.3-0.2-2c0-1.8-2.9-1.8-2.9,0
					c0,2.8,1.3,5.5,0.8,8.4c-0.2,1.3-0.3,2.5-0.3,3.9c0,1.4-0.4,2.8-0.8,4.1c-0.8,2.4-1.7,4.8-2.5,7.3c-0.5,1.8-1.1,3.6-2.1,5.2
					c-0.2,0.4-0.5,0.7-0.8,1c-0.5,0.5-0.5,1.1-0.2,1.6c0.5,0.2,0.9,0.4,1.3,0.7c0.1,0.1,0.2,0.1,0.2,0.2c1.1,0.8,1.8,2,2.8,3
					c1.2,1.1,2.7,1.8,4,2.7c2.6,1.8,4.5,4.3,7.3,5.8c0.2,0.1,0.5,0.2,0.7,0.2c0.1,0.2,0.2,0.3,0.3,0.5c0.7,0.8,1.3,1.7,1.8,2.6
					c0.4,0.7,0.9,1.3,1.2,2.1c0.2,0.6,0.4,1.2,0.6,1.7c0.1,0,0.2,0,0.2,0c0.2,0.1,0.3,0.4,0.1,0.3c-0.1,0-0.1-0.1-0.2-0.1
					c0,0-0.1,0-0.1,0c0,0-0.1,0-0.1,0c0,0,0,0-0.1,0c-0.4-0.1-0.7-0.2-1-0.3c-0.6-0.1-1.1,0-1.7-0.1c-0.5-0.1-1-0.2-1.5-0.3
					c-1-0.1-1.9-0.7-3-0.8c-1.1-0.2-2.2-0.5-3.4-0.5c-1.9,0-1.9,2.8,0,2.9c1.2,0,2.7,0.3,3.9,0.7c1.2,0.4,2.4,0.6,3.6,0.9
					c0.6,0.1,1.3,0,1.9,0.1c0.4,0.1,0.7,0.3,1.1,0.4c0.2,0,0.4,0.1,0.5,0.1c-0.2,0.2-0.4,0.3-0.6,0.5c-2.1,1.5-4.3,2.8-6.2,4.5
					c-1.9,1.6-4,2.8-6,4.1c-2.3,1.4-4.3,3.1-6.4,4.6c-1.5,1.1-0.1,3.5,1.4,2.5c1.9-1.3,3.6-2.8,5.5-4.1c1.9-1.2,3.8-2.3,5.6-3.6
					c0.9-0.6,1.7-1.3,2.5-2c0.9-0.7,1.9-1.3,2.8-1.9c1.9-1.3,3.6-2.6,5.3-4.1c1.7-1.4,3.8-2.2,5.7-3.4c1.9-1.2,3.7-2.4,5.4-3.8
					c0.8-0.7,1.7-1.2,2.4-1.9c0.8-0.8,1.7-1.6,2.6-2.4c1.6-1.6,3.4-3.1,5-4.7c1.6-1.6,3.3-3,4.8-4.8c1.4-1.7,2.6-3.6,4.2-5.1
					c0.8-0.7,1.5-1.5,2.2-2.2c0.8-0.9,1.6-1.9,2.5-2.8c1.6-1.5,3.4-2.9,4.9-4.6c0.8-0.9,1.6-1.7,2.4-2.6c0.7-0.8,1.3-1.6,2.1-2.4
					c0.7-0.7,1.3-1.4,2.1-2.1c0.8-0.7,1.6-1.5,2.3-2.3c0.5-0.5,0.9-1,1.5-1.4c0.5-0.5,1.1-1,1.7-1.4c0.7-0.6,1.4-1.2,2.1-1.8
					c1.7-1.6,3.2-3.5,4.8-5.2c1.7-1.8,3.5-3.4,5.2-5.2c0.8-0.9,1.9-1.4,2.8-2.1c0.8-0.7,1.6-1.6,2.5-2.2c1-0.7,2.1-1.4,3-2.3
					c0.8-0.8,1.7-1.5,2.8-2.1c1-0.5,2-0.9,3.1-1.4c0.2-0.1,0.3-0.2,0.5-0.2c0.6-0.3,1.3-0.5,1.9-0.7c0-1,0.1-2,0.2-2.9
					C313.5,473.7,312.9,473.8,312.3,474z M217.5,511c0,0.1-0.1,0.3-0.1,0.5c-0.1-0.1-0.2-0.3-0.3-0.5C217.2,511,217.4,511,217.5,511
					z M246.2,535.7c-3.3,3-7,5.6-10.9,7.7c-0.2,0.1-0.3,0.2-0.5,0.2c-0.3-0.4-0.8-0.6-1.4-0.5l0,0c0,0,0,0,0.1,0h-0.1l0,0
					c-0.3-0.3-0.7-0.5-1.2-0.4c-0.1-0.2-0.1-0.3-0.2-0.5c-0.2-0.6-0.4-1.2-0.7-1.8c-0.9-1.6-2-3.3-3.2-4.7c-0.3-0.4-0.6-0.5-1-0.5
					c-0.1-0.2-0.3-0.5-0.6-0.6c-2-1.1-3.7-2.8-5.5-4.3c0.8-0.5,1.8-0.8,2.6-1.3c1-0.7,2-1.5,2.9-2.4h0c0.5-0.1,1,0,1.6-0.1
					c0.5-0.1,1-0.3,1.5-0.3c0.5-0.1,0.9,0.1,1.3,0.3c2.4,0.9,4.9,1.3,7.4,1.4c1.3,0,2.5,0.3,3.7,0.6c1.3,0.2,2.7,0.4,4,0.8
					c0.5,0.1,1.1,0.3,1.6,0.3c0.5,0,1-0.1,1.5,0c0.4,0.1,0.8,0.2,1.2,0.3c0.1,0,0.5,0.2,0.5,0.2c0,0,0.1,0,0.1,0.1c0,0,0,0,0,0
					c0.1,0.3,0.3,0.5,0.6,0.6C249.9,532.3,248,534,246.2,535.7z M253.6,528.8c0,0,0-0.1,0-0.2c-0.4-1-1.7-1.4-2.6-1.7
					c-0.4-0.1-0.8-0.2-1.3-0.3c-0.7-0.1-1.4,0-2.1-0.1c-0.7-0.1-1.4-0.4-2.1-0.5c-0.8-0.2-1.5-0.3-2.3-0.4c-1.5-0.3-3-0.7-4.5-0.8
					c-1.4,0-2.8-0.1-4.2-0.5c-1.3-0.3-2.6-1-4-1.2c0,0-0.1,0-0.1,0c0.2-0.2,0.5-0.3,0.7-0.3c1.1,0.1,1.5-0.9,1.3-1.7
					c0.9,0.1,1.7,0.2,2.6,0.2c1.2,0.1,2.3,0.1,3.5,0.2c1.2,0.1,2.3,0.4,3.4,0.4c0.5,0,1-0.1,1.5,0s1,0.3,1.5,0.4
					c0.5,0.1,1,0.1,1.5,0c0.6,0,0.6,0.1,1,0.5c0.7,0.7,1.6,0.9,2.5,1.3c2,0.7,3.9,1.6,6,2c0,0,0,0,0,0.1
					C255.2,527.2,254.4,528,253.6,528.8z M279.3,501.7c-0.8,0.8-1.6,1.4-2.3,2.2c-0.7,0.8-1.5,1.4-2.2,2.2c-1.5,1.8-3,3.7-4.8,5.3
					c-1.6,1.4-3.2,2.9-4.7,4.5c-1.6,1.8-3.4,3.3-4.8,5.1c-0.8,1-1.6,2-2.4,3c-0.2-0.2-0.4-0.3-0.6-0.4c-2.4-0.4-4.5-1.5-6.8-2.2
					c-0.4-0.1-0.8-0.2-1.1-0.4c-0.4-0.3-0.6-0.7-1-0.9c-0.5-0.3-1-0.5-1.6-0.5c-0.5,0-1,0.1-1.6,0c-1.1-0.3-2-0.5-3.2-0.4
					c-1.2,0-2.3-0.2-3.5-0.3c-1.2-0.1-2.4-0.1-3.6-0.2c-1.2-0.1-2.4-0.3-3.7-0.3c-1.1,0-1.5,1-1.3,1.8c-0.9,0.2-1.6,0.8-2.2,1.5
					c-0.7,0.8-1.7,1-2.5,1.7c-0.2,0.2-0.4,0.5-0.6,0.7c-0.3,0.3-0.6,0.7-0.9,1c-0.1,0.1-0.2,0.2-0.3,0.2v0c0,0,0,0,0,0
					c-0.5,0.4-1,0.9-1.6,1.2c-1.1,0.7-2.3,1.1-3.4,1.9c-0.1-0.1-0.2-0.2-0.4-0.2c-1.4-0.9-2.6-1.7-3.7-3c-0.6-0.7-1.2-1.2-1.8-1.7
					c0.9-1.5,1.6-3.2,2.1-5c0.4-1.3,0.8-2.6,1.3-3.9c0.4,0,0.8-0.1,1.1-0.4c0.3-0.3,0.6-0.6,0.9-0.9c0.3-0.3,0.5-0.9,0.4-1.3
					c0.4,0,0.9-0.2,1.1-0.7c1.2-2,3.6-2.7,5.4-3.9c1.1-0.8,2.2-1.5,3.4-2.3c1.2-0.7,2.6-1.5,3.5-2.5c0.4-0.4,0.7-0.9,1.2-1.2
					c0.6-0.4,1.2-0.7,1.9-1c1.1-0.6,2.2-1.4,3.3-2.1c2.2-1.4,4.5-2.6,6.2-4.6c0.1-0.1,0.1-0.2,0.2-0.2c0.7,0.2,1.5,0.5,2.2,0.6
					c1.3,0.2,2.6,0.1,3.9,0.1c1.1,0,2.3-0.3,3.3,0c0.5,0.1,0.9,0.4,1.4,0.5c0.7,0.1,1.4,0.1,2.1,0.2c1.3,0.2,2.5,0.2,3.8,0.3
					c1.3,0,2.5,0.4,3.8,0.6c0.7,0.1,1.4,0.2,2,0.3c0.6,0.3,1.1,0.5,1.7,0.8c1.2,0.5,2.5,0.3,3.7,0.5c1.1,0.2,2.6,0.6,3.6,1.3
					c0.5,0.4,0.9,0.9,1.4,1.3c0.3,0.2,0.6,0.4,1,0.6c0.1,0.4,0.3,0.7,0.7,1C279.4,501.6,279.3,501.7,279.3,501.7z M279.1,499.2
					c0.1-0.1,0.2-0.2,0.3-0.3v0.4C279.3,499.3,279.2,499.2,279.1,499.2z M298.7,483c-0.7,0.7-1.6,1.2-2.3,1.8
					c-0.9,0.7-1.6,1.7-2.4,2.5c-1.6,1.6-3.4,3.2-4.9,4.9c-1.6,1.8-3.2,3.5-5,5.1c-0.2,0.2-0.5,0.4-0.7,0.6c-0.6-0.1-1.1-0.3-1.7-0.6
					c-0.9-0.4-1.8-0.9-2.7-1.3c-1.4-0.6-3.2-0.9-4.4-2c-0.1-0.1-0.2-0.1-0.2-0.2h0c-0.2-0.4-0.6-0.7-1.2-0.7c-1.7,0-3.5,0.1-5.1,0.1
					c0,0,0,0,0,0c-0.8,0-1.6-0.1-2.4-0.3c0,0,0,0,0,0c-2.6-0.6-5.2-0.6-7.8-0.9c-0.6-0.1-1.2,0-1.8-0.2c-0.5-0.1-0.9-0.4-1.4-0.4
					c-1.2-0.2-2.3,0-3.5,0c-1.2,0-2.6,0.2-3.8-0.1c-1.2-0.2-2.4-0.7-3.6-0.8c-1.1-0.1-1.5,0.8-1.3,1.7c-1.6,1.7-3.8,2.8-5.8,4.1
					c-1.2,0.8-2.4,1.6-3.7,2.2c-0.6,0.3-1.2,0.6-1.7,1c-0.5,0.4-0.8,0.9-1.3,1.3c-1.1,1-2.4,1.6-3.6,2.4c-1.1,0.7-2.2,1.5-3.4,2.2
					c-1.7,1-3.4,1.8-4.7,3.2c0.2-0.7,0.3-1.5,0.4-2.2c0.2-1.4,0-2.8,0.3-4.2c0.2-1.3,0.2-2.6,0-4c0.3,0,0.7-0.1,1-0.5
					c0.9-1,2-1.8,3-2.6c1-0.9,1.9-2,2.9-2.9c1-1,2.3-1.6,3.4-2.5c1.1-0.9,2.1-1.8,3.1-2.8c2.1-1.9,4.4-3.3,6.5-5.3
					c1-1,2.3-1.6,3.5-2.3c1.2-0.8,2.1-1.8,3.3-2.5c1.3-0.8,2.7-1.7,3.7-2.9c0.3-0.3,0.5-0.6,0.7-1c1.1,1.1,2.5,1.8,4,2.3
					c1.7,0.6,3.4,0.5,5.1,0.6c1.7,0.1,3.4,0.5,5.1,0.5c1.7,0,3.4,0.4,5.1,0.5c1.7,0.1,3.3,0.5,5.1,0.5c1.7,0,3.1-0.8,4.8-1
					c2.8-0.3,5.8-0.2,8.1-2c-0.2-0.2-0.4-0.4-0.4-0.7c0,0,0.1,0,0.1,0.1c0.4,0.1,0.8,0,1.2-0.2c0,0.1-0.1,0.2-0.2,0.3
					c-0.2,0.2-0.4,0.4-0.7,0.6c0.2,0.1,0.4,0.2,0.6,0.2c3,0.5,5.7,1.7,8.5,2.7c1.5,0.5,2.9,1.1,4.3,1.5c0.9,0.2,1.8,0.3,2.6,0.3
					C302,480.5,300.1,481.5,298.7,483z M323.8,510.6c-0.2,0.2-0.4,0.4-0.6,0.6c-0.3,0.3-0.5,0.7-0.8,1c-0.1,0.1-0.3,0.2-0.5,0.4
					c-0.2,0.1-0.4,0.3-0.6,0.4c-0.5,0.5-0.9,1-1.3,1.4c0,1.2,0.1,2.5,0.2,3.7c0.3-0.2,0.6-0.5,0.9-0.8c0.3-0.3,0.6-0.6,0.9-0.9
					c0.4-0.3,0.7-0.7,1-1.1c0.2-0.3,0.5-0.5,0.7-0.7c0,0,0,0.1,0.1,0.1C323.8,513.4,323.8,512,323.8,510.6z"/>
				<path class="st11" d="M341,503.2c0.3-1.3-0.4-2.2-1.5-2.9c-0.4-0.3-0.5-0.3-0.8-0.7c-0.4-0.6-0.7-1.2-1.1-1.7
					c-0.1-0.1-0.2-0.2-0.3-0.3c0.1-0.3,0.3-0.5,0.4-0.8c0.4-0.9,0.6-1.8,0.7-2.8c0-0.5,0.2-0.8,0.3-1.2c0.1-0.6-0.1-1.1-0.2-1.6
					c0-0.2-0.1-0.3-0.2-0.4c0,0,0,0,0,0c0,0,0,0,0,0h0c0.2-0.1,0.3-0.3,0.4-0.4c0.4-0.6,0.5-1.3,0.7-2c0.3-0.9,0.3-1.9,0.3-2.9
					c-0.1-1.7,0.2-3.5-0.5-5.2c-0.3-0.8-0.9-1.4-1.3-2.1c-0.4-0.7-0.7-1.5-1.1-2.2c-0.3-0.7-0.8-1.2-1.4-1.7c0.3-0.2,0.5-0.5,0.5-1
					c0.1-0.8,0.9-1.4,1.4-2.1c0.2-0.3,0.3-0.6,0.4-0.9c0.1-0.2,0.2-0.3,0.2-0.5c0,0,0-0.1,0-0.1c0,0,0,0-0.1,0c0,0,0,0,0.1,0l0,0
					c0-0.1,0.1-0.1,0.1-0.1c1.2-1-0.1-3.1-1.6-2.4c0.1-1.2,0.1-2.4-0.9-3.4c-1-1-2.5-1.7-3.7-2.4c-1.7-1-3.5-1.6-5.4-2.1
					c-0.1,1-0.2,1.9-0.2,2.9c0.3,0.1,0.7,0.2,1,0.3c1.8,0.5,3.3,1.5,4.9,2.4c0.3,0.2,0.7,0.4,1,0.6c0.1,0.1,0.2,0.1,0.2,0.2
					c0.1,0.1,0.3,0.4,0.3,0.3c0.2,0.6-0.1,1.5-0.1,2.1c0,0.9,0.7,1.4,1.4,1.4c0,0.1-0.1,0.1-0.1,0.2c-0.3,0.6-0.9,1-1.2,1.6
					c-0.2,0.4-0.4,0.8-0.5,1.2c-0.1-0.1-0.2-0.1-0.3-0.2c-1.6-0.8-3.5-1-5.3-1c-0.7,0-1.4,0-2.1,0c-0.7,0-1.3,0-1.9,0.1
					c-0.6,0-1.2,0.1-1.8,0.3c-0.1,0-0.1,0-0.2,0c-1.4,0.3-3,0.7-4,1.7c-0.1,0-0.2-0.1-0.4-0.1h-1.4c-0.2,0-0.5,0.1-0.7,0.2
					c-0.3,0-0.6,0-0.8,0.1c-0.1,1-0.1,2-0.2,2.9c0.1,0,0.1,0,0.2,0c0.2-0.2,0.4-0.4,0.6-0.6c0.2,0.2,0.5,0.3,0.9,0.3h0.1
					c-0.2,0.1-0.4,0.2-0.7,0.2c-0.3,0-0.6,0-0.9,0.1c-0.1,0.1-0.2,0.2-0.2,0.3c-0.1,0.1-0.2,0.2-0.3,0.3c-0.5,0.7-1.1,1.4-1.7,2
					c0,0-0.1,0.1-0.1,0.1c-0.8,0.8-1.5,1.4-2.2,2.2c-0.6,0.8-1.5,1.4-2.1,2.2c-0.6,0.8-1.1,1.7-1.6,2.5c-1,0.2-1.8,1.5-0.8,2.4
					c0.4,0.4,0.4,1.1,0.5,1.6c0.2,0.8,0.7,1.4,1.1,2c0.8,1.4,1.6,2.7,2.7,3.8c0.5,0.5,0.9,1.2,1.4,1.8c0.1,0.2,0.3,0.3,0.4,0.5
					c0.5,0.5,1,1,1.5,1.4c0.1,0.1,0.3,0.3,0.4,0.4c0.7,0.7,1.3,1.3,1.9,2c0.4,0.4,0.7,0.8,1.1,1.2c0.9,1.1,2.3,2,3.8,2c0,0,0,0,0,0
					c0.7,0,1.3,0,1.9-0.1c0.7,0,1.3-0.2,1.9-0.5c0.2-0.1,0.4-0.2,0.6-0.4c2.7-2.3,5.6-4.3,8.4-6.4c0.8-0.6,1.6-1.4,2.2-2.2
					c-0.1,0.2-0.2,0.4-0.3,0.6c-0.9,1.5-2,2.8-3.1,4.2c-0.6,0.7-1.2,1.4-1.7,2.1c-0.5,0.8-0.9,1.6-1.5,2.4c-1.1,1.5-2.2,2.8-3.4,4.1
					c-0.4,0.4-0.8,0.9-1.1,1.3c0,1.4,0.1,2.8,0.1,4.1c0.2,0.2,0.5,0.4,1,0.4c1.8,0,3.6,0.1,5.4-0.2c1.9-0.3,3.4-1.2,4.9-2.4
					c2.6-2.2,5.3-4.9,5.9-8.4c0-0.3,0-0.5,0-0.8C341,503.3,341,503.3,341,503.2z M334.2,492.2c-0.8,1.1-1.7,2.2-2.7,3.1
					c-1.1,1-2.5,1.8-3.7,2.7c-1.3,1-2.6,2-3.9,3c0,0-0.1,0-0.1,0.1c-0.5,0.4-0.9,0.9-1.5,1.2c-0.2,0.1-0.3,0.2-0.5,0.2
					c-0.4,0.1-0.9,0-1.3,0c-0.2,0-0.4,0-0.6,0c-0.3,0-0.5-0.1-1-0.4c-0.5-0.4-0.9-0.8-1.3-1.3c-0.8-1-1.6-1.8-2.5-2.7
					c-0.2-0.2-0.5-0.5-0.8-0.7c-0.4-0.4-0.8-0.8-1.2-1.3c-0.5-0.7-1.1-1.3-1.7-1.9c-0.1-0.1-0.1-0.1-0.2-0.2c-1-1.1-1.6-2.3-2.4-3.6
					c-0.4-0.6-0.6-1-0.7-1.7c0-0.2-0.1-0.4-0.2-0.6c0.1-0.1,0.2-0.2,0.3-0.4c0.4-0.6,0.8-1.3,1.2-1.9c0.5-0.7,1-1.1,1.6-1.7
					c0.2-0.2,0.4-0.5,0.6-0.8c0.2-0.3,0.5-0.7,0.8-0.9c0.4-0.4,0.8-0.7,1.2-1.1c0.2-0.2,0.3-0.3,0.5-0.5c0.5-0.6,1-1.2,1.5-1.8
					c0.5-0.5,0.9-1,1.4-1.5c0.5-0.5,1.1-0.9,1.6-1.4c0.5-0.5,0.8-0.9,1.4-1.1c0.3-0.1,0.7-0.2,1-0.3c0.7-0.2,1.3-0.3,2-0.4
					c0.4-0.1,0.7-0.1,1.1-0.1c0.3,0,0.5-0.1,0.8-0.1c1.4-0.1,2.9-0.1,4.2,0.1c0.7,0.1,1.5,0.4,2.1,0.6c0.6,0.3,1.3,1,1.8,1.4
					c1.1,0.9,1.3,2.3,2.1,3.5c0.4,0.7,1,1.3,1.2,2.1c0.2,0.8,0.1,1.6,0.1,2.4c0,0.9,0.1,1.8,0,2.6c0,0.3-0.1,0.7-0.2,1v0
					c-0.4,0.2-0.6,0.5-0.7,0.9C335.6,490,334.8,491.2,334.2,492.2z M338.3,503.3c-0.5,3-2.7,5.1-4.9,7c-1.2,1-2.3,1.6-3.8,1.8
					c-1.1,0.2-2.2,0.1-3.4,0.1c0.2-0.2,0.4-0.4,0.6-0.6c0.6-0.7,1.3-1.4,1.9-2.1c0.7-0.8,1.3-1.7,1.9-2.6c0.7-0.8,1.1-1.8,1.7-2.7
					c0.6-0.9,1.3-1.7,2-2.5c0.5-0.6,0.9-1.1,1.4-1.7c0.5,0.7,0.8,1.5,1.5,2.1c0.3,0.2,0.6,0.4,0.9,0.6c0,0,0.1,0.1,0.2,0.1
					c0,0.1,0,0.2,0.1,0.3C338.3,503.3,338.3,503.3,338.3,503.3z"/>
			</g>
			<g>
				<path class="st11" d="M138.8,503.1c-0.1,0-0.1,0.1-0.2,0.1c-0.2,0.1-0.5,0.2-0.7,0.3C138.1,503.2,138.4,503.1,138.8,503.1z"/>
			</g>
			<g>
				<path class="st11" d="M136.6,504c0.4-0.2,0.8-0.4,1.2-0.5c-0.1,0-0.2,0.1-0.3,0.2C137.2,503.9,136.8,504,136.6,504
					C136.5,504,136.5,504,136.6,504z"/>
				<path class="st11" d="M138,500.3c-0.1,0-0.1,0-0.2,0c-0.4,0.1-0.8,0.3-1.1,0.4c0.4-0.2,0.8-0.3,1.2-0.5
					C137.9,500.3,137.9,500.3,138,500.3z"/>
			</g>
		</g>
	</g>
	<path class="st1" d="M765.7,476.5c0.1,0.1,0.2,0.2,0.2,0.3c0-0.1,0-0.2,0-0.2C765.9,476.5,765.8,476.5,765.7,476.5z"/>
	<path class="st1" d="M764.2,476.2L764.2,476.2c0.1,0.1,0.3,0.2,0.6,0.2c0.3,0,0.6,0,0.9,0.1c-0.2-0.2-0.4-0.4-0.6-0.6
		C764.9,476.1,764.6,476.2,764.2,476.2z"/>
	<path class="st1" d="M757.4,458c0.1,1,0.2,2,0.2,3c0.3,3.6,0.6,7.1,0.9,10.6c1.4,0.3,3,0.7,4,1.7c0.1,0,0.2-0.1,0.4-0.1h1
		c-0.3-5-0.6-9.7-1-14c-0.1-1-0.2-2-0.2-2.9c-0.6,0.2-1.2,0.4-1.8,0.5c-0.8,0.2-1.4,0.5-2.1,0.8c-0.4,0.2-0.7,0.1-1.1,0.2
		C757.5,458,757.4,458,757.4,458z"/>
	<path class="st0" d="M679.6,402.2c0.2,0.9,0.3,1.8,0.3,2.8c0,0.4,0,0.8,0,1.2c9.9-2.8,32.8-8,48.8-1c15.1,6.6,23.9,13.9,28.7,24.8
		c2.1,4.7,3.4,10.2,4.2,16.6c0.3,2.8,0.7,6.2,1,10c0.1,0.9,0.2,1.9,0.2,2.9c0.3,4.3,0.7,9,1,14h0.4c0.2,0,0.5,0.1,0.7,0.2
		c0.3,0,0.6,0,0.8,0.1c0.7,0.1,1.3,0.2,1.9,0.4c-0.3-5.9-0.7-11.4-1.1-16.2c-0.1-1-0.2-2-0.2-3c-0.3-3.5-0.6-6.5-0.9-8.9
		c-2.7-22.6-12-34.3-35.2-44.4c-9.4-4.1-21.8-4.9-36.8-2.4C687.9,400.1,683.1,401.3,679.6,402.2z"/>
	<path class="st1" d="M750.9,431.4c3.4,7.2,5.6,16,6.4,26.2c0,0.1,0,0.2,0,0.4c0.1,0,0.1,0,0.2-0.1c0.4-0.1,0.8,0,1.1-0.2
		c0.7-0.3,1.3-0.7,2.1-0.8c0.6-0.1,1.2-0.3,1.8-0.5c-0.3-3.8-0.7-7.2-1-10c-0.8-6.4-2.1-11.8-4.2-16.6c-1,0.3-1.8,0.7-2.4,1
		C753.9,431.6,752.4,431.7,750.9,431.4z"/>
	<path class="st1" d="M754.4,546c1,0.5,1.9,1.2,2.7,2c0.8,0.8,1.8,1.6,2.8,2.2c0.8-1.2,1.4-2.3,2-3.3c0.7-1.3,1.2-3.3,1.6-6
		c0.2-1.1,0.3-2.2,0.5-3.5c0.4-3.7,0.7-8.2,0.9-13.3l-0.1-0.1l-1.5-1.8l-1.3-1.6c-0.5-0.6-0.9-1.1-1.4-1.7c-0.2-0.3-0.5-0.5-0.8-0.8
		c-0.2,3.2-0.5,6.2-0.8,9.2c-0.1,0.9-0.2,1.8-0.4,2.7C757.7,535.9,756.3,541.3,754.4,546z"/>
	<path class="st1" d="M758,516.5c0.3,0.3,0.6,0.6,0.9,0.9c0.3,0.3,0.6,0.5,0.9,0.8v0c0.3,0.3,0.6,0.5,0.8,0.8
		c0.5,0.6,0.9,1.1,1.4,1.7l1.3,1.6l1.5,1.8l0.1,0.1c0.6,0.8,1.2,1.5,1.9,2.3c0.1-1.4,0.1-2.8,0.2-4.3c-0.3-0.5-0.7-1-1.1-1.5
		c-0.3-0.3-0.5-0.6-0.8-1c-0.4-0.4-0.7-0.9-1.1-1.3c-0.5-0.6-0.9-1.4-1.5-1.9c-0.7-0.6-1.4-1.2-2-1.8c-0.1-0.1-0.2-0.2-0.3-0.3
		c-0.5-0.5-0.8-0.9-1.3-1.4c-0.2-0.2-0.4-0.3-0.6-0.4C758.1,513.9,758,515.2,758,516.5z"/>
	<g>
		<path class="st0" d="M680.1,412c0,1.3,0.1,2.7,0.1,4.1c5.4-2.2,17.2-6.5,25.4-6.1c0.5,0,1.1,0.1,1.7,0.1
			c12.7,0.6,42.4,2.1,46.1,47.8c0,0.5,0.1,1,0.1,1.5c0.1,1,0.2,1.9,0.2,2.9c0.2,3,0.5,6,0.7,9c0.7,0,1.3,0,1.9,0.1
			c0.6,0,1.2,0.1,1.8,0.3c0.1,0,0.1,0,0.2,0c-0.3-3.5-0.6-7.1-0.9-10.6c-0.1-1-0.2-2-0.2-3c0-0.1,0-0.2,0-0.4
			c-0.8-10.2-3-19-6.4-26.2c-3.6-7.6-8.6-13.5-15-17.6c-10.3-6.7-21.6-7.2-28.3-7.5c-0.6,0-1.2-0.1-1.7-0.1
			C697.4,405.7,686.2,409.5,680.1,412z"/>
		<path class="st0" d="M675.6,413.8l1.6,3.5c0,0,0,0,0.1,0c0.3-0.1,1.3-0.6,2.9-1.2c0-1.4-0.1-2.8-0.1-4.1c-1.2,0.4-2.1,0.9-2.9,1.2
			C676.3,413.5,675.8,413.8,675.6,413.8z"/>
		<path class="st0" d="M752.7,545.2c0.6,0.2,1.2,0.5,1.7,0.8c1.9-4.7,3.3-10.1,4.2-16c0.1-0.9,0.3-1.8,0.4-2.7c0.4-3,0.6-6,0.8-9.2
			v0c-0.3-0.2-0.6-0.5-0.9-0.8c-0.3-0.3-0.6-0.6-0.9-0.9C757.4,527.6,755.9,537.4,752.7,545.2z"/>
		<path class="st0" d="M677.1,562.6c0,1,0.5,1.9,1.5,2.6v0c0.1,0,0.1,0.1,0.2,0.1c0.6,0.5,1.6,0.9,2.7,1.4
			c4.8,1.9,13.5,3.6,23.9,3.6c9.8,0,21.1-1.5,31.7-5.9c8.3-3.4,13.8-9.8,17.3-18.4c-0.6-0.3-1.1-0.6-1.7-0.8
			c3.2-7.8,4.8-17.6,5.3-28.7c0.3,0.3,0.6,0.6,0.9,0.9c0.3,0.3,0.6,0.5,0.9,0.8c0.1-1.2,0.1-2.4,0.2-3.7c-0.5-0.5-0.8-0.9-1.3-1.4
			c-0.2-0.2-0.4-0.3-0.6-0.4c-0.2-0.1-0.3-0.2-0.5-0.4c-0.3-0.3-0.5-0.7-0.8-1c-0.2-0.2-0.4-0.4-0.6-0.6c0,1.4-0.1,2.8-0.1,4.1
			c-0.9,22.7-5.9,40.1-20.5,46.1c-22.8,9.4-48.6,4.6-54,1.8c-0.4-0.2-0.7-0.4-0.9-0.6c0.1,0.1,0.2,0.3,0.2,0.7l-2.3-0.1L677.1,562.6
			z"/>
	</g>
	<g>
		<path class="st0" d="M678.3,575c0.1,0,0.9,0.4,2.7,0.9c4.2,1.2,13.5,3.3,30.7,4.3c0.9,0,1.7,0.1,2.5,0.1
			c13.2,0,24.3-5.7,31.4-10.6c8.5-5.9,16-13.9,19.6-21c0.7-1.4,1.3-3.5,1.8-6c0.2-0.9,0.3-1.8,0.5-2.8c0.4-3.2,0.8-7,1-11.2
			c-0.3-0.3-0.5-0.6-0.8-0.9c-0.3-0.4-0.7-0.8-1-1.2c-0.6-0.8-1.2-1.5-1.9-2.3c-0.2,5-0.5,9.5-0.9,13.3c-0.1,1.2-0.3,2.4-0.5,3.5
			c-0.4,2.6-1,4.7-1.6,6c-0.5,1-1.2,2.2-2,3.3c-7.5,11.2-26.2,27.3-47.9,26.1c-18.3-1-27.4-3.4-30.7-4.4c-1-0.3-1.4-0.5-1.4-0.5
			L678.3,575z"/>
		<path class="st0" d="M764.8,524.2c0.6,0.8,1.2,1.5,1.9,2.3c0.3,0.4,0.7,0.8,1,1.2c0.3,0.3,0.5,0.6,0.8,0.9
			c0.1-1.4,0.1-2.8,0.2-4.2c-0.4-0.5-0.9-1-1.3-1.5c-0.2-0.2-0.4-0.5-0.6-0.8c-0.3-0.5-0.7-1-1.1-1.5c-0.3-0.3-0.5-0.6-0.8-1
			C764.9,521.3,764.9,522.8,764.8,524.2z"/>
		<path class="st0" d="M764.9,476.4c0.3,0,0.6,0,0.9,0.1c-0.2-0.2-0.4-0.4-0.6-0.6c-0.2,0.2-0.5,0.3-0.9,0.3h-0.1
			C764.4,476.3,764.6,476.4,764.9,476.4z"/>
		<path class="st0" d="M765.8,473.6c0.1,1,0.1,2,0.2,2.9c0.7,0.1,1.3,0.4,1.9,0.7c-0.1-1.1-0.1-2.1-0.2-3.2
			C767.1,473.8,766.5,473.7,765.8,473.6z"/>
		<path class="st0" d="M766,476.8c0-0.1,0-0.2,0-0.2c-0.1,0-0.1,0-0.2,0C765.8,476.6,765.9,476.7,766,476.8z"/>
		<path class="st0" d="M673.8,404.1l0.2,0.6v0l0.1,0.3l1,2.6c0,0,0.8-0.3,2-0.7c0.8-0.2,1.7-0.5,2.9-0.9c0-0.4,0-0.8,0-1.2
			c0-1-0.1-1.9-0.3-2.8c-1.1,0.3-2,0.6-2.8,0.8c-1.4,0.4-2.3,0.8-2.8,0.9h0C673.9,404,673.8,404.1,673.8,404.1z"/>
	</g>
	<g>
		<g>
			<g>
				<path class="st11" d="M764.2,476.2c0.2,0.1,0.4,0.2,0.7,0.2c0.3,0,0.6,0,0.9,0.1c-0.2-0.2-0.4-0.4-0.6-0.6
					C764.9,476.1,764.6,476.2,764.2,476.2L764.2,476.2z"/>
			</g>
			<g>
				<path class="st11" d="M764.2,476.2c0.2,0.1,0.4,0.2,0.7,0.2c0.3,0,0.6,0,0.9,0.1c-0.2-0.2-0.4-0.4-0.6-0.6
					C764.9,476.1,764.6,476.2,764.2,476.2L764.2,476.2z"/>
			</g>
			<g>
				<path class="st11" d="M741.8,490.7C741.8,490.8,741.8,490.8,741.8,490.7C741.8,490.8,741.8,490.8,741.8,490.7
					C741.8,490.7,741.8,490.7,741.8,490.7z"/>
			</g>
			<g>
				<path class="st11" d="M803.2,519.2c-1.2,2-2.5,3.7-3.7,5.7c-0.5,0.9-1,1.8-1.7,2.7c-0.7,0.9-1.5,1.7-2.2,2.6
					c-1.2,1.4-3.2-0.6-2-2c0.6-0.8,1.4-1.5,2-2.3c0.6-0.8,1.1-1.8,1.7-2.7c1.1-1.8,2.4-3.5,3.5-5.4
					C801.6,516.1,804.1,517.6,803.2,519.2L803.2,519.2z"/>
			</g>
			<g>
				<path class="st11" d="M790.6,524.5c-0.1,0.1-0.2,0.2-0.4,0.2c-0.1,0.1-0.2,0.1-0.2,0.2c0,0-0.1,0.1-0.1,0.1
					c0.1-0.1,0.2-0.2,0.1,0c-0.2,0.1-0.3,0.3-0.5,0.5c0,0-0.2,0.2,0,0c0.1-0.2,0,0,0,0c0,0.1-0.1,0.2,0,0c0-0.1,0.1-0.2,0-0.1
					c0,0.1,0,0,0-0.3c0,0.8-0.6,1.5-1.4,1.4c-0.8,0-1.5-0.6-1.4-1.4c0.1-1.4,1.5-2.3,2.5-3c0.6-0.4,1.6-0.1,2,0.5
					C791.5,523.3,791.3,524,790.6,524.5L790.6,524.5z"/>
			</g>
			<g>
				<path class="st11" d="M787.1,510.6c0,0,0-0.1,0-0.1c0.8,0.2,1.6,0.4,2.4,0.6c-1.5,1.3-2.7,2.9-4,4.3c-0.6,0.7-1.2,1.5-1.8,2.2
					c-0.5,0.7-1.3,1.5-1.5,2.4c-0.1,0.8-1.1,1.2-1.8,1c-0.8-0.2-1.1-1-1-1.8c0.2-1,0.9-1.9,1.4-2.7c0.7-0.9,1.4-1.8,2.1-2.6
					c0.7-0.8,1.4-1.6,2.1-2.3c0.8-0.9,1.5-1.8,2.3-2.5c0.8-0.7,2-0.4,2.4,0.6c0,0,0,0.1,0,0.1C790.5,511.6,787.7,512.4,787.1,510.6
					L787.1,510.6z"/>
			</g>
			<g>
				<path class="st11" d="M869.1,525.6c0.6,0.1,1.2-0.3,1.5-0.9c-0.5,0.2-0.9,0.4-1.3,0.7C869.2,525.5,869.1,525.5,869.1,525.6z"/>
				<path class="st11" d="M862.5,511c0,0.1,0.1,0.3,0.1,0.5c0.1-0.1,0.2-0.3,0.3-0.5C862.8,511,862.6,511,862.5,511z"/>
			</g>
			<g>
				<path class="st11" d="M791.7,473.6c0,0.1,0.1,0.2,0.2,0.3c0.2,0.2,0.4,0.4,0.7,0.6c0.2-0.2,0.4-0.4,0.4-0.7c0,0-0.1,0-0.1,0.1
					C792.5,473.9,792,473.9,791.7,473.6z"/>
			</g>
			<g>
				<path class="st11" d="M791.7,473.6c0,0.1,0.1,0.2,0.2,0.3c0.2,0.2,0.4,0.4,0.7,0.6c0.2-0.2,0.4-0.4,0.4-0.7c0,0-0.1,0-0.1,0.1
					C792.5,473.9,792,473.9,791.7,473.6z"/>
			</g>
			<g>
				<path class="st11" d="M870.4,523.1c0.5,0.5,0.5,1.1,0.2,1.6c0.9-0.4,1.8-0.7,2.6-1.3c1.3-0.9,2.6-1.9,4-2.7
					c1.1-0.7,2.3-1.3,3.2-2.3c0.3-0.3,0.6-0.7,0.9-1.1c0,0,0.2-0.2,0.3-0.3c1.2,1,3-0.9,1.9-2.2c-1-1.1-2.4-1.1-3.6-0.2
					c-0.9,0.8-1.4,1.8-2.4,2.6c-1.2,0.9-2.5,1.5-3.7,2.3c-1.3,1-2.6,1.9-4.1,2.5C869.8,522.4,870.1,522.8,870.4,523.1z"/>
			</g>
			<g>
				<path class="st11" d="M850.1,544.1c0.1,0,0.1,0.1,0.2,0.1c0,0,0,0,0.1,0c0,0,0.1,0,0.1,0c0,0-0.1-0.1-0.1-0.1
					C850.2,544.1,850.1,544.1,850.1,544.1z"/>
			</g>
			<g>
				<path class="st11" d="M850,544.4c0.1,0,0.1-0.1,0.2-0.1c0,0,0,0,0-0.1c0,0,0-0.1,0-0.1c-0.1,0-0.2,0-0.2,0
					C849.9,544.2,849.8,544.5,850,544.4z"/>
			</g>
			<g>
				<path class="st11" d="M862.5,511c0,0.1,0.1,0.3,0.1,0.5c0.1-0.1,0.2-0.3,0.3-0.5C862.8,511,862.6,511,862.5,511z"/>
			</g>
			<g>
				<path class="st11" d="M862.5,511c0,0.1,0.1,0.3,0.1,0.5c0.1-0.1,0.2-0.3,0.3-0.5C862.8,511,862.6,511,862.5,511z"/>
			</g>
			<g>
				<path class="st11" d="M800.6,498.9v0.4c0.1,0,0.2-0.1,0.3-0.1C800.8,499.1,800.7,499,800.6,498.9z"/>
				<path class="st11" d="M794.5,499.8c0,0.6,0.3,1.2,1,1.4c0.2,0,0.4,0,0.6,0C795.7,500.7,795.1,500.2,794.5,499.8z"/>
			</g>
			<g>
				<path class="st11" d="M812,493.2c0.8,0,1.6-0.1,2.4-0.3c-0.3-0.1-0.6-0.2-1-0.1C812.9,492.9,812.4,493,812,493.2z"/>
				<path class="st11" d="M800.6,498.9v0.4c0.1,0,0.2-0.1,0.3-0.1C800.8,499.1,800.7,499,800.6,498.9z"/>
			</g>
			<g>
				<path class="st11" d="M855.2,524.1c0.3,0.3,0.6,0.7,0.9,1c0.1,0.1,0.2,0.2,0.3,0.2c0-0.2-0.1-0.3-0.3-0.5
					C855.8,524.5,855.5,524.3,855.2,524.1z"/>
				<path class="st11" d="M769.4,453.5c2-0.8,4-1.6,5.9-2.6c0.7-0.4,1.4-1,2.1-1.4c0.8-0.5,1.7-0.9,2.5-1.4c1.7-1,3.6-1.5,5.7-1.7
					c1.8-0.1,3.6-0.7,5.4-0.9c2-0.2,4-0.9,6-1.1c1-0.1,2-0.2,2.9-0.3c1-0.2,1.9-0.5,2.9-0.6c0.9-0.2,1.9-0.3,2.8-0.3
					c0.9,0,1.7-0.3,2.6-0.4c0.9-0.1,1.8,0.1,2.7,0c1-0.2,2-0.7,3-0.9c0.9-0.2,1.8-0.2,2.7-0.5c1-0.3,1.8-0.6,2.9-0.7
					c2.1-0.2,4.1-0.8,6.2-1.1c2.2-0.3,4.5,0,6.7-0.6c0.9-0.3,1.7-0.7,2.5-0.9c1-0.2,1.9-0.3,2.9-0.5c1.8-0.4,3.8-0.2,5.7-0.3
					c1.8-0.1,3.6,0.1,4.9,1.3c0.2,0.2,0.3,0.4,0.4,0.6c0.3,0.2,0.6,0.4,0.9,0.7c0.8,0.8,2,1.1,3,1.5c1,0.4,1.9,0.9,2.9,1.4
					c1.2,0.6,2.3,1,3.5,1.3c1.2,0.3,2.2,0.9,3.2,1.4c1,0.6,2.1,1,3.2,1.6c1,0.5,1.8,1.1,2.8,1.6c1.2,0.6,2.3,1.2,3.4,1.8
					c1.9,1.1,3.5,2.7,5.3,3.8c1,0.6,2.2,1,3.2,1.6c1.2,0.6,2.3,1.3,3.5,1.9c1.1,0.6,2.2,0.9,3.3,1.4c0.5,0.3,1,0.6,1.5,0.9
					c0.6,0.3,1.2,0.5,1.8,0.8c2.3,1,4.3,2.4,6.5,3.7c2.1,1.2,4,2.6,6.1,3.8c1,0.6,1.9,1.3,2.8,2c1,0.8,2,1.3,3.1,2
					c2.2,1.3,4.3,2.6,6.5,3.8c2.1,1.2,4.1,2.6,6.1,3.9c1,0.6,2,1.1,3.1,1.5c1.1,0.4,2.3,0.6,3.3,1c0.9,0.4,1.6,0.9,2.4,1.5
					c1,0.7,2.1,1.2,3,2.1c0.7,0.7,1.2,1.5,1.6,2.3c0.5,1,1.2,1.8,1.8,2.8c1.3,2.1,1.8,4.8,2.2,7.1c0.1,0.4,0.1,0.7,0.2,1.1
					c0.5-0.1,1,0.1,1.3,0.5c0.5,0.1,1,0.2,1.5,0.3c0.1,0,0.1,0,0.2,0c0.4,0.1,0.8,0.3,1.1,0.4c0,0,0,0,0,0s0,0,0,0
					c0.7,0.3,1.4,0.6,2,1c1.1,0.8,2.1,1.7,3,2.7c1.8,1.8,3.2,3.7,4,6.1c0.3,1.1,0.5,2.3,0.5,3.4c0,1.5,0.1,3.1-0.1,4.5
					c-0.2,1.1-0.6,2.1-0.8,3.3c-0.1,0.6-0.1,1.2-0.2,1.8c-0.2,0.8-0.5,1.6-0.6,2.5c-0.3,2.6-0.7,5.2-0.8,7.9
					c-0.1,1.2-0.6,2.4-0.8,3.6c-0.3,1.5-0.4,2.9-0.6,4.4c-0.2,1.4-0.3,2.7-0.3,4c0.1,1.3,0.2,2.7,0,4.1c-0.1,1.2-0.4,2.5-0.4,3.7
					v4.5c0,6,0,11.9,0.1,17.9c0,2.9-0.5,5.6-1,8.5c-0.5,2.8-0.3,5.6-0.3,8.4v9.1c0,2.9-0.2,5.7-0.4,8.6c-0.1,2.8,0.3,5.7-0.2,8.4
					c-0.2,1.4-0.7,2.7-0.8,4.1c-0.1,1.4,0,2.8,0.2,4.2c0.6,6.6,0.3,13.3,0.3,20c0,3.2,0,6.5,0,9.8c0,3.1-0.1,6.2,0.8,9.2
					c0.5,1.8-2.2,2.5-2.8,0.8c-0.8-2.7-0.9-5.4-0.9-8.2c0-2.8,0-5.6,0-8.4c0-5.8,0-11.6,0-17.4c0-2.8-0.4-5.6-0.5-8.4
					c0-1.4,0.1-2.8,0.4-4.2c0.3-1.4,0.6-2.6,0.7-4c0-1.3-0.1-2.6-0.1-4c0-1.6,0.1-3.1,0.2-4.7c0.2-2.9,0.2-5.8,0.2-8.6
					c0-5.6-0.4-11.4,0.7-16.9c0.5-2.8,0.7-5.4,0.6-8.2c-0.1-3,0-5.9,0-8.9v-9c0-1.2-0.1-2.4,0-3.6c0.1-1.4,0.5-2.7,0.5-4.1
					c0-1.3-0.1-2.6-0.1-3.9c0-1.4,0.3-2.8,0.5-4.2c0.2-1.3,0.3-2.7,0.6-4c0.2-1.2,0.6-2.3,0.6-3.6c0.1-1.6,0.5-3.2,0.6-4.7
					c0.2-1.4,0.2-2.8,0.6-4.2c0.4-1.4,0.4-2.8,0.8-4.1c0.4-1.4,0.5-2.7,0.5-4.2c0-1.4,0-2.8-0.4-4.1c-0.4-1.4-1-2.4-1.9-3.5
					c-0.9-1-1.8-2-2.9-2.9c-0.4-0.4-0.9-0.8-1.4-1.1h0c0,0-0.1,0-0.1-0.1c-0.4-0.2-0.8-0.4-1.2-0.5h0c0,0,0,0,0,0
					c-0.3-0.2-0.6-0.3-1-0.4c-0.5-0.1-1-0.2-1.5-0.2c0.2,1.2,0.4,2.5,0.5,3.7c0.3,2.8,0.2,5.7,0.1,8.6c-0.1,2.8-0.3,5.6,0,8.4
					c0.1,1.1,0.3,2.2,0.3,3.4c0,1-0.2,2.3,0.3,3.2c0.9,1.6-1.6,3.1-2.5,1.5c-1.1-1.9-0.5-3.9-0.7-6c-0.1-1.1-0.3-2.1-0.4-3.1
					c0-1.3,0-2.7,0.1-4c0-2.5,0.1-4.9,0.1-7.4c0-2.5-0.2-4.9-0.6-7.4c-0.4-2.4-0.7-4.9-1.4-7.3c-0.3-1.1-0.6-2.3-1.2-3.3
					c-0.5-1-1.3-1.9-1.9-2.9c-0.4-0.8-0.8-1.6-1.5-2.1c-0.4-0.3-1-0.6-1.4-0.9c-0.5-0.3-1-0.7-1.5-1.1c-0.8-0.6-1.6-0.8-2.5-1.1
					c-1.2-0.3-2.3-0.8-3.4-1.2c-2.2-1-4-2.5-6-3.7c-2.1-1.3-4.4-2.4-6.5-3.7c-2.1-1.3-4.2-2.5-6.1-4c-0.9-0.7-1.8-1.2-2.7-1.8
					c-1.1-0.6-2.1-1.4-3.1-2.1c-2-1.3-4.1-2.7-6.3-3.8c-1.1-0.6-2.2-1.1-3.3-1.5c-1.2-0.5-2.2-1.2-3.3-1.7c-2.5-0.9-4.7-2.4-7-3.5
					c-0.9-0.4-1.8-0.8-2.7-1.4c-1-0.6-1.9-1.4-2.8-2.1c-2.1-1.6-4.5-2.5-6.8-3.9c-1.1-0.7-2.2-1.2-3.4-1.9c-1.1-0.6-2.2-1.4-3.5-1.7
					c-1.3-0.4-2.5-0.7-3.7-1.3c-1.2-0.6-2.4-1.3-3.7-1.8c-1.1-0.5-2.3-0.8-3.3-1.6c-0.5-0.5-0.6-0.6-1.3-0.8
					c-0.6-0.2-1.2-0.5-1.7-0.9c-0.2-0.2-0.3-0.4-0.4-0.5c-0.7,0-1.5,0-2.1,0.1c-1.6,0.1-3.1-0.1-4.7,0.3c-0.8,0.2-1.6,0.1-2.3,0.3
					c-0.8,0.2-1.5,0.6-2.3,0.8c-1.8,0.6-3.8,0.7-5.6,0.7c-2,0-3.8,0.6-5.8,0.9c-0.9,0.2-1.9,0.2-2.8,0.3c-0.9,0.2-1.7,0.6-2.6,0.8
					c-0.9,0.2-1.7,0.2-2.6,0.5c-0.9,0.3-1.8,0.6-2.8,0.8c-0.9,0.1-1.7-0.1-2.5,0c-0.8,0.1-1.6,0.4-2.4,0.5c-0.9,0.1-1.8,0.1-2.7,0.2
					c-0.9,0.2-1.8,0.5-2.7,0.6c-1.9,0.3-3.8,0.5-5.7,0.9c-1.9,0.4-3.8,0.5-5.6,0.9c-0.9,0.2-1.7,0.5-2.6,0.6c-0.8,0.1-1.7,0-2.5,0.2
					c-1.8,0.4-3.3,1.4-5,2.2c-0.7,0.4-1.3,0.9-2,1.3c-0.8,0.5-1.7,0.9-2.6,1.3c-1.9,0.8-3.8,1.6-5.7,2.4c-0.8,0.3-1.6,0.7-2.4,1.1
					c-0.1-1-0.2-2-0.2-3C767.4,454.4,768.4,454,769.4,453.5z M756.2,510.6c0.2,0.2,0.4,0.4,0.6,0.6c0.3,0.3,0.5,0.7,0.8,1
					c0.1,0.1,0.3,0.2,0.5,0.4c0.2,0.1,0.4,0.3,0.6,0.4c0.5,0.5,0.9,1,1.3,1.4c0.1,0.1,0.2,0.2,0.3,0.3c0.7,0.6,1.4,1.2,2,1.8
					c0.6,0.5,1,1.3,1.5,1.9c0.4,0.4,0.7,0.9,1.1,1.3c0.3,0.3,0.5,0.6,0.8,1c0.4,0.5,0.7,1,1.1,1.5c0.2,0.3,0.4,0.5,0.6,0.8
					c0.4,0.5,0.8,1,1.3,1.5c0.2,0.2,0.4,0.4,0.6,0.7c1.2,1.5,2.5,2.8,3.6,4.3c1.1,1.5,2.3,2.9,3.4,4.3c0.5,0.6,0.8,1.4,1.3,2.1
					c0.5,0.7,1,1.3,1.6,1.9c1.2,1.4,2.2,2.9,3.3,4.5c1.1,1.5,2.4,2.8,3.5,4.3c1,1.5,1.9,3.2,2.9,4.8c0.5,0.7,1,1.4,1.4,2.2
					c0.5,0.8,0.7,1.7,1.3,2.4c1,1.3,2.1,2.5,3,3.9c0.7,0.9,1.4,1.8,2,2.7c0.6,0.9,1.1,1.8,1.8,2.6c1.3,1.7,2.6,3.2,3.6,5.1
					c1,1.8,1.8,3.8,3,5.4c1.2,1.7,2.8,3,4,4.7c0.3,0.4,0.3,0.8,0.2,1.1c0.7,1.8,1.2,3.6,1.4,5.5c0.3,2.1,0.9,4.1,1.2,6.2
					c0.4,2.2,0.7,4.4,0.9,6.6c0.1,1,0.3,2,0.4,3.1c0.2,1.2,0.1,2.3,0.3,3.5c0.4,2.1,0.7,4.2,1.2,6.3c0.2,0.9,0.6,1.8,0.9,2.7
					c0.3,1,0.4,2,0.6,3.1c0.2,0.9,0.6,1.8,0.8,2.7c0.2,1,0.4,2.1,0.6,3.2c0.4,2,1.5,3.8,2.4,5.5c1,1.8,2.3,3.2,3.4,4.9
					c0.5,0.7,0.7,1.5,1.2,2.2c0.6,0.8,1.2,1.6,1.7,2.5c1,1.8,1.9,3.5,3.3,5.1c1.4,1.5,2.5,3.2,3.6,4.8c0.5,0.8,1.1,1.4,1.6,2.1
					c0.6,0.8,0.9,1.8,1.5,2.6c1.2,1.6,2.5,3,3.8,4.5c0.7,0.7,1.5,1.2,2.2,1.9c0.7,0.7,1.3,1.3,2,1.9c0.7,0.6,1.3,1.4,1.9,2.1
					c0.7,0.8,1.4,1.7,2,2.5c0.7,1,1.3,2,2,3c0.8,1,1.6,1.9,2.3,2.9c1.3,1.8,2.2,3.9,3.2,5.8c0.5,1,1.3,1.7,1.9,2.7
					c0.6,1,1,2.1,1.5,3.2c0.5,1.1,1.1,2.1,1.5,3.2c0.1,0.3,0.2,0.6,0.3,0.9c0,0.2,0.1,0.3,0.1,0.5c0,0,0,0,0,0c0,0.3,0.2,0.2,0.1,0
					c1.3,0.6,1.1,2.8-0.6,2.7c-1.7-0.1-2.1-1.6-2.5-3c-0.3-1-0.9-1.8-1.3-2.7c-0.4-1-0.7-2-1.2-2.9c-0.5-0.9-1-1.5-1.6-2.3
					c-0.6-0.8-1.1-1.9-1.6-2.8c-1-2-2-3.7-3.4-5.4c-1.4-1.7-2.4-3.5-3.7-5.1c-0.6-0.8-1.3-1.5-1.9-2.3c-0.6-0.8-1.4-1.3-2.1-2
					c-0.7-0.7-1.3-1.4-2.1-2c-0.9-0.7-1.5-1.5-2.2-2.3c-1.3-1.4-2.8-2.9-3.6-4.6c-0.9-1.8-2.2-3.3-3.4-4.9c-0.6-0.8-1.1-1.7-1.8-2.5
					c-0.7-0.8-1.4-1.5-2-2.3c-1.2-1.7-1.9-3.7-3.2-5.3c-1.2-1.5-2-3.3-3.2-4.8c-1.3-1.6-2.4-3.3-3.3-5.2c-0.4-0.8-0.8-1.7-1.2-2.6
					c-0.4-1-0.6-2.1-0.8-3.2c-0.4-2-1-4-1.4-6c-0.4-2.1-1.3-4-1.7-6.2c-0.9-4.9-1.3-9.9-1.9-14.8c-0.3-2.5-1-4.9-1.5-7.4
					c-0.5-2.4-0.7-4.8-1.7-7.2c-0.1-0.2-0.2-0.5-0.2-0.7c-1-1.3-2.3-2.4-3.3-3.8c-1.2-1.5-1.9-3.3-2.8-4.9c-0.9-1.7-1.9-3.2-3.1-4.7
					c-1.2-1.6-2.3-3.3-3.5-4.8c-1-1.3-2.2-2.7-3.2-4.1c-0.5-0.7-1.1-1.3-1.5-2c-0.5-0.8-0.9-1.8-1.4-2.6c-1-1.6-2-3.2-3-4.8
					c-0.9-1.6-2-3.1-3.2-4.4c-1-1.1-1.8-2.3-2.6-3.5c-0.6,0.3-1.4,0.3-2.2,0.3c-1,0-2,0.5-3,0.5c-1.2,0.1-2.3-0.1-3.5,0.1
					c-1,0.2-2,0.2-2.9,0c0.2-0.9,0.3-1.8,0.5-2.8c0.9,0.2,1.6,0.1,2.5,0c1-0.2,2-0.1,3,0c0.8,0,1.5-0.3,2.3-0.5c0.3,0,0.9,0,1.4,0
					c-0.7-0.9-1.5-1.7-2-2.7c-0.9-1.6-2.2-2.9-3.3-4.4c-0.9-1.2-1.9-2.4-2.9-3.6c-0.3-0.3-0.5-0.6-0.8-0.9c-0.3-0.4-0.7-0.8-1-1.2
					c-0.6-0.8-1.2-1.5-1.9-2.3l-0.1-0.1l-1.5-1.8l-1.3-1.6c-0.5-0.6-0.9-1.1-1.4-1.7c-0.2-0.3-0.5-0.5-0.8-0.8v0
					c-0.3-0.2-0.6-0.5-0.9-0.8c-0.3-0.3-0.6-0.6-0.9-0.9c-0.4-0.3-0.7-0.7-1-1.1c-0.2-0.3-0.5-0.5-0.7-0.7c0,0,0,0.1-0.1,0.1
					C756.2,513.4,756.2,512,756.2,510.6z M767.7,474c0.1,0,0.1,0,0.2,0.1c1.1,0.4,2.2,0.8,3.2,1.4c0.8,0.4,1.7,0.9,2.4,1.3
					c0.2-0.3,0.6-0.6,1.1-0.6c1.4,0,2.7,0.2,4.1-0.3c1.4-0.5,2.9-1,4.3-1.5c2.6-0.9,5.1-2,7.8-2.5c-0.2-1.1-0.5-2.2-1-3.2
					c-0.8-1.7,1.7-3.1,2.5-1.5c0.7,1.4,1.1,2.9,1.4,4.4c0,0,0.1,0,0.1,0.1c2,1.9,5.3,1.4,7.8,1.8c1.5,0.2,2.8,0.9,4.4,0.8
					c1.5,0,3-0.4,4.5-0.5c1.5-0.1,2.9-0.4,4.4-0.5c1.6-0.1,3.1-0.1,4.6-0.4c1.5-0.2,3.2,0,4.7-0.3c1.4-0.3,2.7-1,3.7-1.9
					c0.2-0.2,0.4-0.3,0.6-0.3c0-0.1-0.1-0.2-0.2-0.2c-1.3-1.4,0.8-3.4,2-2c0.8,0.9,1.3,2.1,1.9,3.1c0.8,1.1,1.9,1.9,3,2.6
					c1.2,0.8,2.2,1.6,3.3,2.5c1.2,0.9,2.5,1.4,3.7,2.4c1,0.8,1.8,1.9,2.9,2.6c1.2,0.8,2.4,1.7,3.5,2.6c1,0.9,2,1.9,3.1,2.8
					c1.1,0.9,2.3,1.6,3.4,2.5c1.2,1,2.2,2.2,3.4,3.2c1,0.9,2.1,1.6,3,2.5c0.1-0.7,0.2-1.3,0.2-2c0-1.8,2.9-1.8,2.9,0
					c0,2.8-1.3,5.5-0.8,8.4c0.2,1.3,0.3,2.5,0.3,3.9c0,1.4,0.4,2.8,0.8,4.1c0.8,2.4,1.7,4.8,2.5,7.3c0.5,1.8,1.1,3.6,2.1,5.2
					c0.2,0.4,0.5,0.7,0.8,1c0.5,0.5,0.5,1.1,0.2,1.6c-0.5,0.2-0.9,0.4-1.3,0.7c-0.1,0.1-0.2,0.1-0.2,0.2c-1.1,0.8-1.8,2-2.8,3
					c-1.2,1.1-2.7,1.8-4,2.7c-2.6,1.8-4.5,4.3-7.3,5.8c-0.2,0.1-0.5,0.2-0.7,0.2c-0.1,0.2-0.2,0.3-0.3,0.5c-0.7,0.8-1.3,1.7-1.8,2.6
					c-0.4,0.7-0.9,1.3-1.2,2.1c-0.2,0.6-0.4,1.2-0.6,1.7c-0.1,0-0.2,0-0.2,0c-0.2,0.1-0.3,0.4-0.1,0.3c0.1,0,0.1-0.1,0.2-0.1
					c0,0,0.1,0,0.1,0c0,0,0.1,0,0.1,0c0,0,0,0,0.1,0c0.4-0.1,0.7-0.2,1-0.3c0.6-0.1,1.1,0,1.7-0.1c0.5-0.1,1-0.2,1.5-0.3
					c1-0.1,1.9-0.7,3-0.8c1.1-0.2,2.2-0.5,3.4-0.5c1.9,0,1.9,2.8,0,2.9c-1.2,0-2.7,0.3-3.9,0.7c-1.2,0.4-2.4,0.6-3.6,0.9
					c-0.6,0.1-1.3,0-1.9,0.1c-0.4,0.1-0.7,0.3-1.1,0.4c-0.2,0-0.4,0.1-0.5,0.1c0.2,0.2,0.4,0.3,0.6,0.5c2.1,1.5,4.3,2.8,6.2,4.5
					c1.9,1.6,4,2.8,6,4.1c2.3,1.4,4.3,3.1,6.4,4.6c1.5,1.1,0.1,3.5-1.4,2.5c-1.9-1.3-3.6-2.8-5.5-4.1c-1.9-1.2-3.8-2.3-5.6-3.6
					c-0.9-0.6-1.7-1.3-2.5-2c-0.9-0.7-1.9-1.3-2.8-1.9c-1.9-1.3-3.6-2.6-5.3-4.1c-1.7-1.4-3.8-2.2-5.7-3.4c-1.9-1.2-3.7-2.4-5.4-3.8
					c-0.8-0.7-1.7-1.2-2.4-1.9c-0.8-0.8-1.7-1.6-2.6-2.4c-1.6-1.6-3.4-3.1-5-4.7c-1.6-1.6-3.3-3-4.8-4.8c-1.4-1.7-2.6-3.6-4.2-5.1
					c-0.8-0.7-1.5-1.5-2.2-2.2c-0.8-0.9-1.6-1.9-2.5-2.8c-1.6-1.5-3.4-2.9-4.9-4.6c-0.8-0.9-1.6-1.7-2.4-2.6
					c-0.7-0.8-1.3-1.6-2.1-2.4c-0.7-0.7-1.3-1.4-2.1-2.1c-0.8-0.7-1.6-1.5-2.3-2.3c-0.5-0.5-0.9-1-1.5-1.4c-0.5-0.5-1.1-1-1.7-1.4
					c-0.7-0.6-1.4-1.2-2.1-1.8c-1.7-1.6-3.2-3.5-4.8-5.2c-1.7-1.8-3.5-3.4-5.2-5.2c-0.8-0.9-1.9-1.4-2.8-2.1
					c-0.8-0.7-1.6-1.6-2.5-2.2c-1-0.7-2.1-1.4-3-2.3c-0.8-0.8-1.7-1.5-2.8-2.1c-1-0.5-2-0.9-3.1-1.4c-0.2-0.1-0.3-0.2-0.5-0.2
					c-0.6-0.3-1.3-0.5-1.9-0.7c0-1-0.1-2-0.2-2.9C766.5,473.7,767.1,473.8,767.7,474z M862.5,511c0,0.1,0.1,0.3,0.1,0.5
					c0.1-0.1,0.2-0.3,0.3-0.5C862.8,511,862.6,511,862.5,511z M833.8,535.7c3.3,3,7,5.6,10.9,7.7c0.2,0.1,0.3,0.2,0.5,0.2
					c0.3-0.4,0.8-0.6,1.4-0.5l0,0c0,0,0,0-0.1,0h0.1l0,0c0.3-0.3,0.7-0.5,1.2-0.4c0.1-0.2,0.1-0.3,0.2-0.5c0.2-0.6,0.4-1.2,0.7-1.8
					c0.9-1.6,2-3.3,3.2-4.7c0.3-0.4,0.6-0.5,1-0.5c0.1-0.2,0.3-0.5,0.6-0.6c2-1.1,3.7-2.8,5.5-4.3c-0.8-0.5-1.8-0.8-2.6-1.3
					c-1-0.7-2-1.5-2.9-2.4h0c-0.5-0.1-1,0-1.6-0.1c-0.5-0.1-1-0.3-1.5-0.3c-0.5-0.1-0.9,0.1-1.3,0.3c-2.4,0.9-4.9,1.3-7.4,1.4
					c-1.3,0-2.5,0.3-3.7,0.6c-1.3,0.2-2.7,0.4-4,0.8c-0.5,0.1-1.1,0.3-1.6,0.3c-0.5,0-1-0.1-1.5,0c-0.4,0.1-0.8,0.2-1.2,0.3
					c-0.1,0-0.5,0.2-0.5,0.2c0,0-0.1,0-0.1,0.1c0,0,0,0,0,0c-0.1,0.3-0.3,0.5-0.6,0.6C830.1,532.3,832,534,833.8,535.7z
					 M826.4,528.8c0,0,0-0.1,0-0.2c0.4-1,1.7-1.4,2.6-1.7c0.4-0.1,0.8-0.2,1.3-0.3c0.7-0.1,1.4,0,2.1-0.1c0.7-0.1,1.4-0.4,2.1-0.5
					c0.8-0.2,1.5-0.3,2.3-0.4c1.5-0.3,3-0.7,4.5-0.8c1.4,0,2.8-0.1,4.2-0.5c1.3-0.3,2.6-1,4-1.2c0,0,0.1,0,0.1,0
					c-0.2-0.2-0.5-0.3-0.7-0.3c-1.1,0.1-1.5-0.9-1.3-1.7c-0.9,0.1-1.7,0.2-2.6,0.2c-1.2,0.1-2.3,0.1-3.5,0.2
					c-1.2,0.1-2.3,0.4-3.4,0.4c-0.5,0-1-0.1-1.5,0s-1,0.3-1.5,0.4c-0.5,0.1-1,0.1-1.5,0c-0.6,0-0.6,0.1-1,0.5
					c-0.7,0.7-1.6,0.9-2.5,1.3c-2,0.7-3.9,1.6-6,2c0,0,0,0,0,0.1C824.8,527.2,825.6,528,826.4,528.8z M800.7,501.7
					c0.8,0.8,1.6,1.4,2.3,2.2c0.7,0.8,1.5,1.4,2.2,2.2c1.5,1.8,3,3.7,4.8,5.3c1.6,1.4,3.2,2.9,4.7,4.5c1.6,1.8,3.4,3.3,4.8,5.1
					c0.8,1,1.6,2,2.4,3c0.2-0.2,0.4-0.3,0.6-0.4c2.4-0.4,4.5-1.5,6.8-2.2c0.4-0.1,0.8-0.2,1.1-0.4c0.4-0.3,0.6-0.7,1-0.9
					c0.5-0.3,1-0.5,1.6-0.5c0.5,0,1,0.1,1.6,0c1.1-0.3,2-0.5,3.2-0.4c1.2,0,2.3-0.2,3.5-0.3c1.2-0.1,2.4-0.1,3.6-0.2
					c1.2-0.1,2.4-0.3,3.7-0.3c1.1,0,1.5,1,1.3,1.8c0.9,0.2,1.6,0.8,2.2,1.5c0.7,0.8,1.7,1,2.5,1.7c0.2,0.2,0.4,0.5,0.6,0.7
					c0.3,0.3,0.6,0.7,0.9,1c0.1,0.1,0.2,0.2,0.3,0.2v0c0,0,0,0,0,0c0.5,0.4,1,0.9,1.6,1.2c1.1,0.7,2.3,1.1,3.4,1.9
					c0.1-0.1,0.2-0.2,0.4-0.2c1.4-0.9,2.6-1.7,3.7-3c0.6-0.7,1.2-1.2,1.8-1.7c-0.9-1.5-1.6-3.2-2.1-5c-0.4-1.3-0.8-2.6-1.3-3.9
					c-0.4,0-0.8-0.1-1.1-0.4c-0.3-0.3-0.6-0.6-0.9-0.9c-0.3-0.3-0.5-0.9-0.4-1.3c-0.4,0-0.9-0.2-1.1-0.7c-1.2-2-3.6-2.7-5.4-3.9
					c-1.1-0.8-2.2-1.5-3.4-2.3c-1.2-0.7-2.6-1.5-3.5-2.5c-0.4-0.4-0.7-0.9-1.2-1.2c-0.6-0.4-1.2-0.7-1.9-1c-1.1-0.6-2.2-1.4-3.3-2.1
					c-2.2-1.4-4.5-2.6-6.2-4.6c-0.1-0.1-0.1-0.2-0.2-0.2c-0.7,0.2-1.5,0.5-2.2,0.6c-1.3,0.2-2.6,0.1-3.9,0.1c-1.1,0-2.3-0.3-3.3,0
					c-0.5,0.1-0.9,0.4-1.4,0.5c-0.7,0.1-1.4,0.1-2.1,0.2c-1.3,0.2-2.5,0.2-3.8,0.3c-1.3,0-2.5,0.4-3.8,0.6c-0.7,0.1-1.4,0.2-2,0.3
					c-0.6,0.3-1.1,0.5-1.7,0.8c-1.2,0.5-2.5,0.3-3.7,0.5c-1.1,0.2-2.6,0.6-3.6,1.3c-0.5,0.4-0.9,0.9-1.4,1.3c-0.3,0.2-0.6,0.4-1,0.6
					c-0.1,0.4-0.3,0.7-0.7,1C800.6,501.6,800.7,501.7,800.7,501.7z M800.9,499.2c-0.1-0.1-0.2-0.2-0.3-0.3v0.4
					C800.7,499.3,800.8,499.2,800.9,499.2z M781.3,483c0.7,0.7,1.6,1.2,2.3,1.8c0.9,0.7,1.6,1.7,2.4,2.5c1.6,1.6,3.4,3.2,4.9,4.9
					c1.6,1.8,3.2,3.5,5,5.1c0.2,0.2,0.5,0.4,0.7,0.6c0.6-0.1,1.1-0.3,1.7-0.6c0.9-0.4,1.8-0.9,2.7-1.3c1.4-0.6,3.2-0.9,4.4-2
					c0.1-0.1,0.2-0.1,0.2-0.2h0c0.2-0.4,0.6-0.7,1.2-0.7c1.7,0,3.5,0.1,5.1,0.1c0,0,0,0,0,0c0.8,0,1.6-0.1,2.4-0.3c0,0,0,0,0,0
					c2.6-0.6,5.2-0.6,7.8-0.9c0.6-0.1,1.2,0,1.8-0.2c0.5-0.1,0.9-0.4,1.4-0.4c1.2-0.2,2.3,0,3.5,0c1.2,0,2.6,0.2,3.8-0.1
					c1.2-0.2,2.4-0.7,3.6-0.8c1.1-0.1,1.5,0.8,1.3,1.7c1.6,1.7,3.8,2.8,5.8,4.1c1.2,0.8,2.4,1.6,3.7,2.2c0.6,0.3,1.2,0.6,1.7,1
					c0.5,0.4,0.8,0.9,1.3,1.3c1.1,1,2.4,1.6,3.6,2.4c1.1,0.7,2.2,1.5,3.4,2.2c1.7,1,3.4,1.8,4.7,3.2c-0.2-0.7-0.3-1.5-0.4-2.2
					c-0.2-1.4,0-2.8-0.3-4.2c-0.2-1.3-0.2-2.6,0-4c-0.3,0-0.7-0.1-1-0.5c-0.9-1-2-1.8-3-2.6c-1-0.9-1.9-2-2.9-2.9
					c-1-1-2.3-1.6-3.4-2.5c-1.1-0.9-2.1-1.8-3.1-2.8c-2.1-1.9-4.4-3.3-6.5-5.3c-1-1-2.3-1.6-3.5-2.3c-1.2-0.8-2.1-1.8-3.3-2.5
					c-1.3-0.8-2.7-1.7-3.7-2.9c-0.3-0.3-0.5-0.6-0.7-1c-1.1,1.1-2.5,1.8-4,2.3c-1.7,0.6-3.4,0.5-5.1,0.6c-1.7,0.1-3.4,0.5-5.1,0.5
					c-1.7,0-3.4,0.4-5.1,0.5c-1.7,0.1-3.3,0.5-5.1,0.5c-1.7,0-3.1-0.8-4.8-1c-2.8-0.3-5.8-0.2-8.1-2c0.2-0.2,0.4-0.4,0.4-0.7
					c0,0-0.1,0-0.1,0.1c-0.4,0.1-0.8,0-1.2-0.2c0,0.1,0.1,0.2,0.2,0.3c0.2,0.2,0.4,0.4,0.7,0.6c-0.2,0.1-0.4,0.2-0.6,0.2
					c-3,0.5-5.7,1.7-8.5,2.7c-1.5,0.5-2.9,1.1-4.3,1.5c-0.9,0.2-1.8,0.3-2.6,0.3C778,480.5,779.9,481.5,781.3,483z M756.2,510.6
					c0.2,0.2,0.4,0.4,0.6,0.6c0.3,0.3,0.5,0.7,0.8,1c0.1,0.1,0.3,0.2,0.5,0.4c0.2,0.1,0.4,0.3,0.6,0.4c0.5,0.5,0.9,1,1.3,1.4
					c0,1.2-0.1,2.5-0.2,3.7c-0.3-0.2-0.6-0.5-0.9-0.8c-0.3-0.3-0.6-0.6-0.9-0.9c-0.4-0.3-0.7-0.7-1-1.1c-0.2-0.3-0.5-0.5-0.7-0.7
					c0,0,0,0.1-0.1,0.1C756.2,513.4,756.2,512,756.2,510.6z"/>
				<path class="st11" d="M739,503.2c-0.3-1.3,0.4-2.2,1.5-2.9c0.4-0.3,0.5-0.3,0.8-0.7c0.4-0.6,0.7-1.2,1.1-1.7
					c0.1-0.1,0.2-0.2,0.3-0.3c-0.1-0.3-0.3-0.5-0.4-0.8c-0.4-0.9-0.6-1.8-0.7-2.8c0-0.5-0.2-0.8-0.3-1.2c-0.1-0.6,0.1-1.1,0.2-1.6
					c0-0.2,0.1-0.3,0.2-0.4c0,0,0,0,0,0c0,0,0,0,0,0h0c-0.2-0.1-0.3-0.3-0.4-0.4c-0.4-0.6-0.5-1.3-0.7-2c-0.3-0.9-0.3-1.9-0.3-2.9
					c0.1-1.7-0.2-3.5,0.5-5.2c0.3-0.8,0.9-1.4,1.3-2.1c0.4-0.7,0.7-1.5,1.1-2.2c0.3-0.7,0.8-1.2,1.4-1.7c-0.3-0.2-0.5-0.5-0.5-1
					c-0.1-0.8-0.9-1.4-1.4-2.1c-0.2-0.3-0.3-0.6-0.4-0.9c-0.1-0.2-0.2-0.3-0.2-0.5c0,0,0-0.1,0-0.1c0,0,0,0,0.1,0c0,0,0,0-0.1,0l0,0
					c0-0.1-0.1-0.1-0.1-0.1c-1.2-1,0.1-3.1,1.6-2.4c-0.1-1.2-0.1-2.4,0.9-3.4c1-1,2.5-1.7,3.7-2.4c1.7-1,3.5-1.6,5.4-2.1
					c0.1,1,0.2,1.9,0.2,2.9c-0.3,0.1-0.7,0.2-1,0.3c-1.8,0.5-3.3,1.5-4.9,2.4c-0.3,0.2-0.7,0.4-1,0.6c-0.1,0.1-0.2,0.1-0.2,0.2
					c-0.1,0.1-0.3,0.4-0.3,0.3c-0.2,0.6,0.1,1.5,0.1,2.1c0,0.9-0.7,1.4-1.4,1.4c0,0.1,0.1,0.1,0.1,0.2c0.3,0.6,0.9,1,1.2,1.6
					c0.2,0.4,0.4,0.8,0.5,1.2c0.1-0.1,0.2-0.1,0.3-0.2c1.6-0.8,3.5-1,5.3-1c0.7,0,1.4,0,2.1,0c0.7,0,1.3,0,1.9,0.1
					c0.6,0,1.2,0.1,1.8,0.3c0.1,0,0.1,0,0.2,0c1.4,0.3,3,0.7,4,1.7c0.1,0,0.2-0.1,0.4-0.1h1.4c0.2,0,0.5,0.1,0.7,0.2
					c0.3,0,0.6,0,0.8,0.1c0.1,1,0.1,2,0.2,2.9c-0.1,0-0.1,0-0.2,0c-0.2-0.2-0.4-0.4-0.6-0.6c-0.2,0.2-0.5,0.3-0.9,0.3h-0.1
					c0.2,0.1,0.4,0.2,0.7,0.2c0.3,0,0.6,0,0.9,0.1c0.1,0.1,0.2,0.2,0.2,0.3c0.1,0.1,0.2,0.2,0.3,0.3c0.5,0.7,1.1,1.4,1.7,2
					c0,0,0.1,0.1,0.1,0.1c0.8,0.8,1.5,1.4,2.2,2.2c0.6,0.8,1.5,1.4,2.1,2.2c0.6,0.8,1.1,1.7,1.6,2.5c1,0.2,1.8,1.5,0.8,2.4
					c-0.4,0.4-0.4,1.1-0.5,1.6c-0.2,0.8-0.7,1.4-1.1,2c-0.8,1.4-1.6,2.7-2.7,3.8c-0.5,0.5-0.9,1.2-1.4,1.8c-0.1,0.2-0.3,0.3-0.4,0.5
					c-0.5,0.5-1,1-1.5,1.4c-0.1,0.1-0.3,0.3-0.4,0.4c-0.7,0.7-1.3,1.3-1.9,2c-0.4,0.4-0.7,0.8-1.1,1.2c-0.9,1.1-2.3,2-3.8,2
					c0,0,0,0,0,0c-0.7,0-1.3,0-1.9-0.1c-0.7,0-1.3-0.2-1.9-0.5c-0.2-0.1-0.4-0.2-0.6-0.4c-2.7-2.3-5.6-4.3-8.4-6.4
					c-0.8-0.6-1.6-1.4-2.2-2.2c0.1,0.2,0.2,0.4,0.3,0.6c0.9,1.5,2,2.8,3.1,4.2c0.6,0.7,1.2,1.4,1.7,2.1c0.5,0.8,0.9,1.6,1.5,2.4
					c1.1,1.5,2.2,2.8,3.4,4.1c0.4,0.4,0.8,0.9,1.1,1.3c0,1.4-0.1,2.8-0.1,4.1c-0.2,0.2-0.5,0.4-1,0.4c-1.8,0-3.6,0.1-5.4-0.2
					c-1.9-0.3-3.4-1.2-4.9-2.4c-2.6-2.2-5.3-4.9-5.9-8.4c0-0.3,0-0.5,0-0.8C739,503.3,739,503.3,739,503.2z M745.8,492.2
					c0.8,1.1,1.7,2.2,2.7,3.1c1.1,1,2.5,1.8,3.7,2.7c1.3,1,2.6,2,3.9,3c0,0,0.1,0,0.1,0.1c0.5,0.4,0.9,0.9,1.5,1.2
					c0.2,0.1,0.3,0.2,0.5,0.2c0.4,0.1,0.9,0,1.3,0c0.2,0,0.4,0,0.6,0c0.3,0,0.5-0.1,1-0.4c0.5-0.4,0.9-0.8,1.3-1.3
					c0.8-1,1.6-1.8,2.5-2.7c0.2-0.2,0.5-0.5,0.8-0.7c0.4-0.4,0.8-0.8,1.2-1.3c0.5-0.7,1.1-1.3,1.7-1.9c0.1-0.1,0.1-0.1,0.2-0.2
					c1-1.1,1.6-2.3,2.4-3.6c0.4-0.6,0.6-1,0.7-1.7c0-0.2,0.1-0.4,0.2-0.6c-0.1-0.1-0.2-0.2-0.3-0.4c-0.4-0.6-0.8-1.3-1.2-1.9
					c-0.5-0.7-1-1.1-1.6-1.7c-0.2-0.2-0.4-0.5-0.6-0.8c-0.2-0.3-0.5-0.7-0.8-0.9c-0.4-0.4-0.8-0.7-1.2-1.1c-0.2-0.2-0.3-0.3-0.5-0.5
					c-0.5-0.6-1-1.2-1.5-1.8c-0.5-0.5-0.9-1-1.4-1.5c-0.5-0.5-1.1-0.9-1.6-1.4c-0.5-0.5-0.8-0.9-1.4-1.1c-0.3-0.1-0.7-0.2-1-0.3
					c-0.7-0.2-1.3-0.3-2-0.4c-0.4-0.1-0.7-0.1-1.1-0.1c-0.3,0-0.5-0.1-0.8-0.1c-1.4-0.1-2.9-0.1-4.2,0.1c-0.7,0.1-1.5,0.4-2.1,0.6
					c-0.6,0.3-1.3,1-1.8,1.4c-1.1,0.9-1.3,2.3-2.1,3.5c-0.4,0.7-1,1.3-1.2,2.1c-0.2,0.8-0.1,1.6-0.1,2.4c0,0.9-0.1,1.8,0,2.6
					c0,0.3,0.1,0.7,0.2,1v0c0.4,0.2,0.6,0.5,0.7,0.9C744.4,490,745.2,491.2,745.8,492.2z M741.7,503.3c0.5,3,2.7,5.1,4.9,7
					c1.2,1,2.3,1.6,3.8,1.8c1.1,0.2,2.2,0.1,3.4,0.1c-0.2-0.2-0.4-0.4-0.6-0.6c-0.6-0.7-1.3-1.4-1.9-2.1c-0.7-0.8-1.3-1.7-1.9-2.6
					c-0.7-0.8-1.1-1.8-1.7-2.7c-0.6-0.9-1.3-1.7-2-2.5c-0.5-0.6-0.9-1.1-1.4-1.7c-0.5,0.7-0.8,1.5-1.5,2.1c-0.3,0.2-0.6,0.4-0.9,0.6
					c0,0-0.1,0.1-0.2,0.1c0,0.1,0,0.2-0.1,0.3C741.7,503.3,741.7,503.3,741.7,503.3z"/>
			</g>
			<g>
				<path class="st11" d="M941.2,503.1c0.1,0,0.1,0.1,0.2,0.1c0.2,0.1,0.5,0.2,0.7,0.3C941.9,503.2,941.6,503.1,941.2,503.1z"/>
			</g>
			<g>
				<path class="st11" d="M943.4,504c-0.4-0.2-0.8-0.4-1.2-0.5c0.1,0,0.2,0.1,0.3,0.2C942.8,503.9,943.2,504,943.4,504
					C943.5,504,943.5,504,943.4,504z"/>
				<path class="st11" d="M942,500.3c0.1,0,0.1,0,0.2,0c0.4,0.1,0.8,0.3,1.1,0.4c-0.4-0.2-0.8-0.3-1.2-0.5
					C942.1,500.3,942.1,500.3,942,500.3z"/>
			</g>
		</g>
	</g>
</g>
<path class="st1" d="M540,201c-24.8,0-45,20.1-45,45c0,24.8,20.2,45,45,45s45-20.2,45-45C585,221.1,564.8,201,540,201z M546.6,269.2
	c-1.8,0.2-4.3,0.3-6.6,0.3c-1.3,0-2.4-0.1-3.3-0.2c-0.8-0.2-1.3-0.4-1.3-1.4c0-7.6,0.7-20.5,0.7-29.9c0-4.9-1.3-6.2-3.7-7.8
	c-0.6-0.4-0.8-0.8-0.8-1.3c0-0.5,0.2-0.9,0.6-1.3c2-2,7.4-4.9,13.1-4.9c1.4,0,2.9,0.6,2.9,2.1c0,1.7-0.8,9.7-0.8,17.1
	c0,9.6,0.8,19.5,1,25.7C548.4,268.6,548.1,268.9,546.6,269.2z"/>
</svg>
