<?xml version="1.0" encoding="utf-8"?>
<!-- Generator: Adobe Illustrator 25.2.1, SVG Export Plug-In . SVG Version: 6.00 Build 0)  -->
<svg version="1.1" id="Capa_1" xmlns="http://www.w3.org/2000/svg" xmlns:xlink="http://www.w3.org/1999/xlink" x="0px" y="0px"
	 viewBox="0 0 1080 1080" style="enable-background:new 0 0 1080 1080;" xml:space="preserve">
<style type="text/css">
	.st0{fill:#08333D;}
	.st1{fill:#D54543;}
	.st2{fill:#F2F9FB;}
	.st3{fill:none;}
	.st4{fill:#F2F9FB;stroke:#08333D;stroke-width:8.5039;stroke-miterlimit:10;}
	.st5{opacity:0.7;fill:#D54543;}
	.st6{fill:none;stroke:#08333D;stroke-width:5.6693;stroke-miterlimit:10;}
	.st7{fill:none;stroke:#A4C1C1;stroke-miterlimit:10;}
	.st8{opacity:0.5;fill:#A4C1C1;}
	.st9{fill:none;stroke:#08333D;stroke-width:8.5039;stroke-miterlimit:10;}
	.st10{opacity:0.5;}
	.st11{fill:#A0B9BA;}
	.st12{fill:#A4C1C1;}
	.st13{opacity:0.7;}
	.st14{opacity:0.91;}
	.st15{fill:none;stroke:#D54543;stroke-width:1.4173;stroke-miterlimit:10;}
	.st16{fill:none;stroke:#D54543;stroke-width:14.1732;stroke-miterlimit:10;}
</style>
<g>
	<g class="st10">
		<g>
			<path class="st11" d="M733.8,503.7c-1-0.2-3.9-0.9-9.3,8.6c-3.4-38-19.6-73.3-46.4-100.5C647.7,381,606.9,364,563.3,364
				c-43.6,0-84.4,17-114.9,47.9c-27.1,27.5-43.3,63.2-46.5,101.7c-5.9-10.9-9-10.2-10-9.9c-3.1,0.7-3.4,4.7-3.4,8.5
				c0.1,9.8,1.5,16.3,2.6,21.5c0.9,4.3,1.6,7.6,1.5,11.5c-0.1,3.9,0.8,9.2,2.4,13.9c1.4,4,3.7,9,7.2,10.1c0.3,0.1,0.9,0.2,1.5,0.2
				c1,0,2.2-0.3,3.5-1.5c9.1,34.3,28.4,73.8,55.3,112.2c36.5,52,76,85.5,100.7,85.5s64.2-33.6,100.7-85.5
				c26.8-38.1,46-77.4,55.2-111.6c1,0.7,2,0.9,2.8,0.9c0.6,0,1.2-0.1,1.5-0.2c3.5-1.1,5.8-6.1,7.2-10.1c1.6-4.7,2.5-10,2.4-13.9
				c-0.1-3.9,0.6-7.3,1.5-11.5c1.1-5.2,2.5-11.8,2.6-21.5C737.3,508.5,736.9,504.5,733.8,503.7z M730,532.8
				c-0.9,4.4-1.7,8.2-1.6,12.7c0.2,7.9-4.3,19.2-6.4,19.4c-0.1,0-0.4-0.2-0.8-0.7l-0.6-1.3l-0.9-2.2c-0.7-1.6-3.1-1.4-3.5,0.3
				c-0.2,0.7-0.4,1.5-0.5,2.2c-3,11.9-7.2,24.7-12.8,37.9c-10.6,25.2-25.3,51.6-42.8,76.4c-35.1,50-74,83.5-96.8,83.5
				c-22.8,0-61.8-33.6-96.8-83.5c-17.4-24.8-32.2-51.2-42.8-76.4c-5.5-13.2-9.9-26-12.8-37.9l-0.6-2.6c-0.3-1.4-2.1-1.7-2.9-0.5
				l-1.5,2.3l-1.2,1.7c-0.5,0.7-0.8,0.9-0.9,0.9c-2.2-0.2-6.7-11.5-6.5-19.4c0.1-4.5-0.7-8.2-1.6-12.7c-1.1-5.3-2.4-11.3-2.6-20.6
				c0-1.4,0-2.4,0.1-3.1c1.7,1.9,4.4,6.3,6.6,10.9c0,0,0.1,0.1,0.1,0.2l1.3,2.4l1.6,2.7c0.9,1.5,3.2,0.9,3.2-0.8
				c0-1.2,0-2.3,0.1-2.9c1.5-40.3,17.5-77.9,45.6-106.4c29.6-30,69.2-46.5,111.5-46.5c42.3,0,81.9,16.5,111.5,46.5
				c27.7,28.1,43.7,65.1,45.6,104.7c0,1,0.3,2.3,0.5,3.4c0.3,1.2,1.8,1.5,2.5,0.5l1.8-2.6l0.6-0.9c0.1-0.1,0.1-0.2,0.2-0.3
				c2.2-4.6,4.9-9.1,6.6-10.9c0.1,0.7,0.1,1.6,0.1,3.1C732.4,521.5,731.1,527.5,730,532.8z"/>
		</g>
	</g>
	<g class="st10">
		<g>
			<g>
				<path class="st11" d="M583.7,636c-2.7,0-6.2-0.1-10.4-0.2c-4.4-0.1-9.4-0.2-14.1-0.2h-22.5c-0.3,0-0.5,0-0.7-0.1
					c-4.6-1.5-3.5-10.4,0.6-35.5c1.6-9.9,3.3-20,3.6-26.6c2.4-50.5-1.5-60.3-3.3-62.2c-4.3-4.6-11.2-4-11.3-4c-0.1,0-0.3,0-0.4,0
					c-0.2,0-23.3-1.6-44.4,0c-21.2,1.6-42.4,4.7-42.6,4.7c-1.3,0.2-2.5-0.7-2.7-2c-0.2-1.3,0.7-2.5,2-2.7c0.2,0,21.6-3.1,42.9-4.8
					c20.5-1.6,42.7-0.2,44.9,0c1.5-0.1,9.5-0.4,15,5.5c1.8,1.9,7.3,7.8,4.5,65.7c-0.3,6.9-2,17.2-3.7,27.2
					c-1.7,10.6-4.3,26.3-3.4,30.1h21.4c4.8,0,9.8,0.1,14.2,0.2c6.4,0.1,12.6,0.3,15.4,0c0.4-3.5-1.4-15.4-2.8-25
					c-1.7-11.8-3.5-24.1-3.5-31.7l0-1.5c0-32.4,2.1-69.7,18.5-70.5c0.2,0,23.5-1.6,45,0c21.4,1.6,42.7,4.7,42.9,4.8
					c1.3,0.2,2.2,1.4,2,2.7c-0.2,1.3-1.4,2.2-2.7,2c-0.2,0-21.4-3.1-42.6-4.7c-21.1-1.6-44.1,0-44.4,0c-7.5,0.4-10.8,16.2-12.1,25.6
					c-2,14.5-2,31.2-2,40.2l0,1.5c0,7.2,1.9,19.9,3.5,31c3.6,24.4,4,29.3,0.2,30.2C589.5,635.9,587.2,636,583.7,636z"/>
			</g>
		</g>
		<g>
			<g>
				<g>
					<g>
						<path class="st11" d="M494.1,553c0.2,0,0.3,0,0.5-0.1v0C494.5,553,494.3,553,494.1,553z"/>
					</g>
					<g>
						<path class="st11" d="M515.4,550.8c0.4,1.3-0.4,2.5-1.6,2.9c-0.3,0.1-8.1,2.3-17.2,3.7c0.7-0.1,1.3-0.6,1.7-1.2
							c0.7-1.3,1.3-2.7,1.7-4.1c7-1.3,12.4-2.9,12.5-2.9C513.7,548.8,515,549.6,515.4,550.8z"/>
					</g>
					<g>
						<path class="st11" d="M499.8,533.2c-1.5-0.8-3.2-1.4-4.8-1.6c-0.4,0-0.7-0.1-1.1-0.1c-0.2,0-0.4,0-0.6-0.1c0,0-0.1,0-0.1,0
							c-0.5-0.1-1-0.1-1.5-0.1c-0.1,0-0.2,0-0.3,0c-1.1-0.1-2.1-0.1-3.1-0.1c-2.7,0-5.1,0.3-7.3,0.8c-0.4,0.1-0.8,0.2-1.3,0.3
							c-0.2,0-0.4,0.1-0.7,0.2c-0.3,0.1-0.7,0.2-1,0.3c0,0-0.1,0-0.1,0c-0.5,0.1-1,0.3-1.5,0.5c0,0,0,0,0,0
							c-0.2,0.1-0.4,0.2-0.6,0.2c-0.3,0.1-0.6,0.2-0.9,0.3c-1.6,0.6-3.2,1.2-4.7,1.8c-5.6,2.1-10.5,4-13.7,5.2
							c3,2.6,8.1,6.8,13.7,9.5c0.5,1.8,1.1,3.6,1.9,5.2c0.3,0.6,0.8,1,1.4,1.2c-11.5-3.5-22.6-14.6-23-15.1
							c-0.6-0.6-0.8-1.4-0.6-2.1c0.2-0.8,0.7-1.4,1.4-1.7c0.1,0,10.4-4,21.9-8.3c0,0,0,0,0,0c2.3-0.9,4.5-1.6,6.7-2.1
							c4.4-1.1,9.7-1.2,15.7-0.4c10.4,1.4,19.4,13.6,19.8,14.2c0.8,1.1,0.5,2.5-0.5,3.3c-1,0.8-2.5,0.5-3.3-0.5c0,0-2.1-2.8-5.2-5.8
							C504.6,536.3,502.3,534.5,499.8,533.2z"/>
					</g>
				</g>
				<g>
					<g>
						<path class="st11" d="M497.3,528c-0.4-0.6-1-1-1.7-1.1c-6-0.8-11.3-0.7-15.7,0.4c-2.2,0.5-4.4,1.2-6.7,2.1c0,0,0,0,0,0
							c-0.5,0.2-1,0.6-1.2,1.2c-0.7,1.6-1.3,3.2-1.8,5c1.5-0.6,3.1-1.2,4.7-1.8c0.3-0.1,0.6-0.2,0.9-0.3c0,0,0,0,0,0
							c0.2-0.1,0.4-0.1,0.6-0.2c0,0,0,0,0,0c0.5-0.2,1-0.3,1.5-0.5c0,0,0.1,0,0.1,0c0.3-0.1,0.7-0.2,1-0.3c0.2-0.1,0.4-0.1,0.7-0.2
							c0.4-0.1,0.9-0.2,1.3-0.3c2.2-0.5,4.6-0.8,7.3-0.8c1,0,2,0,3.1,0.1c0.1,0,0.2,0,0.3,0c0.5,0,1,0.1,1.5,0.1c0,0,0,0,0.1,0
							c0.2,0,0.4,0,0.6,0.1c0,0,0,0,0,0c0.4,0,0.7,0.1,1.1,0.1c1.6,0.2,3.2,0.8,4.8,1.6C499.2,531.3,498.3,529.6,497.3,528z"/>
					</g>
					<g>
						<path class="st11" d="M499.8,533.2c-1.5-0.8-3.2-1.4-4.8-1.6c-0.4,0-0.7-0.1-1.1-0.1c-0.2,0-0.4,0-0.6-0.1c0,0-0.1,0-0.1,0
							c-0.5-0.1-1-0.1-1.5-0.1c-0.1,0-0.2,0-0.3,0c-1.1-0.1-2.1-0.1-3.1-0.1c-2.7,0-5.1,0.3-7.3,0.8c-0.4,0.1-0.8,0.2-1.3,0.3
							c-0.2,0.1-0.4,0.1-0.7,0.2c-0.3,0.1-0.7,0.2-1,0.3c0,0-0.1,0-0.1,0c-0.5,0.1-1,0.3-1.5,0.5c0,0,0,0,0,0
							c-0.2,0.1-0.4,0.2-0.6,0.2c-0.3,0.1-0.6,0.2-0.9,0.3c-1.6,0.6-3.2,1.2-4.7,1.8c-0.6,2.3-0.9,4.8-0.9,7.3
							c0,2.6,0.3,5.1,0.9,7.5c0.5,1.8,1.1,3.6,1.9,5.2c0.3,0.6,0.8,1,1.4,1.2c3.8,1.2,7.3,1.8,10.2,1.8c3.7,0,8-0.4,12.8-1.1
							c0,0,0,0,0,0c0.7-0.1,1.3-0.6,1.7-1.2c0.7-1.3,1.3-2.7,1.7-4.1c0.9-2.8,1.4-5.9,1.4-9.2C501.4,539.5,500.8,536.2,499.8,533.2z
							 M494.6,553c-0.2,0-0.3,0-0.5,0.1C494.3,553,494.4,553,494.6,553L494.6,553z"/>
					</g>
				</g>
			</g>
			<g>
				<g>
					<g>
						<path class="st11" d="M630,556.6c-9.1-1.4-16.9-3.6-17.2-3.7c-1.3-0.4-2-1.7-1.6-2.9c0.4-1.2,1.7-2,2.9-1.6
							c0.1,0,5.5,1.6,12.5,2.9c0.5,1.5,1,2.8,1.7,4.1C628.7,556,629.3,556.5,630,556.6z"/>
					</g>
					<g>
						<path class="st11" d="M676,540.8c-0.5,0.5-11.5,11.6-23,15.1c0.6-0.2,1.1-0.6,1.4-1.2c0.8-1.6,1.4-3.4,1.9-5.2
							c5.6-2.7,10.7-6.9,13.7-9.5c-3.1-1.2-8.1-3.1-13.7-5.2c-1.5-0.6-3.1-1.2-4.7-1.8c-0.3-0.1-0.6-0.2-0.9-0.3
							c-0.2-0.1-0.3-0.1-0.5-0.2c-0.1,0-0.2-0.1-0.3-0.1c-0.4-0.1-0.9-0.3-1.3-0.4c0,0-0.1,0-0.1,0c-0.3-0.1-0.6-0.2-0.9-0.3
							c-0.3-0.1-0.5-0.2-0.8-0.2c-0.4-0.1-0.8-0.2-1.3-0.3c-2.2-0.5-4.6-0.8-7.3-0.8c-0.5,0-1,0-1.6,0c-0.5,0-1,0-1.4,0.1
							c-0.1,0-0.3,0-0.4,0c-0.5,0-0.9,0.1-1.4,0.1c0,0-0.1,0-0.1,0c-0.2,0-0.4,0-0.6,0.1c-0.4,0-0.7,0.1-1.1,0.1
							c-1.6,0.2-3.2,0.8-4.8,1.6c-6.5,3.4-11.8,10.6-11.8,10.7c-0.8,1.1-2.2,1.3-3.3,0.5c-1.1-0.8-1.3-2.2-0.5-3.3
							c0.4-0.5,9.4-12.8,19.8-14.2c6-0.8,11.3-0.7,15.7,0.4c2.2,0.5,4.4,1.2,6.7,2.1c11.5,4.3,21.8,8.3,21.9,8.4
							c0.7,0.3,1.3,0.9,1.4,1.7C676.8,539.5,676.6,540.3,676,540.8z"/>
					</g>
				</g>
				<g>
					<g>
						<path class="st11" d="M656.4,534.8c-0.4-1.8-1-3.4-1.8-5c-0.3-0.5-0.7-1-1.3-1.2c-2.3-0.9-4.5-1.6-6.7-2.1
							c-4.4-1.1-9.7-1.2-15.7-0.4c-0.7,0.1-1.3,0.5-1.7,1.1c-1,1.6-1.8,3.3-2.5,5.2c-1,3-1.6,6.3-1.6,9.7c0,3.2,0.5,6.3,1.4,9.2
							c1.3,0.2,2.7,0.5,4.2,0.7c0.4,0.1,0.8,0.1,1.2,0.2c-1.3-2.9-2.1-6.4-2.1-10c0-4.2,1-8.2,2.8-11.4c0,0,0,0,0,0
							c0.2,0,0.4,0,0.6-0.1c0,0,0.1,0,0.1,0c0.5-0.1,1-0.1,1.4-0.1c0.1,0,0.3,0,0.4,0c0.5,0,1-0.1,1.4-0.1c0.5,0,1.1,0,1.6,0
							c2.7,0,5.1,0.3,7.3,0.8c0.4,0.1,0.8,0.2,1.3,0.3c0.3,0.1,0.5,0.1,0.8,0.2c0.3,0.1,0.6,0.2,0.9,0.3c0,0,0.1,0,0.1,0
							c0.4,0.1,0.9,0.3,1.3,0.4c0.1,0,0.2,0.1,0.3,0.1c0.2,0.1,0.3,0.1,0.5,0.2v0c1.2,2.8,1.8,6,1.8,9.4c0,3.5-0.7,6.8-1.9,9.7
							c0.3-0.1,0.7-0.2,1-0.3c1.6-0.5,3.2-1.1,4.7-1.9c0.6-2.4,0.9-4.9,0.9-7.5C657.2,539.6,656.9,537.1,656.4,534.8z"/>
					</g>
					<g>
						<path class="st11" d="M656.3,549.6c-0.5,1.8-1.1,3.6-1.9,5.2c-0.3,0.6-0.8,1-1.4,1.2c-3.8,1.2-7.3,1.8-10.2,1.8
							c-3.7,0-8-0.4-12.8-1.1c-0.7-0.1-1.4-0.6-1.7-1.2c-0.7-1.3-1.3-2.7-1.7-4.1c1.3,0.2,2.7,0.5,4.2,0.7c0.4,0.1,0.8,0.1,1.2,0.2
							c-1.3-2.9-2.1-6.4-2.1-10c0-4.2,1-8.2,2.8-11.4c0.2,0,0.4,0,0.6-0.1c0,0,0.1,0,0.1,0c0.5,0,1-0.1,1.4-0.1c0.1,0,0.3,0,0.4,0
							c0.5,0,1-0.1,1.4-0.1c0.5,0,1.1,0,1.6,0c2.7,0,5.1,0.3,7.3,0.8c0.4,0.1,0.8,0.2,1.3,0.3c0.3,0.1,0.5,0.1,0.8,0.2
							c0.3,0.1,0.6,0.2,0.9,0.3c0,0,0.1,0,0.1,0c0.4,0.1,0.9,0.3,1.3,0.4c0.1,0,0.2,0.1,0.3,0.1c0.1,0.1,0.3,0.1,0.5,0.2
							c1.2,2.8,1.8,6,1.8,9.4c0,3.5-0.7,6.8-1.9,9.7c0.3-0.1,0.7-0.2,1-0.3C653.2,551,654.8,550.3,656.3,549.6z"/>
					</g>
				</g>
			</g>
		</g>
	</g>
	<g>
		<path class="st2" d="M420,794.8c0,0-27-52.9-37.9-82s-52.3-250.2,1.9-247c54.2,3.2,48.2,116.8,67.5,140.9c0,0-13.6,3.6-13.6,3.6
			c-2.6-2.2-2.9-12.3-3.5-15.4c-2.2-11.1-4.3-22.2-6.5-33.3c-3.3-17-5.2-34.4-11.4-50.7c-4.5-11.8-17.5-36.9-32.5-36.9
			c-15.9,0-17.5,38.2-17.9,48.7c-2.7,69.8,18.2,173.9,25.1,191.7c6.9,17.8,34.9,71.3,34.9,71.3L420,794.8z"/>
		<path class="st0" d="M419.7,799.4l-1.8-3.5c-0.3-0.5-27.2-53.4-38-82.2c-5-13.5-15.7-63.8-21.5-114.9c-5.2-45.7-8-104.7,8.1-126.4
			c4.6-6.3,10.6-9.2,17.7-8.8c37.5,2.2,47.4,53.4,55.3,94.5c3.9,20.3,7.6,39.5,13.9,47.3l2.3,2.8l-15,3.9c-3,0.8-3.4,0.9-4.3,0
			c-2.4-2.1-3.1-7.1-3.8-13.4c-0.2-1.4-0.3-2.6-0.4-3.2c-1.2-6.2-2.4-12.4-3.6-18.6c-0.9-4.9-1.9-9.8-2.8-14.6
			c-0.9-4.4-1.6-8.9-2.4-13.2c-2.1-12.4-4.4-25.2-8.9-37.1c-5.4-14.2-17.9-35.3-30.3-35.3c-5.1,0-14,6-15.6,46.5
			c-2.7,68.4,17.6,171.8,24.9,190.7c6.8,17.5,34.5,70.5,34.8,71.1l0.7,1.2L419.7,799.4z M382.9,468.1c-5,0-9.2,2.3-12.6,6.9
			c-11.8,16-14.4,59.7-7.2,123.1c5.7,50.1,16.4,100.9,21.2,113.8c9.1,24.2,29.7,65.8,36,78.2l3.1-4.5c-4.3-8.3-28-53.9-34.3-70.3
			c-7.4-19.2-28-123.7-25.2-192.6c1.3-33.8,8.1-51,20.3-51c20,0,34.1,36.8,34.7,38.4c4.7,12.3,6.9,25.3,9.1,37.9
			c0.7,4.3,1.5,8.8,2.4,13.1c1,4.9,1.9,9.8,2.9,14.7c1.2,6.2,2.4,12.4,3.6,18.6c0.2,0.9,0.3,2.1,0.5,3.6c0.2,2.1,0.8,7.3,1.7,9.5
			c2.1-0.6,6-1.6,8.8-2.3c-5.7-9.6-9.1-26.8-12.9-46.5c-7.6-39.5-17.2-88.7-51-90.7C383.6,468.1,383.2,468.1,382.9,468.1z"/>
	</g>
	<g class="st14">
		<path class="st1" d="M363,573c-2.9,0-5.4-2.2-5.8-5.1c-1.8-14.5-1.9-31.6-1.6-43.4c0.2-7,0.7-23.5,2.2-26.4
			c-0.1,0.1-0.1,0.3-0.2,0.5c0.1-0.2,0.3-1.1,0.5-1.9c3.2-12.9,8.4-28.3,19.6-32.3c6.6-2.4,14.4-0.6,22.5,4.9
			c5.5,3.8,9.4,8.1,9.5,8.3c2.2,2.4,2,6.1-0.5,8.3c-2.4,2.2-6.1,2-8.3-0.5c-3.8-4.2-13.4-12.1-19.3-10c-3.1,1.1-7.7,6.2-12.2,24
			c-0.4,1.4-0.6,2.2-0.8,2.9c-0.7,4.4-2.9,39.3,0.2,63.9c0.4,3.2-1.9,6.2-5.1,6.6C363.5,572.9,363.3,573,363,573z M368.3,503.3
			C368.3,503.3,368.3,503.3,368.3,503.3C368.3,503.3,368.3,503.3,368.3,503.3z M368.7,502.2C368.7,502.2,368.7,502.2,368.7,502.2
			S368.7,502.2,368.7,502.2z"/>
	</g>
	<g>
		<path class="st2" d="M708.6,794.8c0,0,27-52.9,37.9-82s52.3-250.2-1.9-247c-54.2,3.2-48.2,116.8-67.5,140.9c0,0,13.6,3.6,13.6,3.6
			c2.6-2.2,2.9-12.3,3.5-15.4c2.2-11.1,4.3-22.2,6.5-33.3c3.3-17,5.2-34.4,11.4-50.7c4.5-11.8,17.5-36.9,32.5-36.9
			c15.9,0,17.5,38.2,17.9,48.7c2.7,69.8-18.2,173.9-25.1,191.7s-34.9,71.3-34.9,71.3L708.6,794.8z"/>
		<path class="st0" d="M708.9,799.4l-9.2-13.5l0.7-1.2c0.3-0.5,28-53.6,34.8-71.1c7.3-19,27.6-122.4,24.9-190.7
			c-1.6-40.4-10.4-46.5-15.6-46.5c-12.4,0-25,21.1-30.3,35.3c-4.5,11.9-6.7,24.7-8.9,37.1c-0.8,4.3-1.5,8.8-2.4,13.2
			c-1,4.9-1.9,9.8-2.9,14.7c-1.2,6.2-2.4,12.4-3.6,18.6c-0.1,0.7-0.3,1.9-0.4,3.2c-0.7,6.3-1.4,11.3-3.8,13.4
			c-0.9,0.9-1.4,0.8-4.3,0l-15-3.9l2.3-2.8c6.3-7.8,10-27,13.9-47.3c8-41.1,17.8-92.2,55.3-94.5c7.1-0.4,13,2.5,17.7,8.8
			c16.1,21.8,13.3,80.8,8.1,126.4c-5.8,51.2-16.4,101.5-21.5,114.9c-10.8,28.8-37.7,81.7-38,82.2L708.9,799.4z M705.2,785.6l3.1,4.5
			c6.2-12.3,26.9-53.9,36-78.2c4.8-13,15.5-63.7,21.2-113.8c7.2-63.4,4.6-107.1-7.2-123.1c-3.7-5-8.1-7.2-13.6-6.9
			c-33.8,2-43.3,51.2-51,90.7c-3.8,19.6-7.1,36.9-12.9,46.5c2.8,0.7,6.7,1.8,8.8,2.3c0.9-2.2,1.5-7.3,1.7-9.5
			c0.2-1.5,0.3-2.8,0.5-3.6c1.2-6.2,2.4-12.4,3.6-18.5c1-4.9,1.9-9.8,2.9-14.7c0.9-4.3,1.6-8.8,2.4-13.1c2.2-12.6,4.4-25.7,9.1-38
			c0.6-1.6,14.8-38.4,34.7-38.4c12.1,0,18.9,17.2,20.3,51c2.7,68.9-17.8,173.4-25.2,192.6C733.2,731.8,709.6,777.3,705.2,785.6z"/>
	</g>
	<g>
		<path class="st2" d="M406.5,606.5c0.2-5.9,4.6-10.8,10.4-11.6c12.9-1.8,36.6-4.4,61.4-4.3c37.2,0.2,100.5,3.1,133,4.6
			c16,0.8,68.4-1.6,92.1-3.7c6-0.5,11.2,3.9,11.7,9.8c2.2,24.2,7.1,82.1,7.1,100.9c0,29,1.9,93.2-5,101.7
			c-7,8.5-129.1,2.3-145.3,4.6c-16.2,2.3-159.3,4.7-165,0C401.7,804.6,405.4,648.1,406.5,606.5z"/>
		<path class="st0" d="M465.7,814.8c-56.9,0-59.9-2.4-61.2-3.5c-2.1-1.7-4.6-3.7-3.7-89.8c0.4-45.2,1.6-95.7,2.2-115.2l0,0
			c0.2-7.7,5.9-14,13.4-15c12.2-1.7,36.5-4.4,61.9-4.3c40,0.2,110.1,3.5,133.1,4.6c15.5,0.7,67.8-1.6,91.6-3.7
			c7.9-0.7,14.9,5.1,15.6,13c2.2,24.1,7.2,82.3,7.2,101.2c0,4.7,0.1,10.4,0.1,16.4c0.4,45,0.2,80-5.9,87.5c-2,2.5-6.6,5-38.2,5.7
			c-19,0.5-42.5,0.2-63.1-0.1c-21.9-0.3-40.8-0.5-46.2,0.3c-8.1,1.2-47.1,2.4-86.9,2.7C478.2,814.8,471.7,814.8,465.7,814.8z
			 M409.4,805.9c5.7,1.2,31.1,2.2,78,1.8c38.6-0.3,76.2-1.5,83.9-2.6c6-0.9,24.2-0.6,47.3-0.3c20,0.3,42.8,0.5,61.4,0.1
			c27.9-0.6,33.5-2.6,34.5-3.3c0.8-1.2,3.1-6.6,4-31.1c0.6-16.4,0.4-36,0.3-51.7c-0.1-6-0.1-11.7-0.1-16.4c0-18.6-5-76.6-7.1-100.6
			c-0.4-4-3.9-7-7.9-6.6c-24.5,2.2-76.5,4.4-92.5,3.7c-23-1.1-93-4.4-132.8-4.6c-25-0.1-48.9,2.6-60.9,4.2c-4.2,0.6-7.2,4-7.4,8.2
			C407.1,717.7,406.9,794.9,409.4,805.9z M714.6,801.5L714.6,801.5L714.6,801.5z"/>
	</g>
	<g>
		<path class="st12" d="M424.4,807.6c0-0.5-1.1-47.5-0.3-55.9c0.3-3.8,0.4-19.4,0.4-37.5c0-21.9,0.1-46.6,0.7-56
			c0.4-6.3,0-63.9,0-64.5l0.8,0c0,0.6,0.4,58.2,0,64.6c-0.6,9.3-0.7,34.1-0.7,55.9c0,18.1-0.1,33.7-0.4,37.6
			c-0.8,8.4,0.3,55.4,0.3,55.8L424.4,807.6z"/>
	</g>
	<g>
		<path class="st12" d="M421.3,808.4c0-0.5-1.1-47.5-0.3-55.9c0.3-3.8,0.4-19.4,0.4-37.5c0-21.9,0.1-46.6,0.7-56
			c0.4-6.3,0-63.9,0-64.5l0.8,0c0,0.6,0.4,58.2,0,64.6c-0.6,9.3-0.7,34.1-0.7,55.9c0,18.1-0.1,33.7-0.4,37.6
			c-0.8,8.4,0.3,55.4,0.3,55.8L421.3,808.4z"/>
	</g>
	<g>
		<path class="st12" d="M418.2,807.6c0-0.5-1.1-47.5-0.3-55.9c0.3-3.8,0.4-19.4,0.4-37.5c0-21.9,0.1-46.7,0.7-56
			c0.4-6.3,0-63.9,0-64.5l0.8,0c0,0.6,0.4,58.2,0,64.6c-0.6,9.3-0.7,34.1-0.7,55.9c0,18.1-0.1,33.7-0.4,37.5
			c-0.8,8.4,0.3,55.4,0.3,55.8L418.2,807.6z"/>
	</g>
	<g>
		<path class="st12" d="M415.1,806.9c0-0.5-1.1-47.5-0.3-55.9c0.3-3.8,0.4-19.4,0.4-37.5c0-21.9,0.1-46.7,0.7-56
			c0.4-6.3,0-63.9,0-64.5l0.8,0c0,0.6,0.4,58.2,0,64.6c-0.6,9.3-0.7,34.1-0.7,55.9c0,18.1-0.1,33.7-0.4,37.5
			c-0.8,8.4,0.3,55.4,0.3,55.8L415.1,806.9z"/>
	</g>
	<g>
		<path class="st12" d="M412.1,810c0-0.5-1.1-47.5-0.3-55.9c0.3-3.8,0.4-19.4,0.4-37.5c0-21.9,0.1-46.6,0.7-56
			c0.4-6.3,0-63.9,0-64.5l0.8,0c0,0.6,0.4,58.2,0,64.6c-0.6,9.3-0.7,34.1-0.7,55.9c0,18.1-0.1,33.7-0.4,37.6
			c-0.8,8.4,0.3,55.3,0.3,55.8L412.1,810z"/>
	</g>
	<g>
		<path class="st12" d="M409,811.5c0-0.5-1.1-47.5-0.3-55.9c0.3-3.8,0.4-19.4,0.4-37.5c0-21.9,0.1-46.6,0.7-56
			c0.4-6.3,0-63.9,0-64.5l0.8,0c0,0.6,0.4,58.2,0,64.6c-0.6,9.3-0.7,34.1-0.7,55.9c0,18.1-0.1,33.7-0.4,37.6
			c-0.8,8.4,0.3,55.3,0.3,55.8L409,811.5z"/>
	</g>
	<g>
		<path class="st12" d="M700.8,805.3l-0.8,0c0-0.5,1.1-47.4,0.3-55.8c-0.3-3.8-0.4-19.5-0.4-37.6c0-21.9-0.1-46.6-0.7-55.9
			c-0.4-6.3,0-64,0-64.6l0.8,0c0,0.6-0.4,58.2,0,64.5c0.6,9.3,0.7,34.1,0.7,56c0,18.1,0.1,33.7,0.4,37.5
			C701.9,757.8,700.8,804.9,700.8,805.3z"/>
	</g>
	<g>
		<path class="st12" d="M703.9,806.1l-0.8,0c0-0.5,1.1-47.4,0.3-55.8c-0.3-3.8-0.4-19.5-0.4-37.6c0-21.9-0.1-46.6-0.7-55.9
			c-0.4-6.3,0-64,0-64.6l0.8,0c0,0.6-0.4,58.2,0,64.5c0.6,9.3,0.7,34.1,0.7,56c0,18.1,0.1,33.7,0.4,37.5
			C705,758.6,703.9,805.6,703.9,806.1z"/>
	</g>
	<g>
		<path class="st12" d="M707,805.3l-0.8,0c0-0.5,1.1-47.4,0.3-55.8c-0.3-3.8-0.4-19.5-0.4-37.6c0-21.9-0.1-46.6-0.7-55.9
			c-0.4-6.3,0-64,0-64.6l0.8,0c0,0.6-0.4,58.2,0,64.5c0.6,9.3,0.7,34.1,0.7,56c0,18.1,0.1,33.7,0.4,37.5
			C708.1,757.8,707,804.9,707,805.3z"/>
	</g>
	<g>
		<path class="st12" d="M710.1,804.6l-0.8,0c0-0.5,1.1-47.4,0.3-55.8c-0.3-3.8-0.4-19.5-0.4-37.6c0-21.9-0.1-46.6-0.7-55.9
			c-0.4-6.3,0-64,0-64.6l0.8,0c0,0.6-0.4,58.2,0,64.5c0.6,9.3,0.7,34.1,0.7,56c0,18.1,0.1,33.7,0.4,37.5
			C711.2,757.1,710.1,804.1,710.1,804.6z"/>
	</g>
	<g>
		<path class="st12" d="M713.2,807.6l-0.8,0c0-0.5,1.1-47.4,0.3-55.8c-0.3-3.8-0.4-19.5-0.4-37.5c0-21.9-0.1-46.6-0.7-55.9
			c-0.4-6.3,0-64,0-64.6l0.8,0c0,0.6-0.4,58.2,0,64.5c0.6,9.3,0.7,34.1,0.7,56c0,18.1,0.1,33.7,0.4,37.5
			C714.3,760.2,713.2,807.2,713.2,807.6z"/>
	</g>
	<g>
		<path class="st12" d="M716.3,805.3l-0.8,0c0-0.4,1.1-43.6,0.3-52c-0.3-3.8-0.4-19.5-0.4-37.6c0-21.8-0.1-46.6-0.7-55.9
			c-0.4-6.3,0-64,0-64.6l0.8,0c0,0.6-0.4,58.2,0,64.5c0.6,9.3,0.7,34.1,0.7,56c0,18.1,0.1,33.7,0.4,37.5
			C717.4,761.7,716.3,804.9,716.3,805.3z"/>
	</g>
	<g class="st10">
		<path class="st12" d="M454.8,609.9c-1.1,0-2.1,0.8-2.3,1.9c-0.3,1.8-0.6,4.6,0.4,6.1c1.7,2.5,31,3.2,38,3.2s49.2-1.5,57.8,0
			c8.7,1.5,59.7,2.3,70.5,1.5c10.8-0.8,45.6-2.3,48.7-2.3c2.1,0,1.4-4.8,0.7-7.9c-0.3-1.5-1.7-2.6-3.2-2.6c-7.3-0.1-28.3-0.3-38.4,0
			c-12.3,0.4-52.5,2.8-60.3,2.8c-7.7,0-65.7-3.9-72.7-3.1C488.1,610.2,462,610,454.8,609.9z"/>
	</g>
	<g class="st14">
		<path class="st1" d="M765.6,573c-0.2,0-0.5,0-0.7,0c-3.2-0.4-5.5-3.3-5.1-6.6c3.1-24.6,0.9-59.5,0.2-63.9
			c-0.2-0.7-0.4-1.5-0.8-2.9c-4.5-17.9-9.1-22.9-12.2-24c-5.9-2.1-15.6,5.8-19.4,10c-2.2,2.4-5.9,2.6-8.3,0.4
			c-2.4-2.2-2.6-5.9-0.5-8.3c0.2-0.2,4.1-4.5,9.5-8.3c8.1-5.6,15.9-7.3,22.5-4.9c11.2,4,16.4,19.3,19.6,32.3
			c0.2,0.7,0.4,1.6,0.5,1.9c-0.1-0.2-0.2-0.4-0.2-0.5c1.5,2.9,2,19.5,2.2,26.4c0.3,11.8,0.2,28.8-1.6,43.4
			C771,570.8,768.5,573,765.6,573z M760.3,503.3C760.3,503.3,760.3,503.3,760.3,503.3C760.3,503.3,760.3,503.3,760.3,503.3z
			 M759.9,502.2C759.9,502.2,759.9,502.2,759.9,502.2S759.9,502.2,759.9,502.2z"/>
	</g>
	<g>
		<path class="st12" d="M413.9,662.6l-0.1-0.8c0,0,17.5-1.4,25.1-2c9.4-0.8,19-1.4,28.4-1.8c18.5-0.7,37.2-0.7,55.7,0.1
			c8.1,0.3,16.4,0.8,24.4,1.3c16.2,1,32.9,2,49.3,1.8c22.6-0.3,45.3-1,67.2-1.7c14.1-0.5,28.7-0.9,43.2-1.3l0,0.8
			c-14.5,0.4-29.1,0.8-43.2,1.3c-21.9,0.7-44.6,1.4-67.2,1.7c-16.5,0.2-33.2-0.8-49.4-1.8c-8-0.5-16.2-1-24.3-1.3
			c-18.4-0.8-37.1-0.8-55.6-0.1c-9.4,0.4-19,1-28.4,1.7C431.4,661.2,413.9,662.6,413.9,662.6z"/>
	</g>
	<g>
		<path class="st12" d="M413.1,711.5l-0.1-0.8c0,0,17.6-1.4,25.4-2c9.5-0.8,19.2-1.4,28.7-1.8c18.7-0.7,37.6-0.7,56.2,0.1
			c8.2,0.3,16.5,0.8,24.6,1.3c16.3,1,33.2,2,49.8,1.8c22.7-0.3,45.2-1,67-1.7c14.2-0.5,28.9-0.9,43.7-1.3l0,0.8
			c-14.7,0.4-29.4,0.8-43.7,1.3c-21.8,0.7-44.2,1.4-67,1.7c-16.6,0.2-33.5-0.8-49.8-1.8c-8.1-0.5-16.4-1-24.6-1.3
			c-18.6-0.8-37.5-0.8-56.1-0.1c-9.5,0.4-19.2,1-28.7,1.7C430.7,710.1,413.1,711.5,413.1,711.5z"/>
	</g>
	<g>
		<path class="st12" d="M412.2,766.2l-0.1-0.8c0.2,0,18.6-1.4,26.2-2c9.5-0.8,19.2-1.4,28.7-1.8c18.7-0.7,37.6-0.7,56.2,0.1
			c8.2,0.3,16.5,0.8,24.6,1.3c16.3,1,33.2,2,49.8,1.8c22.8-0.3,45.7-1,67.9-1.7c14.3-0.5,29-0.9,43.6-1.3l0,0.8
			c-14.6,0.4-29.4,0.8-43.6,1.3c-22.1,0.7-45,1.4-67.9,1.7c-16.6,0.2-33.5-0.8-49.8-1.8c-8.1-0.5-16.4-1-24.6-1.3
			c-18.6-0.8-37.5-0.8-56.1-0.1c-9.5,0.4-19.2,1-28.7,1.7C430.8,764.8,412.4,766.2,412.2,766.2z"/>
	</g>
	<g>
		<path class="st0" d="M465.7,814.8c-56.9,0-59.9-2.4-61.2-3.5c-2.1-1.7-4.6-3.7-3.7-89.8c0.4-45.2,1.6-95.7,2.2-115.2l0,0
			c0.2-7.7,5.9-14,13.4-15c12.2-1.7,36.5-4.4,61.9-4.3c40,0.2,110.1,3.5,133.1,4.6c15.5,0.7,67.8-1.6,91.6-3.7
			c7.9-0.7,14.9,5.1,15.6,13c2.2,24.1,7.2,82.3,7.2,101.2c0,4.7,0.1,10.4,0.1,16.4c0.4,45,0.2,80-5.9,87.5c-2,2.5-6.6,5-38.2,5.7
			c-19,0.5-42.5,0.2-63.1-0.1c-21.9-0.3-40.8-0.5-46.2,0.3c-8.1,1.2-47.1,2.4-86.9,2.7C478.2,814.8,471.7,814.8,465.7,814.8z
			 M409.4,805.9c5.7,1.2,31.1,2.2,78,1.8c38.6-0.3,76.2-1.5,83.9-2.6c6-0.9,24.2-0.6,47.3-0.3c20,0.3,42.8,0.5,61.4,0.1
			c27.9-0.6,33.5-2.6,34.5-3.3c0.8-1.2,3.1-6.6,4-31.1c0.6-16.4,0.4-36,0.3-51.7c-0.1-6-0.1-11.7-0.1-16.4c0-18.6-5-76.6-7.1-100.6
			c-0.4-4-3.9-7-7.9-6.6c-24.5,2.2-76.5,4.4-92.5,3.7c-23-1.1-93-4.4-132.8-4.6c-25-0.1-48.9,2.6-60.9,4.2c-4.2,0.6-7.2,4-7.4,8.2
			C407.1,717.7,406.9,794.9,409.4,805.9z M714.6,801.5L714.6,801.5L714.6,801.5z"/>
	</g>
	<g>
		<g>
			<path class="st1" d="M787.3,489.5l-1.2-0.2c0-0.2,2.8-18.6-10.6-30.1c-9.4-8.1-22.4-11-26.1-11.7l0.2-1.2
				c3.8,0.7,17,3.6,26.7,11.9C790.2,470.3,787.3,489.4,787.3,489.5z"/>
		</g>
		<g>
			<g>
				<polygon class="st1" points="754.3,443.1 754.9,444.1 750,447.1 753.3,451.8 752.4,452.5 748.3,446.8 				"/>
			</g>
		</g>
	</g>
	<g>
		<g>
			<path class="st1" d="M342,490.4c0-0.2-3-19.2,11-31.2c9.6-8.3,22.8-11.2,26.7-11.9l0.2,1.2c-3.7,0.7-16.7,3.5-26.1,11.7
				c-13.4,11.6-10.6,29.9-10.6,30.1L342,490.4z"/>
		</g>
		<g>
			<g>
				<polygon class="st1" points="376.9,453.3 376,452.6 379.3,447.9 374.4,444.9 375,443.9 381,447.6 				"/>
			</g>
		</g>
	</g>
</g>
<path class="st1" d="M540,201c-24.8,0-45,20.1-45,45c0,24.8,20.2,45,45,45s45-20.2,45-45C585,221.1,564.8,201,540,201z M547.3,269.4
	c-3.4,0-8.9-0.4-13.7-0.4c-2.5,0-5.2,0.3-6.5,0.3c-2,0-2.5-2-2.5-6.2c0-9.8,5.5-15.5,13.7-20.5c4.2-2.7,5.6-3.8,5.6-6
	c0-1.6-1.2-2.8-3.3-2.8c-3.1,0-7.3,2.3-10.7,5.2c-0.3,0.2-0.6,0.4-1,0.4c-0.4,0-0.9-0.2-1.3-0.7c-1.9-2.2-3.4-6.7-3.4-7.7
	c0-0.5,0.2-1,0.5-1.5c2.6-3.6,8.8-6.8,16.3-6.8c8.2,0,14.1,4.3,14.1,13c0,7.3-3.3,10.9-11.8,15.8c-3.7,2.3-5.5,4-5.5,6.3
	c0,0.8,0.6,1.1,1.9,1.1c4.6,0,7.1-0.4,8.9-1.5c1.2-0.8,2-2,2.6-3.5c0.3-0.5,0.7-0.7,1.1-0.7c0.4,0,0.8,0.2,1.1,0.5
	c1.4,1.5,2.3,4,2.3,6.6C555.7,264.9,553.5,269.4,547.3,269.4z"/>
</svg>
