<?xml version="1.0" encoding="utf-8"?>
<!-- Generator: Adobe Illustrator 25.2.1, SVG Export Plug-In . SVG Version: 6.00 Build 0)  -->
<svg version="1.1" id="Capa_1" xmlns="http://www.w3.org/2000/svg" xmlns:xlink="http://www.w3.org/1999/xlink" x="0px" y="0px"
	 viewBox="0 0 1080 1080" style="enable-background:new 0 0 1080 1080;" xml:space="preserve">
<style type="text/css">
	.st0{fill:#08333D;}
	.st1{fill:#D54543;}
	.st2{fill:#F2F9FB;}
	.st3{fill:none;}
	.st4{fill:#F2F9FB;stroke:#08333D;stroke-width:8.5039;stroke-miterlimit:10;}
	.st5{opacity:0.7;fill:#D54543;}
	.st6{fill:none;stroke:#08333D;stroke-width:5.6693;stroke-miterlimit:10;}
	.st7{fill:none;stroke:#A4C1C1;stroke-miterlimit:10;}
	.st8{opacity:0.5;fill:#A4C1C1;}
	.st9{fill:none;stroke:#08333D;stroke-width:8.5039;stroke-miterlimit:10;}
	.st10{opacity:0.5;}
	.st11{fill:#A0B9BA;}
	.st12{fill:#A4C1C1;}
	.st13{opacity:0.7;}
	.st14{opacity:0.91;}
	.st15{fill:none;stroke:#D54543;stroke-width:1.4173;stroke-miterlimit:10;}
	.st16{fill:none;stroke:#D54543;stroke-width:14.1732;stroke-miterlimit:10;}
</style>
<g>
	<g>
		<g>
			<line class="st2" x1="377.8" y1="568.3" x2="409.1" y2="674.6"/>
		</g>
		<g>
			<path class="st0" d="M405.7,675.6c-0.4-1.5-0.9-3-1.3-4.5c-1.2-4-2.3-8-3.5-11.9c-1.7-5.6-3.3-11.3-5-16.9
				c-1.9-6.5-3.8-12.9-5.7-19.4c-1.9-6.5-3.8-13-5.7-19.4c-1.7-5.7-3.3-11.4-5-17c-1.2-4.1-2.4-8.1-3.6-12.2c-0.5-1.6-1-3.2-1.2-4.8
				c-0.2-1.4-1.5-6.7,0.2-5c1.7,1.7,3.5,3.9,4.2,4.1c1.3,0.4,2.2-0.6,2.7,0.9c0.4,1.2,0.7,2.3,1,3.5c1.1,3.8,2.2,7.6,3.4,11.4
				c1.6,5.4,3.2,10.8,4.8,16.2c1.8,6.2,3.7,12.5,5.5,18.7c1.9,6.3,3.7,12.6,5.6,18.9c1.7,5.6,3.3,11.3,5,16.9
				c1.2,4.2,2.5,8.4,3.7,12.5c0.6,2,1.2,3.9,1.7,5.9c0,0.1,0,0.1,0.1,0.2C412.5,673.6,405.7,675.6,405.7,675.6z"/>
		</g>
	</g>
	<g>
		<g class="st10">
			<g>
				<path class="st11" d="M711.7,502.5c-1-0.2-3.9-0.9-9.4,8.7c-3.4-38.2-19.7-73.6-46.6-100.9c-30.6-31-71.6-48.1-115.3-48.1
					s-84.7,17.1-115.3,48.1c-27.2,27.6-43.5,63.5-46.7,102.2c-5.9-10.9-9-10.2-10.1-10c-3.1,0.7-3.5,4.7-3.4,8.6
					c0.1,9.8,1.5,16.3,2.7,21.6c0.9,4.3,1.6,7.7,1.5,11.6c-0.1,3.9,0.8,9.2,2.4,13.9c1.4,4,3.8,9,7.2,10.1c0.3,0.1,0.9,0.2,1.5,0.2
					c1,0,2.2-0.3,3.5-1.5c9.2,34.5,28.5,74.1,55.6,112.6c36.6,52.2,76.3,85.9,101.1,85.9c24.8,0,64.5-33.7,101.1-85.9
					c26.9-38.3,46.2-77.8,55.4-112.1c1,0.7,2,0.9,2.8,0.9c0.6,0,1.2-0.1,1.5-0.2c3.5-1.1,5.9-6.2,7.2-10.1
					c1.6-4.7,2.6-10.1,2.4-13.9c-0.1-3.9,0.6-7.3,1.5-11.6c1.1-5.3,2.5-11.8,2.7-21.6C715.2,507.2,714.8,503.2,711.7,502.5z
					 M707.8,531.7c-0.9,4.4-1.7,8.2-1.6,12.7c0.2,7.9-4.3,19.3-6.5,19.5c-0.1,0-0.4-0.2-0.8-0.7l-0.6-1.3l-0.9-2.2
					c-0.7-1.6-3.1-1.4-3.5,0.3c-0.2,0.7-0.4,1.5-0.5,2.3c-3,12-7.3,24.8-12.8,38.1c-10.6,25.3-25.5,51.9-42.9,76.8
					c-35.2,50.2-74.3,83.9-97.2,83.9s-62-33.7-97.2-83.9c-17.5-24.9-32.3-51.5-42.9-76.8c-5.6-13.3-9.9-26.1-12.8-38.1l-0.6-2.6
					c-0.3-1.4-2.1-1.7-2.9-0.5l-1.6,2.3l-1.2,1.7c-0.5,0.7-0.8,0.9-0.9,0.9c-2.2-0.2-6.7-11.6-6.5-19.5c0.1-4.5-0.7-8.3-1.6-12.7
					c-1.1-5.3-2.4-11.4-2.6-20.7c0-1.4,0-2.4,0.1-3.1c1.7,1.9,4.4,6.4,6.6,11c0,0,0.1,0.1,0.1,0.2l1.3,2.4l1.6,2.8
					c0.9,1.5,3.2,0.9,3.2-0.8c0-1.2,0-2.3,0.1-3c1.5-40.5,17.6-78.2,45.8-106.8c29.7-30.1,69.5-46.7,112-46.7
					c42.5,0,82.3,16.6,112,46.7c27.8,28.2,43.9,65.3,45.7,105.2c0,1,0.3,2.3,0.5,3.4c0.3,1.2,1.8,1.5,2.5,0.5l1.8-2.6l0.6-0.9
					c0.1-0.1,0.1-0.2,0.2-0.3c2.2-4.6,4.9-9.1,6.6-11c0.1,0.7,0.1,1.6,0.1,3.1C710.2,520.3,709,526.4,707.8,531.7z"/>
			</g>
		</g>
		<g class="st10">
			<g>
				<g>
					<path class="st11" d="M560.9,635.3c-2.7,0-6.2-0.1-10.4-0.2c-4.4-0.1-9.4-0.2-14.1-0.2h-22.6c-0.3,0-0.5,0-0.7-0.1
						c-4.6-1.5-3.5-10.5,0.6-35.6c1.6-9.9,3.3-20.1,3.6-26.8c2.4-50.7-1.5-60.6-3.3-62.5c-4.3-4.6-11.3-4-11.3-4c-0.1,0-0.3,0-0.4,0
						c-0.2,0-23.4-1.6-44.6,0c-21.3,1.6-42.6,4.7-42.8,4.8c-1.3,0.2-2.5-0.7-2.7-2c-0.2-1.3,0.7-2.5,2-2.7c0.2,0,21.6-3.1,43.1-4.8
						c20.6-1.6,42.8-0.2,45.1,0c1.5-0.1,9.5-0.4,15,5.5c1.8,1.9,7.3,7.8,4.6,66c-0.3,6.9-2,17.3-3.7,27.3
						c-1.7,10.6-4.3,26.4-3.4,30.3h21.5c4.8,0,9.8,0.1,14.2,0.2c6.5,0.1,12.6,0.3,15.4,0c0.4-3.5-1.4-15.4-2.8-25.2
						c-1.8-11.9-3.6-24.2-3.6-31.8l0-1.5c0-32.5,2.1-70,18.6-70.8c0.2,0,23.6-1.7,45.2,0c21.5,1.7,42.9,4.8,43.1,4.8
						c1.3,0.2,2.2,1.4,2,2.7c-0.2,1.3-1.4,2.2-2.7,2c-0.2,0-21.5-3.1-42.8-4.8c-21.2-1.6-44.3,0-44.6,0
						c-7.6,0.4-10.9,16.3-12.2,25.7c-2,14.6-2,31.3-2,40.4l0,1.5c0,7.3,1.9,19.9,3.5,31.1c3.6,24.5,4,29.4,0.2,30.3
						C566.7,635.2,564.4,635.3,560.9,635.3z"/>
				</g>
			</g>
			<g>
				<g>
					<g>
						<g>
							<path class="st11" d="M471,552c0.2,0,0.3,0,0.5-0.1v0C471.3,551.9,471.1,552,471,552z"/>
						</g>
						<g>
							<path class="st11" d="M492.3,549.8c0.4,1.3-0.4,2.6-1.6,2.9c-0.3,0.1-8.1,2.3-17.3,3.7c0.7-0.1,1.3-0.6,1.7-1.2
								c0.7-1.3,1.3-2.7,1.7-4.2c7-1.3,12.5-2.9,12.6-2.9C490.7,547.8,492,548.5,492.3,549.8z"/>
						</g>
						<g>
							<path class="st11" d="M476.7,532.1c-1.5-0.8-3.2-1.4-4.8-1.6c-0.4,0-0.7-0.1-1.1-0.1c-0.2,0-0.4,0-0.6-0.1c0,0-0.1,0-0.1,0
								c-0.5-0.1-1-0.1-1.5-0.1c-0.1,0-0.2,0-0.3,0c-1.1-0.1-2.1-0.1-3.1-0.1c-2.7,0-5.2,0.3-7.4,0.8c-0.4,0.1-0.8,0.2-1.3,0.3
								c-0.2,0-0.4,0.1-0.7,0.2c-0.3,0.1-0.7,0.2-1,0.3c0,0-0.1,0-0.1,0c-0.5,0.1-1,0.3-1.5,0.5c0,0,0,0,0,0
								c-0.2,0.1-0.4,0.2-0.6,0.2c-0.3,0.1-0.6,0.2-0.9,0.3c-1.6,0.6-3.2,1.2-4.7,1.8c-5.6,2.1-10.6,4-13.7,5.2
								c3,2.7,8.2,6.8,13.8,9.6c0.5,1.8,1.1,3.6,1.9,5.2c0.3,0.6,0.8,1,1.4,1.2c-11.6-3.5-22.7-14.7-23.1-15.2
								c-0.6-0.6-0.8-1.4-0.6-2.1c0.2-0.8,0.7-1.4,1.4-1.7c0.1,0,10.4-4,22-8.4c0,0,0,0,0,0c2.3-0.9,4.5-1.6,6.7-2.1
								c4.4-1.1,9.8-1.2,15.8-0.4c10.5,1.4,19.5,13.7,19.9,14.2c0.8,1.1,0.5,2.5-0.5,3.3c-1,0.8-2.5,0.5-3.3-0.5
								c0,0-2.1-2.9-5.2-5.8C481.5,535.2,479.1,533.4,476.7,532.1z"/>
						</g>
					</g>
					<g>
						<g>
							<path class="st11" d="M474.2,526.9c-0.4-0.6-1-1-1.7-1.1c-6-0.8-11.3-0.7-15.8,0.4c-2.2,0.5-4.4,1.2-6.7,2.1c0,0,0,0,0,0
								c-0.5,0.2-1,0.6-1.2,1.2c-0.7,1.6-1.3,3.3-1.8,5c1.5-0.6,3.1-1.2,4.7-1.8c0.3-0.1,0.6-0.2,0.9-0.3c0,0,0,0,0,0
								c0.2-0.1,0.4-0.1,0.6-0.2c0,0,0,0,0,0c0.5-0.2,1-0.3,1.5-0.5c0,0,0.1,0,0.1,0c0.3-0.1,0.7-0.2,1-0.3c0.2-0.1,0.4-0.1,0.7-0.2
								c0.4-0.1,0.9-0.2,1.3-0.3c2.2-0.5,4.6-0.8,7.4-0.8c1,0,2,0,3.1,0.1c0.1,0,0.2,0,0.3,0c0.5,0,1,0.1,1.5,0.1c0,0,0,0,0.1,0
								c0.2,0,0.4,0,0.6,0.1c0,0,0,0,0,0c0.4,0,0.7,0.1,1.1,0.1c1.6,0.2,3.2,0.8,4.8,1.6C476,530.2,475.2,528.5,474.2,526.9z"/>
						</g>
						<g>
							<path class="st11" d="M476.7,532.1c-1.5-0.8-3.2-1.4-4.8-1.6c-0.4,0-0.7-0.1-1.1-0.1c-0.2,0-0.4,0-0.6-0.1c0,0-0.1,0-0.1,0
								c-0.5-0.1-1-0.1-1.5-0.1c-0.1,0-0.2,0-0.3,0c-1.1-0.1-2.1-0.1-3.1-0.1c-2.7,0-5.2,0.3-7.4,0.8c-0.4,0.1-0.8,0.2-1.3,0.3
								c-0.2,0.1-0.4,0.1-0.7,0.2c-0.3,0.1-0.7,0.2-1,0.3c0,0-0.1,0-0.1,0c-0.5,0.1-1,0.3-1.5,0.5c0,0,0,0,0,0
								c-0.2,0.1-0.4,0.2-0.6,0.2c-0.3,0.1-0.6,0.2-0.9,0.3c-1.6,0.6-3.2,1.2-4.7,1.8c-0.6,2.3-0.9,4.8-0.9,7.3
								c0,2.6,0.3,5.1,0.9,7.5c0.5,1.8,1.1,3.6,1.9,5.2c0.3,0.6,0.8,1,1.4,1.2c3.9,1.2,7.3,1.8,10.2,1.8c3.7,0,8-0.4,12.8-1.1
								c0,0,0,0,0,0c0.7-0.1,1.3-0.6,1.7-1.2c0.7-1.3,1.3-2.7,1.7-4.2c0.9-2.9,1.4-6,1.4-9.2C478.3,538.4,477.7,535.1,476.7,532.1z
								 M471.5,551.9c-0.2,0-0.3,0-0.5,0.1C471.1,552,471.3,551.9,471.5,551.9L471.5,551.9z"/>
						</g>
					</g>
				</g>
				<g>
					<g>
						<g>
							<path class="st11" d="M607.4,555.6c-9.2-1.4-17-3.6-17.3-3.7c-1.3-0.4-2-1.7-1.6-2.9c0.4-1.2,1.7-2,2.9-1.6
								c0.1,0,5.6,1.6,12.6,2.9c0.5,1.5,1,2.8,1.7,4.2C606.1,555,606.7,555.5,607.4,555.6z"/>
						</g>
						<g>
							<path class="st11" d="M653.6,539.8c-0.5,0.5-11.6,11.6-23.1,15.2c0.6-0.2,1.1-0.6,1.4-1.2c0.8-1.6,1.4-3.4,1.9-5.2
								c5.6-2.8,10.8-6.9,13.8-9.6c-3.1-1.2-8.1-3.1-13.7-5.2c-1.5-0.6-3.1-1.2-4.7-1.8c-0.3-0.1-0.6-0.2-0.9-0.3
								c-0.2-0.1-0.3-0.1-0.5-0.2c-0.1,0-0.2-0.1-0.3-0.1c-0.4-0.1-0.9-0.3-1.3-0.4c0,0-0.1,0-0.1,0c-0.3-0.1-0.6-0.2-0.9-0.3
								c-0.3-0.1-0.5-0.2-0.8-0.2c-0.4-0.1-0.8-0.2-1.3-0.3c-2.2-0.5-4.6-0.8-7.3-0.8c-0.5,0-1,0-1.6,0c-0.5,0-1,0-1.4,0.1
								c-0.1,0-0.3,0-0.4,0c-0.5,0-0.9,0.1-1.4,0.1c0,0-0.1,0-0.1,0c-0.2,0-0.4,0-0.6,0.1c-0.4,0-0.7,0.1-1.1,0.1
								c-1.6,0.2-3.2,0.8-4.8,1.6c-6.5,3.4-11.8,10.6-11.9,10.7c-0.8,1.1-2.2,1.3-3.3,0.5c-1.1-0.8-1.3-2.2-0.5-3.3
								c0.4-0.5,9.4-12.8,19.9-14.2c6-0.8,11.3-0.7,15.8,0.4c2.2,0.5,4.4,1.2,6.7,2.1c11.5,4.3,21.9,8.4,22,8.4
								c0.7,0.3,1.3,0.9,1.4,1.7C654.4,538.4,654.2,539.2,653.6,539.8z"/>
						</g>
					</g>
					<g>
						<g>
							<path class="st11" d="M633.9,533.7c-0.4-1.8-1-3.4-1.8-5c-0.3-0.5-0.7-1-1.3-1.2c-2.3-0.9-4.5-1.6-6.7-2.1
								c-4.4-1.1-9.7-1.2-15.8-0.4c-0.7,0.1-1.3,0.5-1.7,1.1c-1,1.6-1.9,3.3-2.5,5.2c-1,3-1.6,6.3-1.6,9.7c0,3.2,0.5,6.3,1.4,9.2
								c1.3,0.2,2.8,0.5,4.2,0.7c0.4,0.1,0.8,0.1,1.2,0.2c-1.3-3-2.1-6.5-2.1-10.1c0-4.2,1-8.2,2.8-11.5c0,0,0,0,0,0
								c0.2,0,0.4,0,0.6-0.1c0,0,0.1,0,0.1,0c0.5-0.1,1-0.1,1.4-0.1c0.1,0,0.3,0,0.4,0c0.5,0,1-0.1,1.4-0.1c0.5,0,1.1,0,1.6,0
								c2.7,0,5.2,0.3,7.3,0.8c0.4,0.1,0.8,0.2,1.3,0.3c0.3,0.1,0.5,0.1,0.8,0.2c0.3,0.1,0.6,0.2,0.9,0.3c0,0,0.1,0,0.1,0
								c0.4,0.1,0.9,0.3,1.3,0.4c0.1,0,0.2,0.1,0.3,0.1c0.2,0.1,0.3,0.1,0.5,0.2v0c1.2,2.8,1.8,6.1,1.8,9.4c0,3.5-0.7,6.8-1.9,9.7
								c0.3-0.1,0.7-0.2,1-0.3c1.6-0.5,3.2-1.1,4.7-1.9c0.6-2.4,0.9-4.9,0.9-7.5C634.8,538.5,634.5,536,633.9,533.7z"/>
						</g>
						<g>
							<path class="st11" d="M633.8,548.5c-0.5,1.8-1.1,3.6-1.9,5.2c-0.3,0.6-0.8,1-1.4,1.2c-3.9,1.2-7.3,1.8-10.2,1.8
								c-3.7,0-8-0.4-12.8-1.1c-0.7-0.1-1.4-0.6-1.7-1.2c-0.7-1.3-1.3-2.7-1.7-4.2c1.3,0.2,2.8,0.5,4.2,0.7c0.4,0.1,0.8,0.1,1.2,0.2
								c-1.3-3-2.1-6.5-2.1-10.1c0-4.2,1-8.2,2.8-11.5c0.2,0,0.4,0,0.6-0.1c0,0,0.1,0,0.1,0c0.5,0,1-0.1,1.4-0.1c0.1,0,0.3,0,0.4,0
								c0.5,0,1-0.1,1.4-0.1c0.5,0,1.1,0,1.6,0c2.7,0,5.2,0.3,7.3,0.8c0.4,0.1,0.8,0.2,1.3,0.3c0.3,0.1,0.5,0.1,0.8,0.2
								c0.3,0.1,0.6,0.2,0.9,0.3c0,0,0.1,0,0.1,0c0.4,0.1,0.9,0.3,1.3,0.4c0.1,0,0.2,0.1,0.3,0.1c0.1,0.1,0.3,0.1,0.5,0.2
								c1.2,2.8,1.8,6.1,1.8,9.4c0,3.5-0.7,6.8-1.9,9.7c0.3-0.1,0.7-0.2,1-0.3C630.7,549.9,632.3,549.3,633.8,548.5z"/>
						</g>
					</g>
				</g>
			</g>
		</g>
	</g>
	<g>
		<g>
			<path class="st2" d="M409.2,585.5c-14.2,2.5-21.5-63.3-31.8-73.1"/>
		</g>
		<g>
			<path class="st0" d="M408.3,589.2c-10.4,0-15.9-20.1-22.2-43.3c-1.2-4.5-2.4-9.1-3.5-13.6c-2.5-10-5-20.2-11.1-28.7
				c-0.2-0.3,1.5-0.7,2.6-0.3c0.3,0.1,0.6,0.2,0.8,0.4c1.4,1,6.4,7.6,7.4,9.2c1,1.5,1.7,3.2,2.5,4.8c1.9,4.3,3.3,8.8,4.6,13.4
				c1.3,4.3,2.4,8.6,3.6,13c2.7,10.1,5.6,20.5,8.7,28c3.4,8.2,6,10.2,7,10l1.2,7C409.3,589.1,408.8,589.2,408.3,589.2z"/>
		</g>
	</g>
	<g>
		<g>
			<line class="st2" x1="703.8" y1="568.3" x2="672.6" y2="674.6"/>
		</g>
		<g>
			<path class="st0" d="M691.5,622.8c1.9-6.5,3.8-13,5.7-19.4c1.7-5.7,3.3-11.4,5-17c1.2-4.1,2.4-8.1,3.6-12.2
				c0.5-1.6,1-3.2,1.2-4.8c0.2-1.4,0.7-9.2,0.7-9.2s-1.7,4.2-4.2,6.7s-3.2,1-3.6,2.5c-0.4,1.2-0.7,2.3-1,3.5
				c-1.1,3.8-2.2,7.6-3.4,11.4c-1.6,5.4-3.2,10.8-4.8,16.2c-1.8,6.2-3.7,12.5-5.5,18.7C683.4,625.5,689.6,629.3,691.5,622.8z"/>
		</g>
	</g>
	<g>
		<g>
			<path class="st2" d="M672.5,585.5c14.2,2.5,21.5-63.3,31.8-73.1"/>
		</g>
		<g>
			<path class="st0" d="M673.3,589.2c10.4,0,15.9-20.1,22.2-43.3c1.2-4.5,2.4-9.1,3.5-13.6c2.5-10,5-20.2,11.1-28.7
				c0.2-0.3-1.5-0.7-2.6-0.3c-0.3,0.1-0.6,0.2-0.8,0.4c-1.4,1-6.4,7.6-7.4,9.2c-1,1.5-1.7,3.2-2.5,4.8c-1.9,4.3-3.3,8.8-4.6,13.4
				c-1.3,4.3-2.4,8.6-3.6,13c-2.7,10.1-5.6,20.5-8.7,28c-3.4,8.2-6,10.2-7,10l-1.2,7C672.3,589.1,672.9,589.2,673.3,589.2z"/>
		</g>
	</g>
	<g>
		<path class="st2" d="M388.5,599.2c-1.1-4.8,1.9-9.6,6.7-10.8c19.1-4.5,65.1-6.9,102-13.3c16.8-2.9,19.6-12.9,44.5-12.9
			s22.8,10.3,36.6,12.5c38.1,5.9,88,8.8,109.7,13.6c5.1,1.1,8.1,6.3,6.6,11.3c-6.6,22.3-24.2,78.7-37.4,99.9
			c-16.6,26.6-90.7,77.1-117.8,76.9S434.2,720.4,420,699.6C408.6,682.8,393.8,622,388.5,599.2z"/>
		<path class="st0" d="M539.7,780c-0.1,0-0.2,0-0.2,0c-18.1-0.2-52.6-22-66.5-31.3c-26.2-17.6-48.7-36.5-55.8-47.1
			c-11.6-17.1-26.3-76.8-32-101.6l0,0c-1.5-6.7,2.6-13.4,9.3-15c9.8-2.3,26.1-4,45-6.1c18.2-1.9,38.9-4.1,57.1-7.3
			c6.2-1.1,10.4-3.2,14.8-5.5c6.8-3.5,14.6-7.5,30.4-7.5c16.2,0,22,4.2,27.1,7.9c3,2.2,5.4,3.9,10.1,4.6c17.7,2.8,37.7,4.8,56.9,6.8
			c21.2,2.2,41.3,4.3,53,6.9c3.4,0.8,6.3,2.9,8.1,5.9c1.8,3,2.2,6.6,1.2,9.9c-6.9,23.2-24.4,79.3-37.8,100.8
			C643.3,728.7,568.5,780,539.7,780z M391.9,598.4c4.4,19.1,19.7,82.6,31,99.2c6.6,9.7,28.8,28.3,53.9,45.2
			c28,18.8,51.4,30,62.6,30.1c0.1,0,0.1,0,0.2,0c11.6,0,34.8-10.6,60.6-27.7c25.2-16.7,46.4-35.4,54-47.5c12.9-20.7,30.2-76.2,37-99
			c0.4-1.5,0.3-3-0.5-4.3c-0.8-1.3-2-2.2-3.5-2.6c-11.4-2.5-31.2-4.6-52.2-6.7c-19.4-2-39.4-4.1-57.3-6.9c-6.3-1-9.8-3.5-13.1-5.9
			c-4.4-3.2-9-6.5-22.9-6.5c-14.1,0-20.4,3.3-27.1,6.7c-4.7,2.4-9.5,4.9-16.8,6.2c-18.4,3.2-39.2,5.4-57.6,7.3
			c-18.7,2-34.8,3.7-44.1,5.9C393.1,592.6,391.3,595.5,391.9,598.4L391.9,598.4z"/>
	</g>
	<g class="st10">
		<g>
			<path class="st12" d="M426.4,598.6l1.3,4.9c0.3,1.1,1.4,1.8,2.5,1.6c12.1-2.2,69.5-6.9,77.6-8.4c4.5-0.8,17.4-9.9,30.8-10
				s27.4,8.7,31.6,10c7.6,2.2,63.1,6.1,75.5,8.3c1.2,0.2,2.4-0.6,2.6-1.8l1-5.7c0.2-1.2-0.5-2.3-1.7-2.5c-9.2-2.2-43.3-2.5-73.2-7.4
				c-12.6-2.1-20-11.7-34.1-11.7s-18.2,7.5-32.5,10c-30.1,5.3-70.3,7.8-79.8,9.9C426.9,596.1,426.1,597.4,426.4,598.6z"/>
		</g>
	</g>
	<g>
		<g>
			<path class="st12" d="M619.7,626.7c-0.7-0.1-66-12.5-81.5-13.3c-15.6-0.8-81.4,13-82.1,13.2l-0.2-0.8
				c0.7-0.1,66.6-13.9,82.3-13.2c15.6,0.8,81,13.2,81.6,13.3L619.7,626.7z"/>
		</g>
	</g>
	<g>
		<g>
			<path class="st12" d="M537.5,728.3c-17,0-78.9-23.8-81.6-24.9l0.3-0.8c0.7,0.3,64.5,24.8,81.3,24.8c0.3,0,0.5,0,0.7,0
				c15.5-0.8,80.8-24.7,81.5-24.9l0.3,0.8c-2.7,1-66.1,24.2-81.7,25C538,728.3,537.7,728.3,537.5,728.3z"/>
		</g>
	</g>
	<g class="st13">
		<g>
			<path class="st1" d="M492.4,598.6c0,0,13.3-1.4,15.5-1.8c4.5-0.8,17.4-9.9,30.8-10s27.4,8.7,31.6,10c2.5,0.7,20,2.6,20,2.6
				l1.4-9.4c0,0-11.6-1.4-17.3-2.4c-12.6-2.1-20-11.7-34.1-11.7s-18.2,7.5-32.5,10c-5.6,1-17.6,2.7-17.6,2.7L492.4,598.6z"/>
		</g>
	</g>
	<g>
		<g>
			<path class="st1" d="M507.7,607.2c-0.3-3.8-0.6-14.5,2.6-31.3c4-20.9,1.1-26.7,1-26.7l1-0.6c0.1,0.2,3.2,6-0.9,27.6
				c-3.2,16.6-2.9,27.2-2.6,30.9L507.7,607.2z"/>
		</g>
		<g>
			<g>
				<polygon class="st1" points="503.3,603.5 504.1,602.6 508.3,606.7 512,602.3 512.9,603 508.4,608.4 				"/>
			</g>
		</g>
	</g>
	<g>
		<g>
			<path class="st1" d="M575,607.2l-1.2-0.1c0.3-3.8,0.6-14.3-2.6-30.9c-4.1-21.5-1-27.3-0.9-27.6l1,0.6c0,0.1-3,5.8,1,26.7
				C575.6,592.7,575.3,603.4,575,607.2z"/>
		</g>
		<g>
			<g>
				<polygon class="st1" points="569.7,603 570.6,602.3 574.3,606.7 578.5,602.6 579.3,603.5 574.3,608.4 				"/>
			</g>
		</g>
	</g>
</g>
<path class="st1" d="M584.9,243.6c-1.3-24.8-22.5-43.9-47.3-42.5c-24.8,1.3-43.9,22.5-42.5,47.3c1.3,24.8,22.5,43.9,47.3,42.5
	C567.2,289.6,586.3,268.4,584.9,243.6z M556.2,258.9c-0.1,0.8-0.4,1.3-1.3,1.3c-1,0-1.6-0.2-2.9-0.2c-0.7,0-1.1,0.4-1.1,1.4
	c0,1.7,0.2,3.7,0.3,6.5c0,0.7-0.5,1.3-1.6,1.4c-0.8,0.1-1.7,0.1-2.8,0.1c-2.3,0-4.7-0.1-5.9-0.2c-1.3-0.1-1.6-0.4-1.6-1.8
	c0-1.4,0.2-3.4,0.2-5.2c0-1.2-0.5-1.6-1.6-1.6c-2.8,0-9.2,0.3-12.1,0.3c-1.6,0-2.3-1.1-2.3-2.5c0-11.1,5.2-26.8,8.5-33.4
	c0.7-1.3,1.7-1.9,2.6-1.9c1.6-0.2,3.6-0.3,5.4-0.3c2,0,3.8,0.1,4.7,0.3c0.9,0.1,1.4,0.6,1.4,1.3c0,0.3-0.2,0.7-0.4,1
	c-7.4,9.7-11.5,20.9-11.5,25c0,0.6,0.2,0.7,1,0.7c4.3,0,5-0.1,5.6-0.7c0.4-0.4,0.6-1.1,0.7-1.9c0.4-4.7,0.5-7.8,1-9.9
	c0.3-1.4,0.7-2,1.4-2.8c1.3-1.3,5-3.8,6.8-3.8c0.4,0,0.8,0.3,0.8,1.1c0,0.7-0.7,7.3-0.7,14.6c0,1.3,0.5,1.6,1.3,1.6
	c0.7,0,1.8-0.1,2.5-0.1c0.9,0,1.4,0.4,1.6,1.4c0.2,1.1,0.3,2.8,0.3,4.7C556.4,256.4,556.3,257.6,556.2,258.9z"/>
</svg>
