<?xml version="1.0" encoding="utf-8"?>
<!-- Generator: Adobe Illustrator 25.2.1, SVG Export Plug-In . SVG Version: 6.00 Build 0)  -->
<svg version="1.1" id="Capa_1" xmlns="http://www.w3.org/2000/svg" xmlns:xlink="http://www.w3.org/1999/xlink" x="0px" y="0px"
	 viewBox="0 0 1080 1080" style="enable-background:new 0 0 1080 1080;" xml:space="preserve">
<style type="text/css">
	.st0{fill:#08333D;}
	.st1{fill:#D54543;}
	.st2{fill:#F2F9FB;}
	.st3{fill:none;}
	.st4{fill:#F2F9FB;stroke:#08333D;stroke-width:8.5039;stroke-miterlimit:10;}
	.st5{opacity:0.7;fill:#D54543;}
	.st6{fill:none;stroke:#08333D;stroke-width:5.6693;stroke-miterlimit:10;}
	.st7{fill:none;stroke:#A4C1C1;stroke-miterlimit:10;}
	.st8{opacity:0.5;fill:#A4C1C1;}
	.st9{fill:none;stroke:#08333D;stroke-width:8.5039;stroke-miterlimit:10;}
	.st10{opacity:0.5;}
	.st11{fill:#A0B9BA;}
	.st12{fill:#A4C1C1;}
	.st13{opacity:0.7;}
	.st14{opacity:0.91;}
	.st15{fill:none;stroke:#D54543;stroke-width:1.4173;stroke-miterlimit:10;}
	.st16{fill:none;stroke:#D54543;stroke-width:14.1732;stroke-miterlimit:10;}
</style>
<g>
	<g>
		<g>
			<line class="st2" x1="378.2" y1="568.8" x2="409.4" y2="674.8"/>
		</g>
		<g>
			<path class="st0" d="M406,675.8c-0.4-1.5-0.9-3-1.3-4.5c-1.2-4-2.3-7.9-3.5-11.9c-1.7-5.6-3.3-11.2-5-16.9
				c-1.9-6.5-3.8-12.9-5.7-19.4c-1.9-6.5-3.8-12.9-5.7-19.4c-1.7-5.7-3.3-11.3-5-17c-1.2-4-2.4-8.1-3.6-12.1c-0.5-1.6-1-3.2-1.2-4.8
				c-0.2-1.4-1.5-6.7,0.2-5c1.7,1.7,3.5,3.8,4.2,4.1c1.3,0.4,2.2-0.6,2.7,0.9c0.4,1.2,0.7,2.3,1,3.5c1.1,3.8,2.2,7.6,3.4,11.4
				c1.6,5.4,3.2,10.8,4.8,16.2c1.8,6.2,3.7,12.4,5.5,18.7c1.9,6.3,3.7,12.6,5.6,18.9c1.7,5.6,3.3,11.2,5,16.8
				c1.2,4.2,2.5,8.3,3.7,12.5c0.6,2,1.2,3.9,1.7,5.9c0,0.1,0,0.1,0.1,0.2C412.8,673.8,406,675.8,406,675.8z"/>
		</g>
	</g>
	<g>
		<g class="st10">
			<g>
				<path class="st11" d="M711.3,503.2c-1-0.2-3.9-0.9-9.3,8.6c-3.4-38.1-19.6-73.4-46.5-100.6c-30.5-31-71.4-48-115.1-48
					c-43.7,0-84.5,17-115.1,48c-27.2,27.6-43.4,63.3-46.6,101.9c-5.9-10.9-9-10.2-10.1-9.9c-3.1,0.7-3.5,4.7-3.4,8.5
					c0.1,9.8,1.5,16.3,2.6,21.6c0.9,4.3,1.6,7.7,1.5,11.5c-0.1,3.9,0.8,9.2,2.4,13.9c1.4,4,3.7,9,7.2,10.1c0.3,0.1,0.9,0.2,1.5,0.2
					c1,0,2.2-0.3,3.5-1.5c9.1,34.4,28.5,74,55.4,112.4c36.5,52.1,76.1,85.7,100.9,85.7c24.7,0,64.3-33.6,100.9-85.7
					c26.8-38.2,46.1-77.6,55.3-111.8c1,0.7,2,0.9,2.8,0.9c0.6,0,1.2-0.1,1.5-0.2c3.5-1.1,5.8-6.1,7.2-10.1c1.6-4.7,2.5-10,2.4-13.9
					c-0.1-3.9,0.6-7.3,1.5-11.5c1.1-5.3,2.5-11.8,2.6-21.6C714.7,507.9,714.4,503.9,711.3,503.2z M707.4,532.3
					c-0.9,4.4-1.7,8.2-1.6,12.7c0.2,7.9-4.3,19.2-6.5,19.4c-0.1,0-0.4-0.2-0.8-0.7l-0.6-1.3l-0.9-2.2c-0.7-1.6-3.1-1.4-3.5,0.3
					c-0.2,0.7-0.4,1.5-0.5,2.2c-3,12-7.3,24.7-12.8,38c-10.6,25.2-25.4,51.7-42.8,76.6c-35.1,50.1-74.1,83.7-97,83.7
					c-22.9,0-61.9-33.6-97-83.7c-17.4-24.8-32.3-51.3-42.8-76.6c-5.5-13.3-9.9-26-12.8-38l-0.6-2.6c-0.3-1.4-2.1-1.7-2.9-0.5
					l-1.5,2.3l-1.2,1.7c-0.5,0.7-0.8,0.9-0.9,0.9c-2.2-0.2-6.7-11.5-6.5-19.4c0.1-4.5-0.7-8.3-1.6-12.7c-1.1-5.3-2.4-11.3-2.6-20.7
					c0-1.4,0-2.4,0.1-3.1c1.7,1.9,4.4,6.3,6.6,10.9c0,0,0.1,0.1,0.1,0.2l1.3,2.4l1.6,2.8c0.9,1.5,3.2,0.9,3.2-0.8
					c0-1.2,0-2.3,0.1-2.9c1.5-40.4,17.5-78,45.7-106.6c29.6-30.1,69.3-46.6,111.7-46.6s82.1,16.6,111.7,46.6
					c27.8,28.2,43.8,65.2,45.6,104.9c0,1,0.3,2.3,0.5,3.4c0.3,1.2,1.8,1.5,2.5,0.5l1.8-2.6l0.6-0.9c0.1-0.1,0.1-0.2,0.2-0.3
					c2.2-4.6,4.9-9.1,6.6-11c0.1,0.7,0.1,1.6,0.1,3.1C709.8,521,708.5,527,707.4,532.3z"/>
			</g>
		</g>
		<g class="st10">
			<g>
				<g>
					<path class="st11" d="M560.9,635.7c-2.7,0-6.2-0.1-10.4-0.2c-4.4-0.1-9.4-0.2-14.1-0.2h-22.6c-0.3,0-0.5,0-0.7-0.1
						c-4.6-1.5-3.5-10.4,0.6-35.5c1.6-9.9,3.3-20.1,3.6-26.7c2.4-50.5-1.5-60.4-3.3-62.4c-4.3-4.6-11.2-4-11.3-4c-0.1,0-0.3,0-0.4,0
						c-0.2,0-23.3-1.6-44.5,0c-21.3,1.6-42.5,4.7-42.7,4.7c-1.3,0.2-2.5-0.7-2.7-2c-0.2-1.3,0.7-2.5,2-2.7c0.2,0,21.6-3.1,43-4.8
						c20.5-1.6,42.7-0.2,45,0c1.5-0.1,9.5-0.4,15,5.5c1.8,1.9,7.3,7.8,4.5,65.8c-0.3,6.9-2,17.2-3.7,27.2
						c-1.7,10.6-4.3,26.4-3.4,30.2h21.4c4.8,0,9.8,0.1,14.2,0.2c6.5,0.1,12.6,0.3,15.4,0c0.4-3.5-1.4-15.4-2.8-25.1
						c-1.7-11.9-3.6-24.1-3.6-31.7l0-1.5c0-32.4,2.1-69.8,18.6-70.6c0.2,0,23.6-1.7,45.1,0c21.4,1.6,42.8,4.7,43,4.8
						c1.3,0.2,2.2,1.4,2,2.7c-0.2,1.3-1.4,2.2-2.7,2c-0.2,0-21.4-3.1-42.7-4.7c-21.2-1.6-44.2,0-44.5,0
						c-7.5,0.4-10.9,16.2-12.2,25.6c-2,14.5-2,31.3-2,40.3l0,1.5c0,7.3,1.9,19.9,3.5,31c3.6,24.5,4,29.3,0.2,30.2
						C566.7,635.5,564.3,635.7,560.9,635.7z"/>
				</g>
			</g>
			<g>
				<g>
					<g>
						<g>
							<path class="st11" d="M471.1,552.5c0.2,0,0.3,0,0.5-0.1v0C471.5,552.5,471.3,552.5,471.1,552.5z"/>
						</g>
						<g>
							<path class="st11" d="M492.4,550.3c0.4,1.3-0.4,2.5-1.6,2.9c-0.3,0.1-8.1,2.3-17.3,3.7c0.7-0.1,1.3-0.6,1.7-1.2
								c0.7-1.3,1.3-2.7,1.7-4.1c7-1.3,12.5-2.9,12.5-2.9C490.8,548.3,492.1,549.1,492.4,550.3z"/>
						</g>
						<g>
							<path class="st11" d="M476.8,532.7c-1.5-0.8-3.2-1.4-4.8-1.6c-0.4,0-0.7-0.1-1.1-0.1c-0.2,0-0.4,0-0.6-0.1c0,0-0.1,0-0.1,0
								c-0.5-0.1-1-0.1-1.5-0.1c-0.1,0-0.2,0-0.3,0c-1.1-0.1-2.1-0.1-3.1-0.1c-2.7,0-5.2,0.3-7.3,0.8c-0.4,0.1-0.8,0.2-1.3,0.3
								c-0.2,0-0.4,0.1-0.7,0.2c-0.3,0.1-0.7,0.2-1,0.3c0,0-0.1,0-0.1,0c-0.5,0.1-1,0.3-1.5,0.5c0,0,0,0,0,0
								c-0.2,0.1-0.4,0.2-0.6,0.2c-0.3,0.1-0.6,0.2-0.9,0.3c-1.6,0.6-3.2,1.2-4.7,1.8c-5.6,2.1-10.5,4-13.7,5.2
								c3,2.6,8.1,6.8,13.7,9.6c0.5,1.8,1.1,3.6,1.9,5.2c0.3,0.6,0.8,1,1.4,1.2c-11.5-3.5-22.6-14.7-23.1-15.1
								c-0.6-0.6-0.8-1.4-0.6-2.1c0.2-0.8,0.7-1.4,1.4-1.7c0.1,0,10.4-4,21.9-8.4c0,0,0,0,0,0c2.3-0.9,4.5-1.6,6.7-2.1
								c4.4-1.1,9.7-1.2,15.8-0.4c10.5,1.4,19.5,13.7,19.8,14.2c0.8,1.1,0.5,2.5-0.5,3.3c-1,0.8-2.5,0.5-3.3-0.5
								c0,0-2.1-2.8-5.2-5.8C481.6,535.8,479.3,534,476.8,532.7z"/>
						</g>
					</g>
					<g>
						<g>
							<path class="st11" d="M474.3,527.5c-0.4-0.6-1-1-1.7-1.1c-6-0.8-11.3-0.7-15.8,0.4c-2.2,0.5-4.4,1.2-6.7,2.1c0,0,0,0,0,0
								c-0.5,0.2-1,0.6-1.2,1.2c-0.7,1.6-1.3,3.2-1.8,5c1.5-0.6,3.1-1.2,4.7-1.8c0.3-0.1,0.6-0.2,0.9-0.3c0,0,0,0,0,0
								c0.2-0.1,0.4-0.1,0.6-0.2c0,0,0,0,0,0c0.5-0.2,1-0.3,1.5-0.5c0,0,0.1,0,0.1,0c0.3-0.1,0.7-0.2,1-0.3c0.2-0.1,0.4-0.1,0.7-0.2
								c0.4-0.1,0.9-0.2,1.3-0.3c2.2-0.5,4.6-0.8,7.3-0.8c1,0,2,0,3.1,0.1c0.1,0,0.2,0,0.3,0c0.5,0,1,0.1,1.5,0.1c0,0,0,0,0.1,0
								c0.2,0,0.4,0,0.6,0.1c0,0,0,0,0,0c0.4,0,0.7,0.1,1.1,0.1c1.6,0.2,3.2,0.8,4.8,1.6C476.2,530.8,475.3,529.1,474.3,527.5z"/>
						</g>
						<g>
							<path class="st11" d="M476.8,532.7c-1.5-0.8-3.2-1.4-4.8-1.6c-0.4,0-0.7-0.1-1.1-0.1c-0.2,0-0.4,0-0.6-0.1c0,0-0.1,0-0.1,0
								c-0.5-0.1-1-0.1-1.5-0.1c-0.1,0-0.2,0-0.3,0c-1.1-0.1-2.1-0.1-3.1-0.1c-2.7,0-5.2,0.3-7.3,0.8c-0.4,0.1-0.8,0.2-1.3,0.3
								c-0.2,0.1-0.4,0.1-0.7,0.2c-0.3,0.1-0.7,0.2-1,0.3c0,0-0.1,0-0.1,0c-0.5,0.1-1,0.3-1.5,0.5c0,0,0,0,0,0
								c-0.2,0.1-0.4,0.2-0.6,0.2c-0.3,0.1-0.6,0.2-0.9,0.3c-1.6,0.6-3.2,1.2-4.7,1.8c-0.6,2.3-0.9,4.8-0.9,7.3
								c0,2.6,0.3,5.1,0.9,7.5c0.5,1.8,1.1,3.6,1.9,5.2c0.3,0.6,0.8,1,1.4,1.2c3.8,1.2,7.3,1.8,10.2,1.8c3.7,0,8-0.4,12.8-1.1
								c0,0,0,0,0,0c0.7-0.1,1.3-0.6,1.7-1.2c0.7-1.3,1.3-2.7,1.7-4.1c0.9-2.8,1.4-6,1.4-9.2C478.4,539,477.9,535.7,476.8,532.7z
								 M471.6,552.5c-0.2,0-0.3,0-0.5,0.1C471.3,552.5,471.5,552.5,471.6,552.5L471.6,552.5z"/>
						</g>
					</g>
				</g>
				<g>
					<g>
						<g>
							<path class="st11" d="M607.3,556.1c-9.1-1.4-16.9-3.6-17.3-3.7c-1.3-0.4-2-1.7-1.6-2.9c0.4-1.2,1.7-2,2.9-1.6
								c0.1,0,5.5,1.6,12.5,2.9c0.5,1.5,1,2.8,1.7,4.1C605.9,555.5,606.6,556,607.3,556.1z"/>
						</g>
						<g>
							<path class="st11" d="M653.4,540.3c-0.5,0.5-11.5,11.6-23.1,15.1c0.6-0.2,1.1-0.6,1.4-1.2c0.8-1.6,1.4-3.4,1.9-5.2
								c5.6-2.7,10.7-6.9,13.7-9.6c-3.1-1.2-8.1-3.1-13.7-5.2c-1.5-0.6-3.1-1.2-4.7-1.8c-0.3-0.1-0.6-0.2-0.9-0.3
								c-0.2-0.1-0.3-0.1-0.5-0.2c-0.1,0-0.2-0.1-0.3-0.1c-0.4-0.1-0.9-0.3-1.3-0.4c0,0-0.1,0-0.1,0c-0.3-0.1-0.6-0.2-0.9-0.3
								c-0.3-0.1-0.5-0.2-0.8-0.2c-0.4-0.1-0.8-0.2-1.3-0.3c-2.2-0.5-4.6-0.8-7.3-0.8c-0.5,0-1,0-1.6,0c-0.5,0-1,0-1.4,0.1
								c-0.1,0-0.3,0-0.4,0c-0.5,0-0.9,0.1-1.4,0.1c0,0-0.1,0-0.1,0c-0.2,0-0.4,0-0.6,0.1c-0.4,0-0.7,0.1-1.1,0.1
								c-1.6,0.2-3.2,0.8-4.8,1.6c-6.5,3.4-11.8,10.6-11.9,10.7c-0.8,1.1-2.2,1.3-3.3,0.5c-1.1-0.8-1.3-2.2-0.5-3.3
								c0.4-0.5,9.4-12.8,19.8-14.2c6-0.8,11.3-0.7,15.7,0.4c2.2,0.5,4.4,1.2,6.7,2.1c11.5,4.3,21.8,8.3,21.9,8.4
								c0.7,0.3,1.3,0.9,1.4,1.7C654.2,539,653.9,539.8,653.4,540.3z"/>
						</g>
					</g>
					<g>
						<g>
							<path class="st11" d="M633.7,534.3c-0.4-1.8-1-3.4-1.8-5c-0.3-0.5-0.7-1-1.3-1.2c-2.3-0.9-4.5-1.6-6.7-2.1
								c-4.4-1.1-9.7-1.2-15.7-0.4c-0.7,0.1-1.3,0.5-1.7,1.1c-1,1.6-1.9,3.3-2.5,5.2c-1,3-1.6,6.3-1.6,9.7c0,3.2,0.5,6.3,1.4,9.2
								c1.3,0.2,2.7,0.5,4.2,0.7c0.4,0.1,0.8,0.1,1.2,0.2c-1.3-2.9-2.1-6.5-2.1-10c0-4.2,1-8.2,2.8-11.4c0,0,0,0,0,0
								c0.2,0,0.4,0,0.6-0.1c0,0,0.1,0,0.1,0c0.5-0.1,1-0.1,1.4-0.1c0.1,0,0.3,0,0.4,0c0.5,0,1-0.1,1.4-0.1c0.5,0,1.1,0,1.6,0
								c2.7,0,5.1,0.3,7.3,0.8c0.4,0.1,0.8,0.2,1.3,0.3c0.3,0.1,0.5,0.1,0.8,0.2c0.3,0.1,0.6,0.2,0.9,0.3c0,0,0.1,0,0.1,0
								c0.4,0.1,0.9,0.3,1.3,0.4c0.1,0,0.2,0.1,0.3,0.1c0.2,0.1,0.3,0.1,0.5,0.2v0c1.2,2.8,1.8,6.1,1.8,9.4c0,3.5-0.7,6.8-1.9,9.7
								c0.3-0.1,0.7-0.2,1-0.3c1.6-0.5,3.2-1.1,4.7-1.9c0.6-2.4,0.9-4.9,0.9-7.5C634.5,539.1,634.2,536.6,633.7,534.3z"/>
						</g>
						<g>
							<path class="st11" d="M633.6,549.1c-0.5,1.8-1.1,3.6-1.9,5.2c-0.3,0.6-0.8,1-1.4,1.2c-3.8,1.2-7.3,1.8-10.2,1.8
								c-3.7,0-8-0.4-12.8-1.1c-0.7-0.1-1.4-0.6-1.7-1.2c-0.7-1.3-1.3-2.7-1.7-4.1c1.3,0.2,2.7,0.5,4.2,0.7c0.4,0.1,0.8,0.1,1.2,0.2
								c-1.3-2.9-2.1-6.5-2.1-10c0-4.2,1-8.2,2.8-11.4c0.2,0,0.4,0,0.6-0.1c0,0,0.1,0,0.1,0c0.5,0,1-0.1,1.4-0.1c0.1,0,0.3,0,0.4,0
								c0.5,0,1-0.1,1.4-0.1c0.5,0,1.1,0,1.6,0c2.7,0,5.1,0.3,7.3,0.8c0.4,0.1,0.8,0.2,1.3,0.3c0.3,0.1,0.5,0.1,0.8,0.2
								c0.3,0.1,0.6,0.2,0.9,0.3c0,0,0.1,0,0.1,0c0.4,0.1,0.9,0.3,1.3,0.4c0.1,0,0.2,0.1,0.3,0.1c0.1,0.1,0.3,0.1,0.5,0.2
								c1.2,2.8,1.8,6.1,1.8,9.4c0,3.5-0.7,6.8-1.9,9.7c0.3-0.1,0.7-0.2,1-0.3C630.5,550.5,632.1,549.8,633.6,549.1z"/>
						</g>
					</g>
				</g>
			</g>
		</g>
	</g>
	<g>
		<g>
			<path class="st2" d="M409.5,586c-14.1,2.5-21.4-63.2-31.7-72.9"/>
		</g>
		<g>
			<path class="st0" d="M408.6,589.6c-10.4,0-15.9-20.1-22.2-43.2c-1.2-4.5-2.4-9-3.5-13.6c-2.5-10-5-20.1-11.1-28.7
				c-0.2-0.3,1.5-0.7,2.6-0.3c0.3,0.1,0.6,0.2,0.8,0.4c1.4,1,6.3,7.6,7.3,9.2c1,1.5,1.7,3.2,2.5,4.8c1.9,4.3,3.3,8.8,4.6,13.3
				c1.3,4.3,2.4,8.6,3.6,12.9c2.7,10,5.6,20.4,8.7,28c3.4,8.2,6,10.1,7,10l1.2,7C409.6,589.6,409.1,589.6,408.6,589.6z"/>
		</g>
	</g>
	<g>
		<g>
			<line class="st2" x1="703.5" y1="568.8" x2="672.2" y2="674.8"/>
		</g>
		<g>
			<path class="st0" d="M691.1,623.2c1.9-6.5,3.8-12.9,5.7-19.4c1.7-5.7,3.3-11.3,5-17c1.2-4,2.4-8.1,3.6-12.1
				c0.5-1.6,1-3.2,1.2-4.8c0.2-1.4,0.7-9.2,0.7-9.2s-1.7,4.2-4.2,6.6s-3.1,1-3.6,2.5c-0.4,1.2-0.7,2.3-1,3.5
				c-1.1,3.8-2.2,7.6-3.4,11.4c-1.6,5.4-3.2,10.8-4.8,16.2c-1.8,6.2-3.7,12.4-5.5,18.7C683,625.8,689.2,629.6,691.1,623.2z"/>
		</g>
	</g>
	<g>
		<g>
			<path class="st2" d="M672.1,586c14.1,2.5,21.4-63.2,31.7-72.9"/>
		</g>
		<g>
			<path class="st0" d="M673,589.6c10.4,0,15.9-20.1,22.2-43.2c1.2-4.5,2.4-9,3.5-13.6c2.5-10,5-20.1,11.1-28.7
				c0.2-0.3-1.5-0.7-2.6-0.3c-0.3,0.1-0.6,0.2-0.8,0.4c-1.4,1-6.3,7.6-7.3,9.2c-1,1.5-1.7,3.2-2.5,4.8c-1.9,4.3-3.3,8.8-4.6,13.3
				c-1.3,4.3-2.4,8.6-3.6,12.9c-2.7,10-5.6,20.4-8.7,28c-3.4,8.2-6,10.1-7,10l-1.2,7C672,589.6,672.5,589.6,673,589.6z"/>
		</g>
	</g>
	<g>
		<path class="st2" d="M388.9,599.6c-1.1-4.8,1.9-9.6,6.7-10.7c19.1-4.5,65-6.9,101.7-13.2c16.8-2.9,19.5-12.9,44.4-12.9
			c24.9,0,22.7,10.3,36.5,12.5c38,5.9,87.8,8.8,109.5,13.6c5.1,1.1,8.1,6.3,6.6,11.3c-6.6,22.2-24.1,78.5-37.3,99.7
			c-16.6,26.6-90.5,77-117.5,76.7c-27-0.3-105.1-55.9-119.2-76.7C408.9,683,394.1,622.3,388.9,599.6z"/>
		<path class="st0" d="M539.7,780c-0.1,0-0.2,0-0.2,0c-18.1-0.2-52.4-21.9-66.3-31.3c-26.1-17.5-48.5-36.4-55.7-47
			c-11.6-17.1-26.2-76.6-32-101.4l0,0c-1.5-6.7,2.6-13.4,9.3-15c9.8-2.3,26.1-4,44.9-6c18.2-1.9,38.8-4.1,57-7.3
			c6.2-1.1,10.3-3.2,14.7-5.5c6.8-3.5,14.5-7.5,30.3-7.5c16.2,0,21.9,4.2,27,7.9c3,2.2,5.4,3.9,10.1,4.6c17.7,2.8,37.6,4.8,56.8,6.8
			c21.2,2.2,41.2,4.2,52.9,6.9c3.4,0.8,6.3,2.9,8.1,5.9c1.7,3,2.2,6.6,1.2,9.9c-6.9,23.1-24.4,79.1-37.7,100.5
			C643,728.8,568.5,780,539.7,780z M392.3,598.8c4.4,19,19.7,82.4,30.9,99c6.6,9.7,28.7,28.3,53.8,45.1
			c27.9,18.7,51.2,29.9,62.5,30.1c0.1,0,0.1,0,0.2,0c11.6,0,34.7-10.6,60.5-27.7c25.2-16.7,46.3-35.3,53.8-47.3
			c12.9-20.7,30.1-76,37-98.8c0.4-1.5,0.3-3-0.5-4.3c-0.8-1.3-2-2.2-3.5-2.5c-11.3-2.5-31.1-4.6-52.1-6.7c-19.3-2-39.3-4.1-57.2-6.8
			c-6.3-1-9.8-3.5-13.1-5.9c-4.4-3.2-9-6.5-22.9-6.5c-14.1,0-20.4,3.2-27.1,6.7c-4.7,2.4-9.5,4.9-16.8,6.1
			c-18.4,3.2-39.2,5.4-57.5,7.3c-18.6,2-34.7,3.7-44,5.9C393.4,593,391.6,595.9,392.3,598.8L392.3,598.8z"/>
	</g>
	<g class="st10">
		<g>
			<path class="st12" d="M426.7,599.1l1.3,4.9c0.3,1.1,1.4,1.8,2.5,1.6c12.1-2.2,69.4-6.9,77.4-8.4c4.5-0.8,17.3-9.9,30.7-10
				s27.3,8.7,31.6,10c7.6,2.2,62.9,6.1,75.3,8.3c1.2,0.2,2.4-0.6,2.6-1.8l1-5.7c0.2-1.1-0.5-2.2-1.7-2.5c-9.2-2.2-43.2-2.5-73-7.4
				c-12.6-2.1-19.9-11.6-34-11.6s-18.1,7.4-32.4,10c-30,5.3-70.1,7.8-79.7,9.9C427.1,596.6,426.4,597.8,426.7,599.1z"/>
		</g>
	</g>
	<g>
		<g>
			<path class="st12" d="M619.5,627.1c-0.7-0.1-65.8-12.5-81.3-13.3c-15.6-0.8-81.2,13-81.9,13.1l-0.2-0.8
				c0.7-0.1,66.4-13.9,82.1-13.1c15.6,0.8,80.8,13.2,81.4,13.3L619.5,627.1z"/>
		</g>
	</g>
	<g>
		<g>
			<path class="st12" d="M537.5,728.4c-16.9,0-78.7-23.8-81.4-24.8l0.3-0.8c0.7,0.3,64.3,24.8,81.1,24.8c0.3,0,0.5,0,0.7,0
				c15.5-0.8,80.6-24.6,81.3-24.9l0.3,0.8c-2.7,1-65.9,24.2-81.5,24.9C538,728.4,537.7,728.4,537.5,728.4z"/>
		</g>
	</g>
</g>
<path class="st1" d="M540,846.8c-24.8,0-45,20.1-45,45c0,24.8,20.2,45,45,45c24.9,0,45-20.2,45-45C585,867,564.9,846.8,540,846.8z
	 M559.2,885.2l-27.2,22.5c-1,0.8-2.4,0.6-3.2-0.4c-2.5-3.7-7.6-11.4-9.4-14.3c-0.4-0.7-0.2-1.5,0.5-1.9l2.7-1.6
	c0.6-0.3,1.4-0.1,1.7,0.5l6.4,11.9l23.7-25.6c0.7-0.8,2-0.8,2.8-0.1c1.5,1.4,3.5,3.4,3.5,4.7C560.7,882.7,559.2,885.2,559.2,885.2z"
	/>
<path class="st1" d="M584.9,243.6c-1.3-24.8-22.5-43.9-47.3-42.6c-24.8,1.3-43.9,22.5-42.6,47.3c1.3,24.8,22.5,43.9,47.3,42.5
	C567.2,289.6,586.3,268.4,584.9,243.6z M539.5,269.4c-6.7,0-11-1.8-13.6-3.7c-1.1-0.8-1.6-1.4-1.6-2.5c0-1.7,1.6-6.1,2.8-8.2
	c0.3-0.5,0.7-0.8,1.1-0.8c0.4,0,1,0.4,1.7,1c1.9,1.3,5.5,2.9,9.5,2.9c3.4,0,5.8-1.6,5.8-5.2c0-2.8-1.5-4.6-5.3-4.6
	c-3,0-6.9,1.3-9.4,1.3c-0.9,0-2.2-0.4-3.2-0.8c-1.5-0.7-2-1.3-2-2.1c0-7.3,1.3-17.6,2.4-22c0.3-1.2,0.9-1.9,1.9-1.9
	c3-0.2,6.7-0.2,10.5-0.2c4.4,0,8.9,0.1,12.7,0.2c1.1,0.1,1.4,0.7,1.4,1.5c0,1.7-0.4,6-1,8.5c-0.2,1.1-0.6,1.5-1.2,1.5
	c-0.2,0-0.7-0.1-1.1-0.2c-2.3-0.7-7.2-2-11.3-2c-1.4,0-2.2,0.3-2.7,0.8c-1,0.9-1.4,4.5-1.4,6.3c0,1.1,0.2,1.7,1,1.7
	c1.3,0,3.3-1.4,7.6-1.4c8.6,0,11.7,6.4,11.7,14C555.7,264.4,550,269.4,539.5,269.4z"/>
</svg>
